<?xml version="1.0" encoding="UTF-8" standalone="no"?>
<!-- Created with Inkscape (http://www.inkscape.org/) -->

<svg
   xmlns:dc="http://purl.org/dc/elements/1.1/"
   xmlns:cc="http://creativecommons.org/ns#"
   xmlns:rdf="http://www.w3.org/1999/02/22-rdf-syntax-ns#"
   xmlns:svg="http://www.w3.org/2000/svg"
   xmlns="http://www.w3.org/2000/svg"
   xmlns:xlink="http://www.w3.org/1999/xlink"
   xmlns:sodipodi="http://sodipodi.sourceforge.net/DTD/sodipodi-0.dtd"
   xmlns:inkscape="http://www.inkscape.org/namespaces/inkscape"
   width="739.43207"
   height="739.43207"
   id="svg2"
   version="1.1"
   inkscape:version="0.47 r22583"
   sodipodi:docname="Novo documento 1">
  <defs
     id="defs4">
    <linearGradient
       id="linearGradient3592">
      <stop
         style="stop-color:#ff0000;stop-opacity:1;"
         offset="0"
         id="stop3594" />
      <stop
         id="stop3600"
         offset="0.5"
         style="stop-color:#fc7f00;stop-opacity:1;" />
      <stop
         style="stop-color:#faff00;stop-opacity:1;"
         offset="1"
         id="stop3596" />
    </linearGradient>
    <inkscape:perspective
       sodipodi:type="inkscape:persp3d"
       inkscape:vp_x="0 : 526.18109 : 1"
       inkscape:vp_y="0 : 1000 : 0"
       inkscape:vp_z="744.09448 : 526.18109 : 1"
       inkscape:persp3d-origin="372.04724 : 350.78739 : 1"
       id="perspective10" />
    <linearGradient
       inkscape:collect="always"
       xlink:href="#linearGradient3592"
       id="linearGradient3610"
       x1="-227.43318"
       y1="295.21933"
       x2="398.86176"
       y2="295.21933"
       gradientUnits="userSpaceOnUse" />
    <linearGradient
       inkscape:collect="always"
       xlink:href="#linearGradient3592"
       id="linearGradient3612"
       x1="-1011.4286"
       y1="519.50507"
       x2="-697.14282"
       y2="519.50507"
       gradientUnits="userSpaceOnUse" />
    <inkscape:perspective
       id="perspective3622"
       inkscape:persp3d-origin="0.5 : 0.33333333 : 1"
       inkscape:vp_z="1 : 0.5 : 1"
       inkscape:vp_y="0 : 1000 : 0"
       inkscape:vp_x="0 : 0.5 : 1"
       sodipodi:type="inkscape:persp3d" />
    <linearGradient
       inkscape:collect="always"
       xlink:href="#linearGradient3592-1"
       id="linearGradient3612-3"
       x1="-1011.4286"
       y1="519.50507"
       x2="-697.14282"
       y2="519.50507"
       gradientUnits="userSpaceOnUse" />
    <linearGradient
       id="linearGradient3592-1">
      <stop
         style="stop-color:#ff0000;stop-opacity:1;"
         offset="0"
         id="stop3594-6" />
      <stop
         id="stop3600-8"
         offset="0.5"
         style="stop-color:#fc7f00;stop-opacity:1;" />
      <stop
         style="stop-color:#faff00;stop-opacity:1;"
         offset="1"
         id="stop3596-8" />
    </linearGradient>
    <linearGradient
       inkscape:collect="always"
       xlink:href="#linearGradient3592-1"
       id="linearGradient5112"
       x1="-1011.4286"
       y1="519.50507"
       x2="-697.14282"
       y2="519.50507"
       gradientUnits="userSpaceOnUse" />
    <inkscape:perspective
       id="perspective5122"
       inkscape:persp3d-origin="0.5 : 0.33333333 : 1"
       inkscape:vp_z="1 : 0.5 : 1"
       inkscape:vp_y="0 : 1000 : 0"
       inkscape:vp_x="0 : 0.5 : 1"
       sodipodi:type="inkscape:persp3d" />
    <linearGradient
       inkscape:collect="always"
       xlink:href="#linearGradient3592-6"
       id="linearGradient3610-4"
       x1="-227.43318"
       y1="295.21933"
       x2="398.86176"
       y2="295.21933"
       gradientUnits="userSpaceOnUse" />
    <linearGradient
       id="linearGradient3592-6">
      <stop
         style="stop-color:#ff0000;stop-opacity:1;"
         offset="0"
         id="stop3594-0" />
      <stop
         id="stop3600-3"
         offset="0.5"
         style="stop-color:#fc7f00;stop-opacity:1;" />
      <stop
         style="stop-color:#faff00;stop-opacity:1;"
         offset="1"
         id="stop3596-6" />
    </linearGradient>
    <linearGradient
       y2="295.21933"
       x2="398.86176"
       y1="295.21933"
       x1="-227.43318"
       gradientUnits="userSpaceOnUse"
       id="linearGradient5132"
       xlink:href="#linearGradient3592-6"
       inkscape:collect="always" />
    <inkscape:perspective
       id="perspective5163"
       inkscape:persp3d-origin="0.5 : 0.33333333 : 1"
       inkscape:vp_z="1 : 0.5 : 1"
       inkscape:vp_y="0 : 1000 : 0"
       inkscape:vp_x="0 : 0.5 : 1"
       sodipodi:type="inkscape:persp3d" />
    <linearGradient
       inkscape:collect="always"
       xlink:href="#linearGradient3592-1-5"
       id="linearGradient5112-4"
       x1="-1011.4286"
       y1="519.50507"
       x2="-697.14282"
       y2="519.50507"
       gradientUnits="userSpaceOnUse" />
    <linearGradient
       id="linearGradient3592-1-5">
      <stop
         style="stop-color:#ff0000;stop-opacity:1;"
         offset="0"
         id="stop3594-6-8" />
      <stop
         id="stop3600-8-8"
         offset="0.5"
         style="stop-color:#fc7f00;stop-opacity:1;" />
      <stop
         style="stop-color:#faff00;stop-opacity:1;"
         offset="1"
         id="stop3596-8-1" />
    </linearGradient>
    <inkscape:perspective
       id="perspective5207"
       inkscape:persp3d-origin="0.5 : 0.33333333 : 1"
       inkscape:vp_z="1 : 0.5 : 1"
       inkscape:vp_y="0 : 1000 : 0"
       inkscape:vp_x="0 : 0.5 : 1"
       sodipodi:type="inkscape:persp3d" />
    <linearGradient
       y2="519.50507"
       x2="-697.14282"
       y1="519.50507"
       x1="-1011.4286"
       gradientUnits="userSpaceOnUse"
       id="linearGradient5173-1"
       xlink:href="#linearGradient3592-1-5-4"
       inkscape:collect="always" />
    <linearGradient
       id="linearGradient3592-1-5-4">
      <stop
         style="stop-color:#ff0000;stop-opacity:1;"
         offset="0"
         id="stop3594-6-8-9" />
      <stop
         id="stop3600-8-8-8"
         offset="0.5"
         style="stop-color:#fc7f00;stop-opacity:1;" />
      <stop
         style="stop-color:#faff00;stop-opacity:1;"
         offset="1"
         id="stop3596-8-1-2" />
    </linearGradient>
    <inkscape:perspective
       id="perspective5292"
       inkscape:persp3d-origin="0.5 : 0.33333333 : 1"
       inkscape:vp_z="1 : 0.5 : 1"
       inkscape:vp_y="0 : 1000 : 0"
       inkscape:vp_x="0 : 0.5 : 1"
       sodipodi:type="inkscape:persp3d" />
    <linearGradient
       id="linearGradient3592-1-5-4-8">
      <stop
         style="stop-color:#ff0000;stop-opacity:1;"
         offset="0"
         id="stop3594-6-8-9-6" />
      <stop
         id="stop3600-8-8-8-6"
         offset="0.5"
         style="stop-color:#fc7f00;stop-opacity:1;" />
      <stop
         style="stop-color:#faff00;stop-opacity:1;"
         offset="1"
         id="stop3596-8-1-2-2" />
    </linearGradient>
    <linearGradient
       y2="519.50507"
       x2="-697.14282"
       y1="519.50507"
       x1="-1011.4286"
       gradientUnits="userSpaceOnUse"
       id="linearGradient5173-3"
       xlink:href="#linearGradient3592-1-5-8"
       inkscape:collect="always" />
    <linearGradient
       id="linearGradient3592-1-5-8">
      <stop
         style="stop-color:#ff0000;stop-opacity:1;"
         offset="0"
         id="stop3594-6-8-2" />
      <stop
         id="stop3600-8-8-6"
         offset="0.5"
         style="stop-color:#fc7f00;stop-opacity:1;" />
      <stop
         style="stop-color:#faff00;stop-opacity:1;"
         offset="1"
         id="stop3596-8-1-27" />
    </linearGradient>
    <linearGradient
       inkscape:collect="always"
       xlink:href="#linearGradient3592-1-5"
       id="linearGradient5369"
       gradientUnits="userSpaceOnUse"
       gradientTransform="matrix(0,1.1545464,-1.0000008,0,-191.17492,1747.7928)"
       x1="-1011.4286"
       y1="519.50507"
       x2="-697.14282"
       y2="519.50507" />
    <linearGradient
       inkscape:collect="always"
       xlink:href="#linearGradient3592-1-5-8"
       id="linearGradient5371"
       gradientUnits="userSpaceOnUse"
       gradientTransform="matrix(0,-1.0000009,-0.86614253,0,-252.06107,-92.79805)"
       x1="-1012.1694"
       y1="549.828"
       x2="-697.09521"
       y2="553.32678" />
    <inkscape:perspective
       id="perspective5381"
       inkscape:persp3d-origin="0.5 : 0.33333333 : 1"
       inkscape:vp_z="1 : 0.5 : 1"
       inkscape:vp_y="0 : 1000 : 0"
       inkscape:vp_x="0 : 0.5 : 1"
       sodipodi:type="inkscape:persp3d" />
    <linearGradient
       inkscape:collect="always"
       xlink:href="#linearGradient3592-1-5-2"
       id="linearGradient5369-8"
       gradientUnits="userSpaceOnUse"
       gradientTransform="matrix(0,1.1545464,-1.0000008,0,-191.17492,1747.7928)"
       x1="-1011.4286"
       y1="519.50507"
       x2="-697.14282"
       y2="519.50507" />
    <linearGradient
       id="linearGradient3592-1-5-2">
      <stop
         style="stop-color:#ff0000;stop-opacity:1;"
         offset="0"
         id="stop3594-6-8-7" />
      <stop
         id="stop3600-8-8-80"
         offset="0.5"
         style="stop-color:#fc7f00;stop-opacity:1;" />
      <stop
         style="stop-color:#faff00;stop-opacity:1;"
         offset="1"
         id="stop3596-8-1-20" />
    </linearGradient>
    <linearGradient
       y2="519.50507"
       x2="-697.14282"
       y1="519.50507"
       x1="-1011.4286"
       gradientTransform="matrix(0,-0.94664489,-0.69387811,0,-389.67112,-50.81354)"
       gradientUnits="userSpaceOnUse"
       id="linearGradient5391"
       xlink:href="#linearGradient3592-1-5-2"
       inkscape:collect="always" />
    <linearGradient
       inkscape:collect="always"
       xlink:href="#linearGradient3592-6"
       id="linearGradient5420"
       gradientUnits="userSpaceOnUse"
       x1="-227.43318"
       y1="295.21933"
       x2="398.86176"
       y2="295.21933" />
    <linearGradient
       inkscape:collect="always"
       xlink:href="#linearGradient3592"
       id="linearGradient5422"
       gradientUnits="userSpaceOnUse"
       x1="-227.43318"
       y1="295.21933"
       x2="398.86176"
       y2="295.21933" />
    <linearGradient
       inkscape:collect="always"
       xlink:href="#linearGradient3592-1"
       id="linearGradient5424"
       gradientUnits="userSpaceOnUse"
       x1="-1011.4286"
       y1="519.50507"
       x2="-697.14282"
       y2="519.50507" />
    <linearGradient
       inkscape:collect="always"
       xlink:href="#linearGradient3592"
       id="linearGradient5426"
       gradientUnits="userSpaceOnUse"
       x1="-1011.4286"
       y1="519.50507"
       x2="-697.14282"
       y2="519.50507" />
  </defs>
  <sodipodi:namedview
     id="base"
     pagecolor="#ffffff"
     bordercolor="#666666"
     borderopacity="1.0"
     inkscape:pageopacity="0.0"
     inkscape:pageshadow="2"
     inkscape:zoom="0.175"
     inkscape:cx="-1440.5107"
     inkscape:cy="102.24824"
     inkscape:document-units="px"
     inkscape:current-layer="layer1"
     showgrid="false"
     inkscape:window-width="1600"
     inkscape:window-height="838"
     inkscape:window-x="-8"
     inkscape:window-y="-8"
     inkscape:window-maximized="1" />
  <metadata
     id="metadata7">
    <rdf:RDF>
      <cc:Work
         rdf:about="">
        <dc:format>image/svg+xml</dc:format>
        <dc:type
           rdf:resource="http://purl.org/dc/dcmitype/StillImage" />
        <dc:title></dc:title>
      </cc:Work>
    </rdf:RDF>
  </metadata>
  <g
     inkscape:label="Camada 1"
     inkscape:groupmode="layer"
     id="layer1"
     transform="translate(-21.71255,-119.78902)">
    <g
       id="g5414">
      <path
         transform="matrix(-1.1806451,0,0,-1.1806451,492.62673,838.0543)"
         d="m 237.25715,444.81934 c -16.96945,17.18983 27.62071,108.37125 6.78043,120.58334 -20.84029,12.21209 -78.59243,-71.25662 -101.88333,-64.85451 -23.29089,6.4021 -30.26539,107.66262 -54.419649,107.81845 C 63.580336,608.52246 55.299874,507.36036 31.928313,501.2593 8.5567535,495.15824 -48.113593,579.36517 -69.109716,567.423 c -20.996124,-11.94218 22.413834,-103.69136 5.223998,-120.66081 -17.189835,-16.96945 -108.371262,27.62072 -120.583352,6.78043 -12.21208,-20.84029 71.25663,-78.59243 64.85452,-101.88332 -6.40211,-23.2909 -107.66262,-30.26539 -107.81845,-54.41966 -0.15584,-24.15426 101.00626,-32.43472 107.10732,-55.80628 6.10105,-23.37156 -78.10588,-80.04191 -66.1637,-101.03803 11.94218,-20.99613 103.691352,22.41383 120.660804,5.22399 C -48.859124,128.42949 -93.449291,37.248065 -72.609002,25.035977 -51.768712,12.823889 5.9834256,96.292602 29.274321,89.890494 52.565214,83.488386 59.53971,-17.772128 83.693973,-17.927962 107.84824,-18.083796 116.1287,83.0783 139.50026,89.179359 c 23.37156,6.101058 80.04191,-78.105871 101.03803,-66.163696 20.99612,11.942177 -22.41383,103.691347 -5.224,120.660807 17.18984,16.96945 108.37126,-27.62072 120.58335,-6.78043 12.21209,20.84029 -71.25663,78.59243 -64.85452,101.88332 6.40211,23.2909 107.66262,30.26539 107.81846,54.41966 0.15583,24.15426 -101.00626,32.43472 -107.10732,55.80628 -6.10106,23.37156 78.10587,80.04191 66.16369,101.03803 -11.94217,20.99613 -103.69135,-22.41383 -120.6608,-5.22399 z"
         inkscape:randomized="0"
         inkscape:rounded="0.2"
         inkscape:flatsided="false"
         sodipodi:arg2="1.040746"
         sodipodi:arg1="0.77894664"
         sodipodi:r2="313.15381"
         sodipodi:r1="212.9446"
         sodipodi:cy="295.21933"
         sodipodi:cx="85.714287"
         sodipodi:sides="12"
         id="path2816-2"
         style="fill:url(#linearGradient5420);fill-opacity:1;stroke:none"
         sodipodi:type="star" />
      <path
         transform="translate(305.71429,194.28571)"
         d="m 237.25715,444.81934 c -16.96945,17.18983 27.62071,108.37125 6.78043,120.58334 -20.84029,12.21209 -78.59243,-71.25662 -101.88333,-64.85451 -23.29089,6.4021 -30.26539,107.66262 -54.419649,107.81845 C 63.580336,608.52246 55.299874,507.36036 31.928313,501.2593 8.5567535,495.15824 -48.113593,579.36517 -69.109716,567.423 c -20.996124,-11.94218 22.413834,-103.69136 5.223998,-120.66081 -17.189835,-16.96945 -108.371262,27.62072 -120.583352,6.78043 -12.21208,-20.84029 71.25663,-78.59243 64.85452,-101.88332 -6.40211,-23.2909 -107.66262,-30.26539 -107.81845,-54.41966 -0.15584,-24.15426 101.00626,-32.43472 107.10732,-55.80628 6.10105,-23.37156 -78.10588,-80.04191 -66.1637,-101.03803 11.94218,-20.99613 103.691352,22.41383 120.660804,5.22399 C -48.859124,128.42949 -93.449291,37.248065 -72.609002,25.035977 -51.768712,12.823889 5.9834256,96.292602 29.274321,89.890494 52.565214,83.488386 59.53971,-17.772128 83.693973,-17.927962 107.84824,-18.083796 116.1287,83.0783 139.50026,89.179359 c 23.37156,6.101058 80.04191,-78.105871 101.03803,-66.163696 20.99612,11.942177 -22.41383,103.691347 -5.224,120.660807 17.18984,16.96945 108.37126,-27.62072 120.58335,-6.78043 12.21209,20.84029 -71.25663,78.59243 -64.85452,101.88332 6.40211,23.2909 107.66262,30.26539 107.81846,54.41966 0.15583,24.15426 -101.00626,32.43472 -107.10732,55.80628 -6.10106,23.37156 78.10587,80.04191 66.16369,101.03803 -11.94217,20.99613 -103.69135,-22.41383 -120.6608,-5.22399 z"
         inkscape:randomized="0"
         inkscape:rounded="0.2"
         inkscape:flatsided="false"
         sodipodi:arg2="1.040746"
         sodipodi:arg1="0.77894664"
         sodipodi:r2="313.15381"
         sodipodi:r1="212.9446"
         sodipodi:cy="295.21933"
         sodipodi:cx="85.714287"
         sodipodi:sides="12"
         id="path2816"
         style="fill:url(#linearGradient5422);fill-opacity:1;stroke:none"
         sodipodi:type="star" />
      <path
         transform="matrix(0,1.1545464,-1.0000008,0,910.9341,1475.8175)"
         d="m -697.14285,519.50507 c 0,100.20023 -70.35525,181.42857 -157.14286,181.42857 -86.7876,0 -157.14289,-81.22834 -157.14289,-181.42857 0,-100.20024 70.35529,-181.42858 157.14289,-181.42858 86.78761,0 157.14286,81.22834 157.14286,181.42858 z"
         sodipodi:ry="181.42857"
         sodipodi:rx="157.14285"
         sodipodi:cy="519.50507"
         sodipodi:cx="-854.28571"
         id="path2818-2"
         style="fill:url(#linearGradient5424);fill-opacity:1;stroke:none"
         sodipodi:type="arc" />
      <path
         transform="matrix(-1.0000009,0,0,0.86614251,-462.8579,39.539618)"
         d="m -697.14285,519.50507 c 0,100.20023 -70.35525,181.42857 -157.14286,181.42857 -86.7876,0 -157.14289,-81.22834 -157.14289,-181.42857 0,-100.20024 70.35529,-181.42858 157.14289,-181.42858 86.78761,0 157.14286,81.22834 157.14286,181.42858 z"
         sodipodi:ry="181.42857"
         sodipodi:rx="157.14285"
         sodipodi:cy="519.50507"
         sodipodi:cx="-854.28571"
         id="path2818"
         style="fill:url(#linearGradient5426);fill-opacity:1;stroke:none"
         sodipodi:type="arc" />
    </g>
  </g>
</svg>
