<?xml version="1.0" encoding="UTF-8" standalone="no"?>
<!-- Created with Inkscape (http://www.inkscape.org/) -->
<svg
   xmlns:dc="http://purl.org/dc/elements/1.1/"
   xmlns:cc="http://web.resource.org/cc/"
   xmlns:rdf="http://www.w3.org/1999/02/22-rdf-syntax-ns#"
   xmlns:svg="http://www.w3.org/2000/svg"
   xmlns="http://www.w3.org/2000/svg"
   xmlns:sodipodi="http://sodipodi.sourceforge.net/DTD/sodipodi-0.dtd"
   xmlns:inkscape="http://www.inkscape.org/namespaces/inkscape"
   width="289.62979"
   height="195.48257"
   id="svg2"
   sodipodi:version="0.32"
   inkscape:version="0.45.1"
   sodipodi:docbase="C:\Documents and Settings\Bianca\Desktop"
   sodipodi:docname="sand castle.svg"
   inkscape:output_extension="org.inkscape.output.svg.inkscape"
   version="1.0">
  <defs
     id="defs4" />
  <sodipodi:namedview
     id="base"
     pagecolor="#ffffff"
     bordercolor="#666666"
     borderopacity="1.0"
     inkscape:pageopacity="0.0"
     inkscape:pageshadow="2"
     inkscape:zoom="1.4"
     inkscape:cx="179.18127"
     inkscape:cy="4.7085358"
     inkscape:document-units="px"
     inkscape:current-layer="layer1"
     inkscape:window-width="1152"
     inkscape:window-height="811"
     inkscape:window-x="0"
     inkscape:window-y="24" />
  <metadata
     id="metadata7">
    <rdf:RDF>
      <cc:Work
         rdf:about="">
        <dc:format>image/svg+xml</dc:format>
        <dc:type
           rdf:resource="http://purl.org/dc/dcmitype/StillImage" />
      </cc:Work>
    </rdf:RDF>
  </metadata>
  <g
     inkscape:label="Camada 1"
     inkscape:groupmode="layer"
     id="layer1"
     transform="translate(-455.3077,-1087.0229)">
    <g
       id="g3159">
      <path
         sodipodi:nodetypes="csssssc"
         id="path3164"
         d="M 598.44232,1088.9542 C 602.5941,1088.3502 605.81836,1091.9095 609.80972,1092.4627 C 614.23394,1093.0759 618.20918,1095.0685 622.34293,1096.6504 C 626.39005,1098.1991 630.27862,1100.1221 634.63213,1100.8262 C 637.17308,1101.2372 631.29524,1102.4859 629.89398,1102.6372 C 625.61949,1103.0987 621.48151,1104.2195 617.3827,1105.5405 C 611.08332,1107.5707 603.91126,1106.0899 597.908,1109.3827"
         style="fill:#b51818;fill-opacity:1;fill-rule:evenodd;stroke:#000000;stroke-width:1.25;stroke-linecap:butt;stroke-linejoin:miter;stroke-miterlimit:4;stroke-dasharray:none;stroke-opacity:1" />
      <path
         sodipodi:nodetypes="cssssssssss"
         id="path2170"
         d="M 542.5,1213.0765 C 515.28079,1211.6371 485.62156,1215.0149 463.23818,1231.2042 C 444.44392,1244.7975 465.82148,1265.0623 483.41317,1263.3121 C 502.33099,1261.43 525.37055,1251.4964 541.11259,1267.2652 C 554.71445,1280.8902 575.10815,1283.4262 591.80575,1273.6941 C 610.66531,1262.7019 630.92155,1273.6345 649.78385,1279.2641 C 671.08954,1285.623 693.7493,1279.0075 714.82877,1274.0654 C 732.98598,1269.8085 751.96653,1245.806 729.72773,1232.7486 C 710.81793,1221.6459 688.93325,1229.8276 669.13922,1223.72 C 642.33336,1215.4489 613.31829,1215.9603 585.63128,1219.0405 C 571.51116,1220.6113 557.09083,1213.8481 542.5,1213.0765 z "
         style="fill:#d1c0a0;fill-opacity:1;fill-rule:evenodd;stroke:#000000;stroke-width:1.25;stroke-linecap:butt;stroke-linejoin:miter;stroke-miterlimit:4;stroke-dasharray:none;stroke-opacity:1" />
      <path
         sodipodi:nodetypes="cccccc"
         id="path2177"
         d="M 697.26146,1231.7887 L 700.52789,1230.3866 L 714.16775,1188.7042 L 725.14286,1191.5979 L 711.38508,1233.723 L 712.97231,1236.5336"
         style="fill:#497400;fill-opacity:1;fill-rule:evenodd;stroke:#000000;stroke-width:1.25;stroke-linecap:butt;stroke-linejoin:miter;stroke-miterlimit:4;stroke-dasharray:none;stroke-opacity:1" />
      <path
         id="rect2179"
         d="M 712.96875,1155.4688 L 703.78125,1186.2813 L 735.25,1195.6875 L 744.4375,1164.875 L 712.96875,1155.4688 z M 717.84375,1164.5625 L 735.0625,1169.7188 L 730.03125,1186.5625 L 712.8125,1181.4375 L 717.84375,1164.5625 z "
         style="fill:#497400;fill-opacity:1;stroke:#000000;stroke-width:1.25;stroke-miterlimit:4;stroke-dasharray:none;stroke-opacity:1" />
      <rect
         y="1087.6479"
         x="596.78583"
         height="54.285713"
         width="3.5714285"
         id="rect3162"
         style="fill:#92743c;fill-opacity:1;stroke:#000000;stroke-width:1.25;stroke-miterlimit:4;stroke-dasharray:none;stroke-opacity:1" />
      <path
         sodipodi:nodetypes="ccccccccccc"
         id="path3160"
         d="M 620.43168,1172.3092 L 576.71136,1172.3419 L 576.71136,1137.345 L 576.71136,1127.6816 L 592.35308,1127.6816 L 592.35308,1137.345 L 605.7674,1137.345 L 605.7674,1127.6816 L 620.43168,1127.6816 L 620.43168,1137.345 L 620.43168,1172.3092 z "
         style="fill:#c6aa75;fill-opacity:1;fill-rule:evenodd;stroke:#000000;stroke-width:1.25;stroke-linecap:butt;stroke-linejoin:miter;stroke-miterlimit:4;stroke-dasharray:none;stroke-opacity:1" />
      <path
         sodipodi:nodetypes="cccccccccccccc"
         id="path3158"
         d="M 642.55375,1198.6457 L 552.80339,1198.6783 L 552.80339,1163.7944 L 552.80339,1154.1622 L 572.49682,1154.1622 L 572.49682,1163.7944 L 589.38587,1163.7944 L 589.38587,1154.1622 L 607.84867,1154.1622 L 607.84867,1163.7944 L 624.63651,1163.7944 L 624.63651,1154.1622 L 642.55375,1154.1622 L 642.55375,1198.6457 z "
         style="fill:#c6aa75;fill-opacity:1;fill-rule:evenodd;stroke:#000000;stroke-width:1.25;stroke-linecap:butt;stroke-linejoin:miter;stroke-miterlimit:4;stroke-dasharray:none;stroke-opacity:1" />
      <path
         sodipodi:nodetypes="ccccccccccccccccc"
         id="path3156"
         d="M 531.42172,1237.6821 L 663.93542,1237.7258 L 663.93542,1177.9579 L 646.07644,1177.9579 L 646.07644,1190.8902 L 630.71771,1190.8902 L 630.71771,1177.9579 L 608.92973,1177.9579 L 608.92973,1190.8902 L 588.57049,1190.8902 L 588.57049,1177.9579 L 567.1397,1177.9579 L 567.1397,1190.8902 L 549.63789,1190.8902 L 549.63789,1177.9579 L 531.42172,1177.9579 L 531.42172,1237.6821 z "
         style="fill:#c6aa75;fill-opacity:1;fill-rule:evenodd;stroke:none;stroke-width:1;stroke-linecap:butt;stroke-linejoin:miter;stroke-miterlimit:4;stroke-dasharray:none;stroke-opacity:1" />
      <path
         sodipodi:nodetypes="cc"
         id="path3170"
         d="M 581.07143,1237.5408 C 583.62766,1199.2236 608.87204,1199.8679 611.21426,1237.3622"
         style="fill:#a88f5e;fill-opacity:1;fill-rule:evenodd;stroke:#000000;stroke-width:1.25;stroke-linecap:butt;stroke-linejoin:miter;stroke-miterlimit:4;stroke-dasharray:none;stroke-opacity:1" />
      <path
         sodipodi:nodetypes="ccccccccccccccccc"
         id="path5134"
         d="M 531.42172,1237.6821 L 663.93542,1237.7258 L 663.93542,1177.9579 L 646.07644,1177.9579 L 646.07644,1190.8902 L 630.71771,1190.8902 L 630.71771,1177.9579 L 608.92973,1177.9579 L 608.92973,1190.8902 L 588.57049,1190.8902 L 588.57049,1177.9579 L 567.1397,1177.9579 L 567.1397,1190.8902 L 549.63789,1190.8902 L 549.63789,1177.9579 L 531.42172,1177.9579 L 531.42172,1237.6821 z "
         style="fill:none;fill-opacity:1;fill-rule:evenodd;stroke:#000000;stroke-width:1.25;stroke-linecap:butt;stroke-linejoin:miter;stroke-miterlimit:4;stroke-dasharray:none;stroke-opacity:1" />
      <path
         id="path2175"
         d="M 682.85714,1252.3622 L 712.5,1260.2193 L 720,1238.7908 L 690.35714,1229.8622 L 682.85714,1252.3622 z "
         style="fill:#497400;fill-opacity:1;fill-rule:evenodd;stroke:#000000;stroke-width:1.25;stroke-linecap:butt;stroke-linejoin:miter;stroke-miterlimit:4;stroke-dasharray:none;stroke-opacity:1" />
    </g>
  </g>
</svg>
