<?xml version="1.0" encoding="UTF-8" standalone="no"?>
<!-- Created with Inkscape (http://www.inkscape.org/) -->

<svg
   xmlns:dc="http://purl.org/dc/elements/1.1/"
   xmlns:cc="http://creativecommons.org/ns#"
   xmlns:rdf="http://www.w3.org/1999/02/22-rdf-syntax-ns#"
   xmlns:svg="http://www.w3.org/2000/svg"
   xmlns="http://www.w3.org/2000/svg"
   xmlns:sodipodi="http://sodipodi.sourceforge.net/DTD/sodipodi-0.dtd"
   xmlns:inkscape="http://www.inkscape.org/namespaces/inkscape"
   width="421.42859"
   height="351.81433"
   id="svg2"
   version="1.1"
   inkscape:version="0.47 r22583"
   sodipodi:docname="beach.svg">
  <defs
     id="defs4">
    <inkscape:perspective
       sodipodi:type="inkscape:persp3d"
       inkscape:vp_x="0 : 526.18109 : 1"
       inkscape:vp_y="0 : 1000 : 0"
       inkscape:vp_z="744.09448 : 526.18109 : 1"
       inkscape:persp3d-origin="372.04724 : 350.78739 : 1"
       id="perspective10" />
    <inkscape:perspective
       id="perspective3604"
       inkscape:persp3d-origin="0.5 : 0.33333333 : 1"
       inkscape:vp_z="1 : 0.5 : 1"
       inkscape:vp_y="0 : 1000 : 0"
       inkscape:vp_x="0 : 0.5 : 1"
       sodipodi:type="inkscape:persp3d" />
    <inkscape:perspective
       id="perspective3604-7"
       inkscape:persp3d-origin="0.5 : 0.33333333 : 1"
       inkscape:vp_z="1 : 0.5 : 1"
       inkscape:vp_y="0 : 1000 : 0"
       inkscape:vp_x="0 : 0.5 : 1"
       sodipodi:type="inkscape:persp3d" />
    <inkscape:perspective
       id="perspective3604-0"
       inkscape:persp3d-origin="0.5 : 0.33333333 : 1"
       inkscape:vp_z="1 : 0.5 : 1"
       inkscape:vp_y="0 : 1000 : 0"
       inkscape:vp_x="0 : 0.5 : 1"
       sodipodi:type="inkscape:persp3d" />
    <inkscape:perspective
       id="perspective3604-4"
       inkscape:persp3d-origin="0.5 : 0.33333333 : 1"
       inkscape:vp_z="1 : 0.5 : 1"
       inkscape:vp_y="0 : 1000 : 0"
       inkscape:vp_x="0 : 0.5 : 1"
       sodipodi:type="inkscape:persp3d" />
    <inkscape:perspective
       id="perspective3604-8"
       inkscape:persp3d-origin="0.5 : 0.33333333 : 1"
       inkscape:vp_z="1 : 0.5 : 1"
       inkscape:vp_y="0 : 1000 : 0"
       inkscape:vp_x="0 : 0.5 : 1"
       sodipodi:type="inkscape:persp3d" />
    <inkscape:perspective
       id="perspective3604-45"
       inkscape:persp3d-origin="0.5 : 0.33333333 : 1"
       inkscape:vp_z="1 : 0.5 : 1"
       inkscape:vp_y="0 : 1000 : 0"
       inkscape:vp_x="0 : 0.5 : 1"
       sodipodi:type="inkscape:persp3d" />
    <inkscape:perspective
       id="perspective3685"
       inkscape:persp3d-origin="0.5 : 0.33333333 : 1"
       inkscape:vp_z="1 : 0.5 : 1"
       inkscape:vp_y="0 : 1000 : 0"
       inkscape:vp_x="0 : 0.5 : 1"
       sodipodi:type="inkscape:persp3d" />
    <inkscape:perspective
       id="perspective3708"
       inkscape:persp3d-origin="0.5 : 0.33333333 : 1"
       inkscape:vp_z="1 : 0.5 : 1"
       inkscape:vp_y="0 : 1000 : 0"
       inkscape:vp_x="0 : 0.5 : 1"
       sodipodi:type="inkscape:persp3d" />
    <inkscape:perspective
       id="perspective3708-1"
       inkscape:persp3d-origin="0.5 : 0.33333333 : 1"
       inkscape:vp_z="1 : 0.5 : 1"
       inkscape:vp_y="0 : 1000 : 0"
       inkscape:vp_x="0 : 0.5 : 1"
       sodipodi:type="inkscape:persp3d" />
    <inkscape:perspective
       id="perspective3708-2"
       inkscape:persp3d-origin="0.5 : 0.33333333 : 1"
       inkscape:vp_z="1 : 0.5 : 1"
       inkscape:vp_y="0 : 1000 : 0"
       inkscape:vp_x="0 : 0.5 : 1"
       sodipodi:type="inkscape:persp3d" />
    <inkscape:perspective
       id="perspective3748"
       inkscape:persp3d-origin="0.5 : 0.33333333 : 1"
       inkscape:vp_z="1 : 0.5 : 1"
       inkscape:vp_y="0 : 1000 : 0"
       inkscape:vp_x="0 : 0.5 : 1"
       sodipodi:type="inkscape:persp3d" />
    <inkscape:perspective
       id="perspective3790"
       inkscape:persp3d-origin="0.5 : 0.33333333 : 1"
       inkscape:vp_z="1 : 0.5 : 1"
       inkscape:vp_y="0 : 1000 : 0"
       inkscape:vp_x="0 : 0.5 : 1"
       sodipodi:type="inkscape:persp3d" />
    <inkscape:perspective
       id="perspective3812"
       inkscape:persp3d-origin="0.5 : 0.33333333 : 1"
       inkscape:vp_z="1 : 0.5 : 1"
       inkscape:vp_y="0 : 1000 : 0"
       inkscape:vp_x="0 : 0.5 : 1"
       sodipodi:type="inkscape:persp3d" />
    <inkscape:perspective
       id="perspective3836"
       inkscape:persp3d-origin="0.5 : 0.33333333 : 1"
       inkscape:vp_z="1 : 0.5 : 1"
       inkscape:vp_y="0 : 1000 : 0"
       inkscape:vp_x="0 : 0.5 : 1"
       sodipodi:type="inkscape:persp3d" />
    <inkscape:perspective
       id="perspective3858"
       inkscape:persp3d-origin="0.5 : 0.33333333 : 1"
       inkscape:vp_z="1 : 0.5 : 1"
       inkscape:vp_y="0 : 1000 : 0"
       inkscape:vp_x="0 : 0.5 : 1"
       sodipodi:type="inkscape:persp3d" />
    <inkscape:perspective
       id="perspective3858-2"
       inkscape:persp3d-origin="0.5 : 0.33333333 : 1"
       inkscape:vp_z="1 : 0.5 : 1"
       inkscape:vp_y="0 : 1000 : 0"
       inkscape:vp_x="0 : 0.5 : 1"
       sodipodi:type="inkscape:persp3d" />
    <inkscape:perspective
       id="perspective3889"
       inkscape:persp3d-origin="0.5 : 0.33333333 : 1"
       inkscape:vp_z="1 : 0.5 : 1"
       inkscape:vp_y="0 : 1000 : 0"
       inkscape:vp_x="0 : 0.5 : 1"
       sodipodi:type="inkscape:persp3d" />
    <inkscape:perspective
       id="perspective2898"
       inkscape:persp3d-origin="0.5 : 0.33333333 : 1"
       inkscape:vp_z="1 : 0.5 : 1"
       inkscape:vp_y="0 : 1000 : 0"
       inkscape:vp_x="0 : 0.5 : 1"
       sodipodi:type="inkscape:persp3d" />
    <inkscape:perspective
       id="perspective3695"
       inkscape:persp3d-origin="0.5 : 0.33333333 : 1"
       inkscape:vp_z="1 : 0.5 : 1"
       inkscape:vp_y="0 : 1000 : 0"
       inkscape:vp_x="0 : 0.5 : 1"
       sodipodi:type="inkscape:persp3d" />
  </defs>
  <sodipodi:namedview
     id="base"
     pagecolor="#ffffff"
     bordercolor="#666666"
     borderopacity="1.0"
     inkscape:pageopacity="0.0"
     inkscape:pageshadow="2"
     inkscape:zoom="1"
     inkscape:cx="169.75401"
     inkscape:cy="154.60358"
     inkscape:document-units="px"
     inkscape:current-layer="layer1"
     showgrid="false"
     inkscape:window-width="1600"
     inkscape:window-height="838"
     inkscape:window-x="-8"
     inkscape:window-y="-8"
     inkscape:window-maximized="1" />
  <metadata
     id="metadata7">
    <rdf:RDF>
      <cc:Work
         rdf:about="">
        <dc:format>image/svg+xml</dc:format>
        <dc:type
           rdf:resource="http://purl.org/dc/dcmitype/StillImage" />
        <dc:title />
      </cc:Work>
    </rdf:RDF>
  </metadata>
  <g
     inkscape:label="Camada 1"
     inkscape:groupmode="layer"
     id="layer1"
     transform="translate(-114.28571,-419.8299)">
    <g
       id="g3711">
      <path
         sodipodi:nodetypes="ccccc"
         id="path2816"
         d="m 333.66075,466.6479 -219.37504,3.3e-4 176.08971,304.99598 245.33887,0 L 333.66075,466.6479 z"
         style="fill:#f9daa2;fill-opacity:1;stroke:none" />
      <path
         sodipodi:nodetypes="ccccsssssssscc"
         id="path2816-4"
         d="m 246.35299,695.39514 c 14.67414,25.41636 29.34829,50.83272 44.02243,76.24908 81.77962,0 163.55925,0 245.33887,0 -16.8378,-25.41636 -33.67559,-50.83272 -50.51339,-76.24908 -11.37394,4.85212 -24.34367,3.29771 -35.8089,-1.18819 -8.78259,-3.43629 -17.97375,-9.84202 -27.95636,-5.65121 -9.29732,3.90312 -20.71109,5.20522 -27.28437,13.43888 -6.04411,7.57083 -15.97059,5.73809 -24.48933,6.34351 -11.62082,0.82587 -14.54261,-15.50526 -26.32296,-9.15519 -11.26787,6.07382 -23.56279,9.27759 -35.09116,14.92998 -10.3287,5.06418 -20.20308,-8.27372 -30.78862,-10.97822 -9.91781,-2.53391 -19.66938,-9.46805 -29.78943,-7.93857 l -1.31678,0.19901 0,0 z"
         style="fill:#8caad4;fill-opacity:1;stroke:none" />
      <path
         sodipodi:nodetypes="cssccc"
         id="path2912"
         d="m 202.54721,466.55271 c -3.00075,9.99618 -9.80347,22.32205 -19.69689,34.60828 -19.78682,24.57243 -32.29284,28.30349 -32.61461,27.74624 l -35.95,-62.259 88.2615,-0.0955 0,-4e-5 z"
         style="opacity:0.44404333;fill:#000000;fill-opacity:1;stroke:none" />
      <path
         id="path3592"
         d="m 235.87062,538.19454 15.65736,-88.89343"
         style="fill:#4c3f2a;fill-opacity:1;stroke:#4c3f2a;stroke-width:3;stroke-linecap:butt;stroke-linejoin:miter;stroke-miterlimit:4;stroke-opacity:1;stroke-dasharray:none" />
      <g
         id="g3903">
        <path
           sodipodi:type="arc"
           style="fill:#b3aa21;fill-opacity:1;stroke:none"
           id="path3594-17"
           sodipodi:cx="252.2856"
           sodipodi:cy="438.69452"
           sodipodi:rx="53.790623"
           sodipodi:ry="28.789347"
           d="m 306.07622,438.69452 a 53.790623,28.789347 0 1 1 -107.58124,0 53.790623,28.789347 0 1 1 107.58124,0 z"
           transform="matrix(0.97933123,0.20226306,-0.20226306,0.97933123,95.208815,-30.596573)" />
        <path
           style="fill:#665538;fill-opacity:1;stroke:none"
           d="m 306.07622,438.69452 c 0,15.89992 -24.08288,28.78935 -53.79062,28.78935 l 0,-28.78935 38.03571,-20.35715 c 9.73419,5.20985 15.75491,12.40719 15.75491,20.35715 z"
           id="path3594"
           sodipodi:nodetypes="ccccc"
           transform="matrix(0.97933123,0.20226306,-0.20226306,0.97933123,95.208815,-30.596573)" />
        <path
           style="fill:#4c3f2a;fill-opacity:1;stroke:none"
           d="m 252.2856,467.48387 c -29.70774,0 -53.79062,-12.88943 -53.79062,-28.78935 0,-15.89992 24.08288,-28.78935 53.79062,-28.78935 l 0,57.5787 z"
           id="path3594-1"
           sodipodi:nodetypes="cscc"
           transform="matrix(0.97933123,0.20226306,-0.20226306,0.97933123,95.20882,-30.596573)" />
        <path
           style="fill:#d5c927;fill-opacity:1;stroke:none"
           d="m 253.54829,450.05873 -5.82302,28.19431 c -29.09372,-6.00878 -50.07178,-23.50288 -46.85581,-39.07417 1.60798,-7.78564 8.96002,-13.61645 19.54677,-16.74975 l 33.13206,27.62961 z"
           id="path3594-4"
           sodipodi:nodetypes="ccscc" />
        <path
           style="fill:#665538;fill-opacity:1;stroke:none"
           d="m 252.2856,438.69452 0,28.78935 c -29.70774,0 -53.79062,-12.88943 -53.79062,-28.78935"
           id="path3594-9"
           sodipodi:nodetypes="ccs"
           transform="matrix(0.97933123,0.20226306,-0.20226306,0.97933123,95.208815,-30.596573)" />
        <path
           style="fill:#ddd347;fill-opacity:1;stroke:none"
           d="m 252.2856,438.69452 0,28.78935 c -14.85387,0 -28.30153,-3.22236 -38.03571,-8.43221"
           id="path3594-8"
           sodipodi:nodetypes="ccs"
           transform="matrix(0.97933123,0.20226306,-0.20226306,0.97933123,95.208815,-30.596573)" />
        <path
           style="fill:#806a46;fill-opacity:1;stroke:none"
           d="m 252.2856,467.48387 0,-28.78935 38.9398,19.83311 c -11.31218,6.07391 -24.28697,9.06885 -38.9398,8.95624 z"
           id="path3594-2"
           sodipodi:nodetypes="cccc"
           transform="matrix(0.97933123,0.20226306,-0.20226306,0.97933123,95.208815,-30.596573)" />
        <path
           style="fill:#d5ca27;fill-opacity:1;stroke:none"
           d="m 252.2856,438.69452 53.79062,0 c 0,7.94996 -6.02072,15.1473 -15.75491,20.35714 L 252.2856,438.69452 z"
           id="path3594-5"
           sodipodi:nodetypes="cccc"
           transform="matrix(0.97933123,0.20226306,-0.20226306,0.97933123,95.208815,-30.596573)" />
      </g>
      <g
         id="g3920">
        <path
           style="fill:#9d3838;fill-opacity:1;stroke:none"
           d="m 222.23356,546.96093 51.50676,89.53731 54.55926,0 -51.69439,-89.53731 -54.37163,0 z"
           id="path2818"
           sodipodi:nodetypes="ccccc" />
        <path
           style="fill:#e8c7e5;fill-opacity:1;stroke:none"
           d="m 236.23356,546.96093 51.50676,89.53731 26.55926,0 -51.69439,-89.53731 -26.37163,0 z"
           id="path2818-1-6"
           sodipodi:nodetypes="ccccc" />
        <path
           style="fill:#9d3838;fill-opacity:1;stroke:none"
           d="m 250.23356,546.96093 51.50676,89.53731 26.55926,0 -51.69439,-89.53731 -26.37163,0 z"
           id="path2818-1"
           sodipodi:nodetypes="ccccc" />
        <path
           style="fill:#e8c7e5;fill-opacity:1;stroke:none"
           d="m 264.23356,546.96093 51.50676,89.53731 12.75968,0 -51.695,-89.53731 -12.57144,0 z"
           id="path2818-5"
           sodipodi:nodetypes="ccccc" />
      </g>
      <g
         id="g3913">
        <path
           style="fill:#f7cb7d;fill-opacity:1;stroke:none"
           d="m 344.16554,622.08944 c -0.29818,-1.18316 -1.3105,-1.85429 -2.19349,-2.50034 -1.57943,-1.1556 -3.60655,-1.34412 -5.42262,-1.97412 -2.67922,-0.92942 -4.88456,-1.39976 -7.4068,-2.70418 -1.0182,-0.52658 -2.07562,0.0602 -2.56023,1.19003 -1.12325,2.61876 2.38221,4.85817 4.48832,5.66864 2.36731,0.91099 3.71634,2.56647 5.15101,3.77398 4.79168,4.03295 9.39661,3.02788 7.94381,-3.45401 z"
           id="path3764"
           sodipodi:nodetypes="cssssssc" />
        <path
           style="fill:#f7cb7d;fill-opacity:1;stroke:none"
           d="m 353.68565,652.37448 c -1.22005,0.0165 -2.12919,-0.78887 -2.98082,-1.47574 -1.52331,-1.22863 -2.22742,-3.13886 -3.30378,-4.73149 -1.58793,-2.34957 -2.61024,-4.35945 -4.52011,-6.46079 -0.771,-0.84828 -0.47627,-2.02114 0.49069,-2.78032 2.24124,-1.75966 5.30774,1.051 6.63317,2.87743 1.48981,2.05292 3.43683,2.93021 4.97302,4.0056 5.13074,3.59171 5.34524,8.30016 -1.29217,8.56531 z"
           id="path3764-1"
           sodipodi:nodetypes="cssssssc" />
        <path
           style="fill:#f7cb7d;fill-opacity:1;stroke:none"
           d="m 386.04818,654.18778 c 0.19447,-1.20456 -0.46955,-2.22156 -1.02472,-3.16434 -0.99305,-1.68638 -2.78001,-2.66184 -4.19841,-3.9592 -2.09256,-1.91397 -3.93164,-3.21878 -5.7316,-5.41499 -0.72663,-0.88658 -1.92994,-0.76625 -2.82217,0.0795 -2.06803,1.96031 0.26478,5.40432 1.87811,6.98221 1.81341,1.77358 2.39703,3.82782 3.2366,5.50456 2.8041,5.60017 7.43078,6.49983 8.66219,-0.0277 z"
           id="path3764-2"
           sodipodi:nodetypes="cssssssc" />
        <path
           style="fill:#f7cb7d;fill-opacity:1;stroke:none"
           d="m 379.97562,683.12325 c -1.22005,0.0165 -2.12919,-0.78887 -2.98082,-1.47574 -1.52331,-1.22863 -2.22742,-3.13886 -3.30378,-4.73149 -1.58793,-2.34957 -2.61024,-4.35945 -4.52011,-6.46079 -0.771,-0.84828 -0.47627,-2.02114 0.49069,-2.78032 2.24124,-1.75966 5.30774,1.051 6.63317,2.87743 1.48981,2.05292 3.43683,2.93021 4.97302,4.0056 5.13074,3.59171 5.34524,8.30016 -1.29217,8.56531 z"
           id="path3764-1-3"
           sodipodi:nodetypes="cssssssc" />
        <path
           style="fill:#f7cb7d;fill-opacity:1;stroke:none"
           d="m 409.62215,687.89745 c 0.19447,-1.20456 -0.46955,-2.22156 -1.02472,-3.16434 -0.99305,-1.68638 -2.78001,-2.66184 -4.19841,-3.9592 -2.09256,-1.91397 -3.93164,-3.21878 -5.7316,-5.41499 -0.72663,-0.88658 -1.92994,-0.76625 -2.82217,0.0795 -2.06803,1.96031 0.26478,5.40432 1.87811,6.98221 1.81341,1.77358 2.39703,3.82782 3.2366,5.50456 2.8041,5.60017 7.43078,6.49983 8.66219,-0.0277 z"
           id="path3764-2-1"
           sodipodi:nodetypes="cssssssc" />
      </g>
      <path
         sodipodi:nodetypes="cc"
         id="path3592-1"
         d="M 235.87062,538.19454 183.20379,500.56635"
         style="fill:#000000;fill-opacity:1;stroke:#000000;stroke-width:3;stroke-linecap:butt;stroke-linejoin:miter;stroke-miterlimit:4;stroke-opacity:1;stroke-dasharray:none;opacity:0.44404332" />
      <path
         style="fill:#6d94c8;fill-opacity:1;stroke:none"
         d="m 290.66839,771.56219 c 81.77962,0 163.26628,0.082 245.0459,0.082 -16.8378,-25.41636 -33.67559,-50.83272 -50.51339,-76.24908 -11.37394,4.85212 -2.34367,39.29771 -13.8089,34.81181 -8.78259,-3.43629 -31.97375,-13.84202 -41.95636,-9.65121 -9.29732,3.90312 -26.71109,-4.79478 -33.28437,3.43888 -6.04411,7.57083 -15.97059,17.73809 -24.48933,18.34351 -11.62082,0.82587 -16.54261,-11.50526 -28.32296,-5.15519 -11.26787,6.07382 -14.18003,-4.85191 -26.09116,-5.07002 -17.97774,-0.3292 -37.21779,1.68897 -45.28508,3.00118 l -3.06678,-0.67599 c 14.67414,25.41636 7.09829,11.70772 21.77243,37.12408 l 0,3e-5 z"
         id="path2816-4-7"
         sodipodi:nodetypes="cccsssssscccc" />
    </g>
  </g>
</svg>
