<?xml version="1.0" encoding="UTF-8" standalone="no"?>
<!-- Created with Inkscape (http://www.inkscape.org/) -->

<svg
   xmlns:dc="http://purl.org/dc/elements/1.1/"
   xmlns:cc="http://creativecommons.org/ns#"
   xmlns:rdf="http://www.w3.org/1999/02/22-rdf-syntax-ns#"
   xmlns:svg="http://www.w3.org/2000/svg"
   xmlns="http://www.w3.org/2000/svg"
   xmlns:sodipodi="http://sodipodi.sourceforge.net/DTD/sodipodi-0.dtd"
   xmlns:inkscape="http://www.inkscape.org/namespaces/inkscape"
   width="304.63293"
   height="316.6727"
   id="svg2"
   version="1.1"
   inkscape:version="0.47 r22583"
   sodipodi:docname="Novo documento 1">
  <defs
     id="defs4">
    <inkscape:perspective
       sodipodi:type="inkscape:persp3d"
       inkscape:vp_x="0 : 526.18109 : 1"
       inkscape:vp_y="0 : 1000 : 0"
       inkscape:vp_z="744.09448 : 526.18109 : 1"
       inkscape:persp3d-origin="372.04724 : 350.78739 : 1"
       id="perspective10" />
    <inkscape:perspective
       id="perspective2824"
       inkscape:persp3d-origin="0.5 : 0.33333333 : 1"
       inkscape:vp_z="1 : 0.5 : 1"
       inkscape:vp_y="0 : 1000 : 0"
       inkscape:vp_x="0 : 0.5 : 1"
       sodipodi:type="inkscape:persp3d" />
    <inkscape:perspective
       id="perspective2838"
       inkscape:persp3d-origin="0.5 : 0.33333333 : 1"
       inkscape:vp_z="1 : 0.5 : 1"
       inkscape:vp_y="0 : 1000 : 0"
       inkscape:vp_x="0 : 0.5 : 1"
       sodipodi:type="inkscape:persp3d" />
  </defs>
  <sodipodi:namedview
     id="base"
     pagecolor="#ffffff"
     bordercolor="#666666"
     borderopacity="1.0"
     inkscape:pageopacity="0.0"
     inkscape:pageshadow="2"
     inkscape:zoom="0.24748737"
     inkscape:cx="-957.54707"
     inkscape:cy="209.55127"
     inkscape:document-units="px"
     inkscape:current-layer="layer1"
     showgrid="false"
     inkscape:window-width="1600"
     inkscape:window-height="838"
     inkscape:window-x="-8"
     inkscape:window-y="-8"
     inkscape:window-maximized="1" />
  <metadata
     id="metadata7">
    <rdf:RDF>
      <cc:Work
         rdf:about="">
        <dc:format>image/svg+xml</dc:format>
        <dc:type
           rdf:resource="http://purl.org/dc/dcmitype/StillImage" />
        <dc:title></dc:title>
      </cc:Work>
    </rdf:RDF>
  </metadata>
  <g
     inkscape:label="Camada 1"
     inkscape:groupmode="layer"
     id="layer1"
     transform="translate(-140.36499,-317.21603)">
    <path
       style="fill:#000000;fill-opacity:1;stroke:none"
       d="m 239.14624,317.21603 c -32.92801,17.31267 -65.85324,34.625 -98.78125,51.9375 l 77.40625,125.28125 c -14.28545,10.8401 -1.09052,23.43683 11.34375,26.875 9.58275,8.8315 15.45103,20.81169 23.28125,31.15625 -14.25751,13.91807 -31.25795,25.85541 -42.78125,41.75 -11.34175,15.64417 15.97077,14.27184 23.15625,3.15625 10.04615,-15.54088 26.64082,-27.20712 39.96875,-40.8125 20.36771,0.33933 40.75671,0.66056 61.125,1 20.3677,28.85446 36.2876,64.14348 57.1563,75.5 9.3632,5.0955 4.7092,-14.42065 13.875,-27.9375 9.7597,-14.39343 23.0647,-43.63189 35.0312,-48.40625 12.1401,-4.84365 -0.0366,-16.73524 -10.25,-21.4375 -5.628,-2.5912 -8.2052,-10.2724 -12.3125,-15.40625 8.826,-11.88124 21.7455,-22.08005 26.4687,-35.625 6.9656,-19.9732 -26.1133,-19.90863 -40.0937,-16.5 -16.1697,0.61187 -35.5892,-30.82581 -26.75,-35.96875 8.0702,-4.69549 20.4444,15.99369 31.875,0.0625 10.3942,-14.48671 7.4823,-34.67355 -12.7813,-32.8125 -23.7918,2.18511 -42.343,22.21047 -66.4687,19.53125 -10.80179,-1.19957 -27.29577,8.23491 -34.09375,-2.1875 -18.79083,-33.04566 -37.58417,-66.11059 -56.375,-99.15625 z m 113.81245,118.40625 -30.5624,29 c 0,0 -15.26275,-22.64609 -16.2813,-24.9375 l 46.8437,-4.0625 z m 7.125,16.53125 12.4688,19.625 -32.8438,0.25 20.375,-19.875 z m 53.5938,87.78125 c 2.7969,-0.0367 6.2418,4.93551 5.4688,6.9375 -6.9988,18.12659 -20.874,38.02125 -31.3126,57.03125 -9.3352,-14.59695 -18.6647,-29.1843 -28,-43.78125 -0.2545,-0.50922 -0.5267,-1.02203 -0.7812,-1.53125 l 44.5625,-2.03125 c 2.7656,-5.23212 4.6542,-11.22748 8.2813,-15.71875 0.5178,-0.64126 1.1358,-0.89779 1.7812,-0.90625 z"
       id="path2844" />
  </g>
</svg>
