<?xml version="1.0" encoding="UTF-8" standalone="no"?>
<!-- Created with Inkscape (http://www.inkscape.org/) -->

<svg
   xmlns:dc="http://purl.org/dc/elements/1.1/"
   xmlns:cc="http://creativecommons.org/ns#"
   xmlns:rdf="http://www.w3.org/1999/02/22-rdf-syntax-ns#"
   xmlns:svg="http://www.w3.org/2000/svg"
   xmlns="http://www.w3.org/2000/svg"
   xmlns:sodipodi="http://sodipodi.sourceforge.net/DTD/sodipodi-0.dtd"
   xmlns:inkscape="http://www.inkscape.org/namespaces/inkscape"
   width="621.38733"
   height="459.31342"
   id="svg2"
   version="1.1"
   inkscape:version="0.47 r22583"
   sodipodi:docname="Novo documento 1">
  <defs
     id="defs4">
    <inkscape:perspective
       sodipodi:type="inkscape:persp3d"
       inkscape:vp_x="0 : 526.18109 : 1"
       inkscape:vp_y="0 : 1000 : 0"
       inkscape:vp_z="744.09448 : 526.18109 : 1"
       inkscape:persp3d-origin="372.04724 : 350.78739 : 1"
       id="perspective10" />
    <inkscape:perspective
       id="perspective2824"
       inkscape:persp3d-origin="0.5 : 0.33333333 : 1"
       inkscape:vp_z="1 : 0.5 : 1"
       inkscape:vp_y="0 : 1000 : 0"
       inkscape:vp_x="0 : 0.5 : 1"
       sodipodi:type="inkscape:persp3d" />
  </defs>
  <sodipodi:namedview
     id="base"
     pagecolor="#ffffff"
     bordercolor="#666666"
     borderopacity="1.0"
     inkscape:pageopacity="0.0"
     inkscape:pageshadow="2"
     inkscape:zoom="0.49497475"
     inkscape:cx="58.836997"
     inkscape:cy="125.49092"
     inkscape:document-units="px"
     inkscape:current-layer="layer1"
     showgrid="false"
     inkscape:window-width="1600"
     inkscape:window-height="838"
     inkscape:window-x="-8"
     inkscape:window-y="-8"
     inkscape:window-maximized="1" />
  <metadata
     id="metadata7">
    <rdf:RDF>
      <cc:Work
         rdf:about="">
        <dc:format>image/svg+xml</dc:format>
        <dc:type
           rdf:resource="http://purl.org/dc/dcmitype/StillImage" />
        <dc:title></dc:title>
      </cc:Work>
    </rdf:RDF>
  </metadata>
  <g
     inkscape:label="Camada 1"
     inkscape:groupmode="layer"
     id="layer1"
     transform="translate(-98.574382,-311.53433)">
    <g
       id="g3615">
      <path
         sodipodi:nodetypes="cssssssssssssssssss"
         id="path2830"
         d="M 165,561.29075 C 152.90241,534.50393 144.88353,505.9842 135.55223,478.12081 122.69864,439.73978 107.3119,401.78606 99.575193,362.01174 c -4.120592,-21.18392 17.980687,-35.53682 37.131727,-37.47035 26.9076,-2.71665 53.27485,-11.07256 80.33031,-12.45233 26.88738,-1.37119 44.38053,23.28536 55.44286,44.64706 24.53726,47.38222 54.89808,92.57499 75.28058,141.34714 4.07602,9.75328 9.96269,13.6309 15.20181,20.81513 8.76526,12.0195 23.73898,14.58984 36.51935,19.71678 39.39724,15.80449 79.61522,32.13508 119.80389,43.74701 6.21708,1.79634 21.31387,-12.95819 21.64249,-2.78824 0.37043,11.46418 8.25178,13.11751 16.61517,16.58845 50.65759,21.02372 101.98447,40.83583 152.11671,62.87795 9.47834,4.16744 14.18301,18.57923 4.35586,24.0214 -35.26121,19.52726 -70.41001,40.72518 -107.63696,55.69321 -24.0507,9.67019 -51.30527,2.37579 -75.67042,-6.41326 C 462.05286,707.57604 392.97982,683.29218 325.47691,655.71686 277.93337,636.29506 231.24046,613.82313 186.07459,589.58239 175.70588,584.01746 169.83791,572.00299 165,561.29075 z"
         style="fill:#000000;fill-opacity:1;stroke:#000000;stroke-width:1px;stroke-linecap:butt;stroke-linejoin:miter;stroke-opacity:1" />
      <path
         sodipodi:nodetypes="ccssccscssccc"
         id="path2832"
         d="m 184.64286,588.25504 c -1.60714,0.0595 -3.21429,0.11905 -4.82143,0.17857 -1.70422,17.11209 -3.80673,34.20327 -5.159,51.33564 -0.64051,8.11481 8.25244,11.06241 14.98186,8.68448 23.35908,-8.25425 46.78476,-16.32294 70.17714,-24.48441 2.85714,1.42857 5.71429,2.85715 8.57143,4.28572 -25.53572,9.22619 -53.18898,20.73104 -79.10715,28.48214 -11.21945,3.3553 -22.58611,-3.314 -21.93146,-16.92442 1.3581,-18.67401 3.42967,-37.46871 4.07432,-56.02201 0.057,-1.64035 -1.44117,-2.93306 -0.91825,-4.68174 0.58156,-1.9448 0.73121,-4.02169 1.09682,-6.03254 4.64286,5.23809 9.28571,10.47619 13.92857,15.71428 -0.29762,-0.17857 -0.59523,-0.35714 -0.89285,-0.53571 z"
         style="fill:#000000;fill-opacity:1;stroke:#000000;stroke-width:1px;stroke-linecap:butt;stroke-linejoin:miter;stroke-opacity:1" />
      <path
         id="path2834"
         d="m 174.10714,606.46932 32.67857,-11.42857 6.07143,5.17857 -40.71428,14.82143 1.96428,-8.57143 z"
         style="fill:#000000;fill-opacity:1;stroke:#000000;stroke-width:1px;stroke-linecap:butt;stroke-linejoin:miter;stroke-opacity:1" />
      <path
         sodipodi:nodetypes="cssscccsscc"
         id="path2836"
         d="m 335.71429,658.61218 c 1.54387,2.31492 2.9635,4.70561 5.75778,5.68931 3.18483,1.12119 4.88832,4.01788 5.90037,7.34635 7.2031,23.68981 14.98663,47.52223 24.25975,70.53796 6.82756,16.94587 22.82795,33.04866 40.34436,26.7774 32.91754,-13.05269 64.27898,-29.62538 96.41631,-44.45816 -3.21429,-1.66667 -6.42857,-3.33333 -9.64286,-5 -28.29376,12.81772 -56.26269,26.42957 -84.86077,38.5085 -21.21529,8.96068 -30.98068,-11.25963 -36.89569,-28.61048 -7.39455,-21.69089 -14.78141,-43.38439 -22.17211,-65.07659 -6.36905,-1.90476 -12.73809,-3.80953 -19.10714,-5.71429 z"
         style="fill:#000000;fill-opacity:1;stroke:#000000;stroke-width:1px;stroke-linecap:butt;stroke-linejoin:miter;stroke-opacity:1" />
      <path
         id="path2838"
         d="m 363.03572,695.93361 38.03571,-13.75 9.64286,4.82143 -44.46429,17.67857 -3.21428,-8.75 z"
         style="fill:#000000;fill-opacity:1;stroke:#000000;stroke-width:1px;stroke-linecap:butt;stroke-linejoin:miter;stroke-opacity:1" />
    </g>
  </g>
</svg>
