<?xml version="1.0" encoding="UTF-8" standalone="no"?>
<!-- Created with Inkscape (http://www.inkscape.org/) -->
<svg
   xmlns:dc="http://purl.org/dc/elements/1.1/"
   xmlns:cc="http://creativecommons.org/ns#"
   xmlns:rdf="http://www.w3.org/1999/02/22-rdf-syntax-ns#"
   xmlns:svg="http://www.w3.org/2000/svg"
   xmlns="http://www.w3.org/2000/svg"
   xmlns:sodipodi="http://sodipodi.sourceforge.net/DTD/sodipodi-0.dtd"
   xmlns:inkscape="http://www.inkscape.org/namespaces/inkscape"
   width="133.9711"
   height="77.495239"
   id="svg2"
   sodipodi:version="0.32"
   inkscape:version="0.46"
   version="1.0"
   sodipodi:docname="bikini.svg"
   inkscape:output_extension="org.inkscape.output.svg.inkscape">
  <defs
     id="defs4">
    <inkscape:perspective
       sodipodi:type="inkscape:persp3d"
       inkscape:vp_x="0 : 526.18109 : 1"
       inkscape:vp_y="0 : 1000 : 0"
       inkscape:vp_z="744.09448 : 526.18109 : 1"
       inkscape:persp3d-origin="372.04724 : 350.78739 : 1"
       id="perspective10" />
    <inkscape:perspective
       id="perspective2390"
       inkscape:persp3d-origin="372.04724 : 350.78739 : 1"
       inkscape:vp_z="744.09448 : 526.18109 : 1"
       inkscape:vp_y="0 : 1000 : 0"
       inkscape:vp_x="0 : 526.18109 : 1"
       sodipodi:type="inkscape:persp3d" />
  </defs>
  <sodipodi:namedview
     id="base"
     pagecolor="#ffffff"
     bordercolor="#666666"
     borderopacity="1.0"
     inkscape:pageopacity="0.0"
     inkscape:pageshadow="2"
     inkscape:zoom="1.7236022"
     inkscape:cx="53.535843"
     inkscape:cy="-39.535505"
     inkscape:document-units="px"
     inkscape:current-layer="layer1"
     showgrid="false"
     inkscape:window-width="1280"
     inkscape:window-height="719"
     inkscape:window-x="-4"
     inkscape:window-y="-4" />
  <metadata
     id="metadata7">
    <rdf:RDF>
      <cc:Work
         rdf:about="">
        <dc:format>image/svg+xml</dc:format>
        <dc:type
           rdf:resource="http://purl.org/dc/dcmitype/StillImage" />
      </cc:Work>
    </rdf:RDF>
  </metadata>
  <g
     inkscape:label="Camada 1"
     inkscape:groupmode="layer"
     id="layer1"
     transform="translate(-459.68783,-482.84478)">
    <g
       id="g3172"
       transform="matrix(1.6784536,0,0,1.6784536,-311.87684,-327.58776)">
      <path
         sodipodi:nodetypes="csssscssssccc"
         id="path3168"
         d="M 469.12021,491.24356 C 471.94827,492.55618 475.04452,493.49998 477.63342,495.13887 C 482.89368,498.46886 483.87033,504.91078 485.1482,510.54514 C 486.18643,515.1229 487.13343,519.80969 488.68229,524.18622 C 489.08402,525.32136 489.66846,526.82982 490.6965,527.27309 C 492.81357,528.18593 495.37795,528.40203 497.79811,528.26067 C 501.88184,528.11832 507.15419,529.34233 510.25688,527.18269 C 511.811,526.10094 511.85371,523.4637 512.19021,521.42934 C 513.31021,514.65832 514.75104,507.90413 516.74628,501.34036 C 517.61679,498.47665 518.80185,495.37309 521.14677,493.54058 C 523.41034,491.77165 526.4402,491.00864 529.0166,489.60254 C 509.11951,489.94442 489.22241,490.2863 469.32532,490.62817 C 469.25695,490.8333 469.18858,491.03843 469.12021,491.24356 z"
         style="opacity:1;fill:#d4c353;fill-opacity:1;stroke:#000000;stroke-width:0.5;stroke-miterlimit:4;stroke-dasharray:none;stroke-dashoffset:0;stroke-opacity:1" />
      <path
         sodipodi:nodetypes="cscsssssscsssssssssss"
         id="path2396"
         d="M 460.29984,486.52567 C 460.53897,487.65301 460.49593,488.68342 461.93629,489.07621 C 466.6964,490.37429 474.84169,491.77215 478.109,493.06655 C 484.93716,496.2023 488.57206,503.6717 491.17133,510.36604 C 493.04432,515.18987 493.87141,520.40476 495.347,525.36055 C 495.69212,526.51964 496.13984,527.69012 497.42249,528.18246 C 498.75241,528.69295 500.28729,528.46087 501.69052,528.47369 C 502.66977,528.48263 504.07488,528.47792 504.67995,527.58632 C 505.68393,526.1069 506.07242,524.43886 506.50366,522.73244 C 509.21225,512.01456 507.22352,495.15693 520.48676,491.60433 C 524.17001,490.7667 527.84004,489.86226 531.55389,489.14656 C 533.86301,488.70156 536.47902,488.39285 538.34979,487.24362 C 539.11959,486.77073 539.29306,484.80719 538.43066,484.20718 C 537.42673,483.50871 536.30209,483.32599 535.05179,483.34625 C 532.14045,483.39344 529.37802,484.46506 526.52571,484.9496 C 522.15633,485.69186 517.9744,487.32285 513.6215,488.06799 C 509.69295,488.74049 505.74114,489.38558 501.72401,489.29486 C 496.01729,489.16598 490.30406,489.10276 484.59706,488.94863 C 479.89789,488.82172 475.48261,486.98874 470.92708,485.9798 C 467.73967,485.27386 464.48114,483.86652 461.32547,484.06418 C 460.14079,484.13839 460.05274,485.36074 460.29984,486.52567 z"
         style="opacity:1;fill:#edcd00;fill-opacity:1;stroke:#000000;stroke-width:1;stroke-miterlimit:4;stroke-dasharray:none;stroke-dashoffset:0;stroke-opacity:1" />
    </g>
  </g>
</svg>
