<?xml version="1.0" encoding="UTF-8" standalone="no"?>
<!-- Created with Inkscape (http://www.inkscape.org/) -->

<svg
   xmlns:dc="http://purl.org/dc/elements/1.1/"
   xmlns:cc="http://creativecommons.org/ns#"
   xmlns:rdf="http://www.w3.org/1999/02/22-rdf-syntax-ns#"
   xmlns:svg="http://www.w3.org/2000/svg"
   xmlns="http://www.w3.org/2000/svg"
   xmlns:sodipodi="http://sodipodi.sourceforge.net/DTD/sodipodi-0.dtd"
   xmlns:inkscape="http://www.inkscape.org/namespaces/inkscape"
   width="1219.9526"
   height="1219.5085"
   id="svg2"
   version="1.1"
   inkscape:version="0.47 r22583"
   sodipodi:docname="child with a kite silhouette.svg">
  <defs
     id="defs4">
    <inkscape:perspective
       sodipodi:type="inkscape:persp3d"
       inkscape:vp_x="0 : 526.18109 : 1"
       inkscape:vp_y="0 : 1000 : 0"
       inkscape:vp_z="744.09448 : 526.18109 : 1"
       inkscape:persp3d-origin="372.04724 : 350.78739 : 1"
       id="perspective10" />
    <inkscape:perspective
       id="perspective3606"
       inkscape:persp3d-origin="0.5 : 0.33333333 : 1"
       inkscape:vp_z="1 : 0.5 : 1"
       inkscape:vp_y="0 : 1000 : 0"
       inkscape:vp_x="0 : 0.5 : 1"
       sodipodi:type="inkscape:persp3d" />
    <inkscape:perspective
       id="perspective3628"
       inkscape:persp3d-origin="0.5 : 0.33333333 : 1"
       inkscape:vp_z="1 : 0.5 : 1"
       inkscape:vp_y="0 : 1000 : 0"
       inkscape:vp_x="0 : 0.5 : 1"
       sodipodi:type="inkscape:persp3d" />
    <inkscape:perspective
       id="perspective3678"
       inkscape:persp3d-origin="0.5 : 0.33333333 : 1"
       inkscape:vp_z="1 : 0.5 : 1"
       inkscape:vp_y="0 : 1000 : 0"
       inkscape:vp_x="0 : 0.5 : 1"
       sodipodi:type="inkscape:persp3d" />
    <inkscape:perspective
       id="perspective3678-0"
       inkscape:persp3d-origin="0.5 : 0.33333333 : 1"
       inkscape:vp_z="1 : 0.5 : 1"
       inkscape:vp_y="0 : 1000 : 0"
       inkscape:vp_x="0 : 0.5 : 1"
       sodipodi:type="inkscape:persp3d" />
    <inkscape:perspective
       id="perspective3678-4"
       inkscape:persp3d-origin="0.5 : 0.33333333 : 1"
       inkscape:vp_z="1 : 0.5 : 1"
       inkscape:vp_y="0 : 1000 : 0"
       inkscape:vp_x="0 : 0.5 : 1"
       sodipodi:type="inkscape:persp3d" />
    <inkscape:perspective
       id="perspective3678-8"
       inkscape:persp3d-origin="0.5 : 0.33333333 : 1"
       inkscape:vp_z="1 : 0.5 : 1"
       inkscape:vp_y="0 : 1000 : 0"
       inkscape:vp_x="0 : 0.5 : 1"
       sodipodi:type="inkscape:persp3d" />
    <inkscape:perspective
       id="perspective4324"
       inkscape:persp3d-origin="0.5 : 0.33333333 : 1"
       inkscape:vp_z="1 : 0.5 : 1"
       inkscape:vp_y="0 : 1000 : 0"
       inkscape:vp_x="0 : 0.5 : 1"
       sodipodi:type="inkscape:persp3d" />
    <inkscape:perspective
       id="perspective4391"
       inkscape:persp3d-origin="0.5 : 0.33333333 : 1"
       inkscape:vp_z="1 : 0.5 : 1"
       inkscape:vp_y="0 : 1000 : 0"
       inkscape:vp_x="0 : 0.5 : 1"
       sodipodi:type="inkscape:persp3d" />
  </defs>
  <sodipodi:namedview
     id="base"
     pagecolor="#ffffff"
     bordercolor="#666666"
     borderopacity="1.0"
     inkscape:pageopacity="0.0"
     inkscape:pageshadow="2"
     inkscape:zoom="0.35"
     inkscape:cx="1128.1068"
     inkscape:cy="625.19992"
     inkscape:document-units="px"
     inkscape:current-layer="layer1"
     showgrid="false"
     inkscape:window-width="1600"
     inkscape:window-height="838"
     inkscape:window-x="-8"
     inkscape:window-y="-8"
     inkscape:window-maximized="1" />
  <metadata
     id="metadata7">
    <rdf:RDF>
      <cc:Work
         rdf:about="">
        <dc:format>image/svg+xml</dc:format>
        <dc:type
           rdf:resource="http://purl.org/dc/dcmitype/StillImage" />
        <dc:title />
      </cc:Work>
    </rdf:RDF>
  </metadata>
  <g
     inkscape:label="Camada 1"
     inkscape:groupmode="layer"
     id="layer1"
     transform="translate(135.07056,359.68351)">
    <g
       id="g4444">
      <path
         sodipodi:nodetypes="cscczssccsccsczssccscczszccsccssscscc"
         id="path4311"
         d="M 730.32672,467.576 C 1017.3422,130.52769 546.23908,1000.372 878.30019,707.60086 1210.3613,414.82979 288.35524,773.25982 658.7021,530.72592 931.56755,945.03059 516.73913,599.72169 572.18732,571.13882 995.86221,442.76802 129.27173,919.83004 566.90329,853.06107 1004.5349,786.29217 35.112158,589.34856 477.7914,585.54069 920.47072,581.73283 -45.420596,795.32368 393.29473,854.55442 832.01013,913.78515 -42.65878,451.70124 383.16173,572.76479 248.73993,1050.2945 238.0524,510.65903 295.96457,533.84613 670.42881,769.97324 -257.60666,427.45702 79.441675,714.47253 416.48993,1001.488 -69.506882,139.87662 223.26424,471.93768 -147.99078,800.98745 134.7673,341.23889 170.95028,392.0549 358.30969,793.14828 -237.22517,3.2714865 -108.85436,426.94636 19.516442,850.62125 76.492143,-136.96215 143.26112,300.6694 c 66.7689,437.63154 -282.10856,-488.03127 -278.30072,-45.35198 3.80784,442.6793 336.71007,-488.8481 277.47934,-50.13272 C 83.209008,643.90007 9.2529004,-342.55705 -111.81073,83.263427 -232.87427,509.08389 348.98465,-290.9207 168.55284,113.3364 -284.98627,-87.676707 250.67776,-21.457506 219.48479,32.565499 -67.53074,369.61381 403.57242,-500.23048 71.511326,-207.45936 -260.54977,85.311735 661.45627,-273.11829 291.10941,-30.584415 18.243991,-444.88915 433.07238,-99.580152 377.62419,-70.997313 -46.050681,57.373483 820.53977,-419.6885 382.90821,-352.91956 c -437.631564,66.76893 531.79118,263.712504 89.1119,267.520373 -442.679323,3.807869 523.21206,-209.783013 84.49667,-269.013733 -438.71541,-59.23073 435.95348,402.85318 10.133,281.789635 134.4218,-477.529795 145.10949,62.105805 87.19716,38.918653 C 279.38269,-269.83175 1207.4182,72.684469 870.36985,-214.33103 533.32157,-501.34652 1019.3184,360.26489 726.54735,28.203819 1097.8023,-300.84582 815.04417,158.90255 778.86122,108.08661 591.50181,-293.0068 1187.0367,496.87002 1058.6659,73.195141 930.29509,-350.47973 873.31937,637.10366 806.55042,199.47211 739.78149,-238.15944 1088.659,687.50338 1084.8511,244.82408 1081.0433,-197.85521 748.14103,733.67219 807.37177,294.95681 866.6025,-143.75857 940.55865,842.69854 1061.6222,416.87808 1182.6858,-8.942398 600.82685,791.06217 781.25867,386.80511 1234.7979,587.81804 699.13374,521.59913 730.32672,467.576 z"
         style="fill:#c8edff;fill-opacity:1;stroke:none" />
      <path
         id="path4311-4"
         d="m 590.01014,-349.08701 c -45.78626,17.46592 -84.71486,48.81687 -111.60377,88.93227 17.07784,16.92149 37.27148,34.83954 58.25458,52.79004 114.87824,-53.9794 213.39932,-111.88109 53.34919,-141.72231 z m -53.34919,141.72231 c -21.80094,10.24389 -44.10334,20.35208 -65.42203,30.09311 -8.25509,-3.60166 -16.60739,-7.2625 -25.08607,-10.9545 -4.82919,18.76955 -7.39619,38.43518 -7.39619,58.71207 0,129.77214298 105.20323,234.97538 234.97538,234.97538 116.6496,0 213.41498,-85.002231 231.79832,-196.443992 -15.28091,-3.289417 -48.78816,12.631612 -109.39254,60.516644 -7.17514,-23.00996 -14.83446,-47.091618 -21.98526,-70.886572 -29.96191,-3.97628 -60.56828,-8.63513 -88.85602,-12.58116 9.35843,-109.02872 -16.30131,-265.52606 -91.82975,-45.67341 -18.47336,-15.47561 -37.9287,-31.60866 -56.80584,-47.75757 z m 237.49161,106.01214 c 50.64893,6.721688 99.38686,11.467724 131.86071,7.472449 1.76757,-11.619349 2.69415,-23.520839 2.69415,-35.633909 0,-19.39591 -2.38072,-38.21773 -6.81162,-56.24667 -8.9703,-8.75214 -19.39117,-18.24278 -31.51644,-28.56813 -158.27079,-134.77641 -135.06767,-16.27027 -96.2268,112.97626 z"
         style="fill:#ffd000;fill-opacity:1;stroke:none" />
      <g
         id="g4375">
        <path
           sodipodi:type="arc"
           style="fill:#005e90;fill-opacity:1;stroke:none"
           id="path2816"
           sodipodi:cx="160.71428"
           sodipodi:cy="478.79074"
           sodipodi:rx="72.14286"
           sodipodi:ry="72.14286"
           d="m 232.85714,478.79074 c 0,39.8434 -32.29946,72.14286 -72.14286,72.14286 -39.8434,0 -72.142861,-32.29946 -72.142861,-72.14286 0,-39.8434 32.299461,-72.14286 72.142861,-72.14286 39.8434,0 72.14286,32.29946 72.14286,72.14286 z"
           transform="translate(202.00001,19.428569)" />
        <path
           style="fill:none;stroke:#005e90;stroke-width:44.79970932;stroke-linecap:butt;stroke-linejoin:miter;stroke-miterlimit:4;stroke-opacity:1;stroke-dasharray:none"
           d="m 362.71429,514.44608 0,197.26078"
           id="path3592" />
        <path
           style="fill:none;stroke:#005e90;stroke-width:50;stroke-linecap:butt;stroke-linejoin:miter;stroke-miterlimit:4;stroke-opacity:1;stroke-dasharray:none"
           d="m 365.57143,672.50504 -60,152.85714"
           id="path3594"
           sodipodi:nodetypes="cc" />
        <path
           style="fill:none;stroke:#005e90;stroke-width:50;stroke-linecap:butt;stroke-linejoin:miter;stroke-miterlimit:4;stroke-opacity:1;stroke-dasharray:none"
           d="m 364.14286,626.64789 149.99999,-80"
           id="path3596"
           sodipodi:nodetypes="cc" />
        <path
           style="fill:none;stroke:#005e90;stroke-width:50;stroke-linecap:butt;stroke-linejoin:miter;stroke-miterlimit:4;stroke-opacity:1;stroke-dasharray:none"
           d="m 361.28572,672.50504 60,152.85714"
           id="path3594-1"
           sodipodi:nodetypes="cc" />
        <path
           style="fill:none;stroke:#005e90;stroke-width:50;stroke-linecap:butt;stroke-linejoin:miter;stroke-miterlimit:4;stroke-opacity:1;stroke-dasharray:none"
           d="M 362.00001,636.64789 503.42857,622.36218"
           id="path3596-7"
           sodipodi:nodetypes="cc" />
      </g>
      <path
         sodipodi:nodetypes="cc"
         id="path3644"
         d="M 472.96527,617.70943 C 603.82579,434.51537 698.15147,238.27315 792.17347,41.922478"
         style="fill:none;stroke:#005e90;stroke-width:3.5;stroke-linecap:butt;stroke-linejoin:miter;stroke-miterlimit:4;stroke-opacity:1;stroke-dasharray:none" />
      <path
         sodipodi:nodetypes="cssssss"
         id="path3648"
         d="m 804.2953,110.61285 c -5.71136,17.86336 5.30819,35.2022 17.04595,47.86912 7.75879,8.37298 22.38762,15.66899 22.51638,25.82318 0.18798,14.82373 -15.25727,34.00802 -6.64429,50.3003 7.15636,13.53694 24.0966,14.30473 34.32287,24.73096 13.74432,14.01307 19.84899,38.86535 5.43664,53.42631 -9.29292,9.38873 -14.24028,23.20258 -9.31787,35.63402"
         style="fill:none;stroke:#005e90;stroke-width:3.5;stroke-linecap:butt;stroke-linejoin:miter;stroke-miterlimit:4;stroke-opacity:1;stroke-dasharray:none" />
      <path
         id="path3655-4"
         d="m 816.13222,152.08766 -19.11832,2.16501 16.48908,16.48396 4.64999,-35.70843 15.27986,14.07962 -17.30061,2.97984 z"
         style="fill:#005e90;fill-opacity:1;stroke:#005e90;stroke-width:0.88348073px;stroke-linecap:butt;stroke-linejoin:miter;stroke-opacity:1" />
      <path
         id="path3655-9"
         d="m 837.2032,210.69489 -11.68914,-15.28271 -5.65671,22.61884 33.01556,-14.37664 -4.2166,20.34528 -11.45311,-13.30477 z"
         style="fill:#005e90;fill-opacity:1;stroke:#005e90;stroke-width:0.88348073px;stroke-linecap:butt;stroke-linejoin:miter;stroke-opacity:1" />
      <path
         id="path3655-8"
         d="m 867.63647,255.88373 -18.28726,5.98107 19.47807,12.81465 -2.65659,-35.91179 17.80825,10.70401 -16.34247,6.41206 z"
         style="fill:#005e90;fill-opacity:1;stroke:#005e90;stroke-width:0.88348073px;stroke-linecap:butt;stroke-linejoin:miter;stroke-opacity:1" />
      <path
         sodipodi:nodetypes="ccccc"
         id="rect3719"
         d="m 729.91961,-114.32011 136.228,85.936213 L 804.9333,112.78848 672.00156,36.741037 729.91961,-114.32011 z"
         style="fill:#005e90;fill-opacity:1;stroke:none" />
    </g>
  </g>
</svg>
