<?xml version="1.0" encoding="UTF-8" standalone="no"?>
<!-- Created with Inkscape (http://www.inkscape.org/) -->

<svg
   xmlns:dc="http://purl.org/dc/elements/1.1/"
   xmlns:cc="http://creativecommons.org/ns#"
   xmlns:rdf="http://www.w3.org/1999/02/22-rdf-syntax-ns#"
   xmlns:svg="http://www.w3.org/2000/svg"
   xmlns="http://www.w3.org/2000/svg"
   xmlns:xlink="http://www.w3.org/1999/xlink"
   xmlns:sodipodi="http://sodipodi.sourceforge.net/DTD/sodipodi-0.dtd"
   xmlns:inkscape="http://www.inkscape.org/namespaces/inkscape"
   width="591.69806"
   height="611.88422"
   id="svg3770"
   version="1.1"
   inkscape:version="0.47 r22583"
   sodipodi:docname="Novo documento 11">
  <defs
     id="defs3772">
    <linearGradient
       id="linearGradient4452">
      <stop
         style="stop-color:#edc000;stop-opacity:1;"
         offset="0"
         id="stop4454" />
      <stop
         style="stop-color:#ffffff;stop-opacity:0;"
         offset="1"
         id="stop4456" />
    </linearGradient>
    <inkscape:perspective
       sodipodi:type="inkscape:persp3d"
       inkscape:vp_x="0 : 526.18109 : 1"
       inkscape:vp_y="0 : 1000 : 0"
       inkscape:vp_z="744.09448 : 526.18109 : 1"
       inkscape:persp3d-origin="372.04724 : 350.78739 : 1"
       id="perspective3778" />
    <inkscape:perspective
       id="perspective3788"
       inkscape:persp3d-origin="0.5 : 0.33333333 : 1"
       inkscape:vp_z="1 : 0.5 : 1"
       inkscape:vp_y="0 : 1000 : 0"
       inkscape:vp_x="0 : 0.5 : 1"
       sodipodi:type="inkscape:persp3d" />
    <inkscape:perspective
       id="perspective3804"
       inkscape:persp3d-origin="0.5 : 0.33333333 : 1"
       inkscape:vp_z="1 : 0.5 : 1"
       inkscape:vp_y="0 : 1000 : 0"
       inkscape:vp_x="0 : 0.5 : 1"
       sodipodi:type="inkscape:persp3d" />
    <inkscape:perspective
       id="perspective3804-9"
       inkscape:persp3d-origin="0.5 : 0.33333333 : 1"
       inkscape:vp_z="1 : 0.5 : 1"
       inkscape:vp_y="0 : 1000 : 0"
       inkscape:vp_x="0 : 0.5 : 1"
       sodipodi:type="inkscape:persp3d" />
    <inkscape:perspective
       id="perspective4358"
       inkscape:persp3d-origin="0.5 : 0.33333333 : 1"
       inkscape:vp_z="1 : 0.5 : 1"
       inkscape:vp_y="0 : 1000 : 0"
       inkscape:vp_x="0 : 0.5 : 1"
       sodipodi:type="inkscape:persp3d" />
    <inkscape:perspective
       id="perspective4380"
       inkscape:persp3d-origin="0.5 : 0.33333333 : 1"
       inkscape:vp_z="1 : 0.5 : 1"
       inkscape:vp_y="0 : 1000 : 0"
       inkscape:vp_x="0 : 0.5 : 1"
       sodipodi:type="inkscape:persp3d" />
    <inkscape:perspective
       id="perspective4404"
       inkscape:persp3d-origin="0.5 : 0.33333333 : 1"
       inkscape:vp_z="1 : 0.5 : 1"
       inkscape:vp_y="0 : 1000 : 0"
       inkscape:vp_x="0 : 0.5 : 1"
       sodipodi:type="inkscape:persp3d" />
    <inkscape:perspective
       id="perspective4426"
       inkscape:persp3d-origin="0.5 : 0.33333333 : 1"
       inkscape:vp_z="1 : 0.5 : 1"
       inkscape:vp_y="0 : 1000 : 0"
       inkscape:vp_x="0 : 0.5 : 1"
       sodipodi:type="inkscape:persp3d" />
    <linearGradient
       inkscape:collect="always"
       xlink:href="#linearGradient4452"
       id="linearGradient4458"
       x1="266.95471"
       y1="871.56793"
       x2="303.67715"
       y2="812.49829"
       gradientUnits="userSpaceOnUse" />
    <radialGradient
       inkscape:collect="always"
       xlink:href="#linearGradient4452"
       id="radialGradient4468"
       cx="237.85715"
       cy="515.93359"
       fx="237.85715"
       fy="515.93359"
       r="35"
       gradientTransform="matrix(1,0,0,0.83673472,0,84.234044)"
       gradientUnits="userSpaceOnUse" />
    <inkscape:perspective
       id="perspective4484"
       inkscape:persp3d-origin="0.5 : 0.33333333 : 1"
       inkscape:vp_z="1 : 0.5 : 1"
       inkscape:vp_y="0 : 1000 : 0"
       inkscape:vp_x="0 : 0.5 : 1"
       sodipodi:type="inkscape:persp3d" />
    <inkscape:perspective
       id="perspective4506"
       inkscape:persp3d-origin="0.5 : 0.33333333 : 1"
       inkscape:vp_z="1 : 0.5 : 1"
       inkscape:vp_y="0 : 1000 : 0"
       inkscape:vp_x="0 : 0.5 : 1"
       sodipodi:type="inkscape:persp3d" />
    <inkscape:perspective
       id="perspective4529"
       inkscape:persp3d-origin="0.5 : 0.33333333 : 1"
       inkscape:vp_z="1 : 0.5 : 1"
       inkscape:vp_y="0 : 1000 : 0"
       inkscape:vp_x="0 : 0.5 : 1"
       sodipodi:type="inkscape:persp3d" />
  </defs>
  <sodipodi:namedview
     id="base"
     pagecolor="#ffffff"
     bordercolor="#666666"
     borderopacity="1.0"
     inkscape:pageopacity="0.0"
     inkscape:pageshadow="2"
     inkscape:zoom="0.49497475"
     inkscape:cx="251.07605"
     inkscape:cy="258.28076"
     inkscape:document-units="px"
     inkscape:current-layer="layer1"
     showgrid="false"
     showguides="true"
     inkscape:guide-bbox="true"
     inkscape:window-width="1600"
     inkscape:window-height="838"
     inkscape:window-x="-8"
     inkscape:window-y="-8"
     inkscape:window-maximized="1" />
  <metadata
     id="metadata3775">
    <rdf:RDF>
      <cc:Work
         rdf:about="">
        <dc:format>image/svg+xml</dc:format>
        <dc:type
           rdf:resource="http://purl.org/dc/dcmitype/StillImage" />
        <dc:title></dc:title>
      </cc:Work>
    </rdf:RDF>
  </metadata>
  <g
     inkscape:label="Camada 1"
     inkscape:groupmode="layer"
     id="layer1"
     transform="translate(-99.413464,-25.520714)">
    <g
       id="g4543"
       transform="translate(54.548237,-341.43156)">
      <path
         transform="matrix(1.2624495,-0.32917709,0.32917709,1.2624495,-416.6653,-319.84417)"
         d="m 599.99998,788.07648 c 0,73.37497 -97.85776,132.85714 -218.57142,132.85714 -120.71367,0 -218.57143,-59.48217 -218.57143,-132.85714 0,-73.37498 97.85776,-132.85715 218.57143,-132.85715 120.71366,0 218.57142,59.48217 218.57142,132.85715 z"
         sodipodi:ry="132.85715"
         sodipodi:rx="218.57143"
         sodipodi:cy="788.07648"
         sodipodi:cx="381.42856"
         id="path3794-8"
         style="fill:#d0eaff;fill-opacity:1;stroke:none"
         sodipodi:type="arc" />
      <path
         transform="matrix(1.2624495,-0.32917709,0.32917709,1.2624495,-383.80819,-73.065486)"
         d="m 599.99998,788.07648 c 0,73.37497 -97.85776,132.85714 -218.57142,132.85714 -120.71367,0 -218.57143,-59.48217 -218.57143,-132.85714 0,-73.37498 97.85776,-132.85715 218.57143,-132.85715 120.71366,0 218.57142,59.48217 218.57142,132.85715 z"
         sodipodi:ry="132.85715"
         sodipodi:rx="218.57143"
         sodipodi:cy="788.07648"
         sodipodi:cx="381.42856"
         id="path3794"
         style="fill:#85c9ff;fill-opacity:1;stroke:none"
         sodipodi:type="arc" />
      <path
         d="m 599.99998,788.07648 c 0,73.37497 -97.85776,132.85714 -218.57142,132.85714 -120.71367,0 -218.57143,-59.48217 -218.57143,-132.85714 0,-73.37498 97.85776,-132.85715 218.57143,-132.85715 120.71366,0 218.57142,59.48217 218.57142,132.85715 z"
         sodipodi:ry="132.85715"
         sodipodi:rx="218.57143"
         sodipodi:cy="788.07648"
         sodipodi:cx="381.42856"
         id="path3794-4"
         style="fill:#ffffff;fill-opacity:1;stroke:none"
         sodipodi:type="arc"
         transform="matrix(0.68936926,-0.16300552,0.17974941,0.62515361,-8.7526844,364.98323)" />
      <path
         d="m 599.99998,788.07648 c 0,73.37497 -97.85776,132.85714 -218.57142,132.85714 -120.71367,0 -218.57143,-59.48217 -218.57143,-132.85714 0,-73.37498 97.85776,-132.85715 218.57143,-132.85715 120.71366,0 218.57142,59.48217 218.57142,132.85715 z"
         sodipodi:ry="132.85715"
         sodipodi:rx="218.57143"
         sodipodi:cy="788.07648"
         sodipodi:cx="381.42856"
         id="path3794-0-4"
         style="fill:#a79146;fill-opacity:1;stroke:none"
         sodipodi:type="arc"
         transform="matrix(0.58266903,-0.15192789,0.15192789,0.58266903,52.971398,388.95329)" />
      <path
         sodipodi:nodetypes="csssc"
         id="path3794-0"
         d="m 590.3579,785.56236 c 0,73.37497 -86.58274,132.16894 -207.24318,128.90456 -95.05257,-2.57159 -194.58831,-53.26766 -213.82965,-124.71439 -19.05989,-70.77297 91.42982,-134.5332 212.14349,-134.5332 120.71366,0 208.92934,56.96805 208.92934,130.34303 z"
         style="fill:#e1ce93;fill-opacity:1;stroke:none"
         transform="matrix(0.58266903,-0.15101714,0.15192789,0.57917616,55.170904,386.85348)" />
      <path
         transform="matrix(1,0,0,1.1951219,0,-106.38424)"
         d="m 272.85715,515.93359 c 0,16.17406 -15.67004,29.28572 -35,29.28572 -19.32997,0 -35,-13.11166 -35,-29.28572 0,-16.17405 15.67003,-29.28571 35,-29.28571 19.32996,0 35,13.11166 35,29.28571 z"
         sodipodi:ry="29.285715"
         sodipodi:rx="35"
         sodipodi:cy="515.93359"
         sodipodi:cx="237.85715"
         id="path4394"
         style="fill:#ffff00;fill-opacity:1;stroke:none"
         sodipodi:type="arc" />
      <path
         sodipodi:nodetypes="csccc"
         id="path4470-4"
         d="m 420.54069,766.44777 c 7.1745,13.19778 18.58802,18.33898 23.62596,0.92623 13.39692,-46.3041 29.78107,-105.53071 30.89754,-156.9948 -10.43824,-1.51523 -10.87649,-3.03046 -21.31473,-4.54569 -2.90326,54.55729 -14.11648,109.71072 -33.20877,160.61426 z"
         style="fill:#784731;fill-opacity:1;stroke:none" />
      <path
         sodipodi:nodetypes="csccc"
         id="path4470"
         d="m 419.33957,764.46871 c 7.1745,13.19778 14.58802,18.33898 19.62596,0.92623 13.39692,-46.3041 29.78107,-105.53071 30.89754,-156.9948 -10.43824,-1.51523 -6.87649,-3.03046 -17.31473,-4.54569 -2.90326,54.55729 -14.11648,109.71072 -33.20877,160.61426 z"
         style="fill:#885037;fill-opacity:1;stroke:none" />
      <path
         sodipodi:nodetypes="cssszssssssssazzcczsssscssszazzsssazsssssssszsccssc"
         id="path4474-4"
         d="m 421.34321,672.6775 c 0,0 -7.37403,21.5207 0.14018,25.4797 7.06374,3.72167 14.63455,-7.37241 19.82993,-13.43502 l 14.40483,-16.80928 c 5.94117,-6.93284 2.71704,-25.18298 8.79799,-25.93936 6.08095,-0.75638 1.98184,7.59621 5.09516,7.8711 1.89161,0.167 2.04183,-4.61969 3.88589,-4.16604 7.46323,1.83609 1.16661,16.34764 6.10951,22.23302 0,0 5.39244,14.22348 10.91451,12.99556 6.24724,-1.38916 4.96091,-12.14957 4.95391,-18.54942 -0.01,-8.81435 -13.62968,-31.19971 -6.87853,-25.53272 l 9.51529,7.98725 c 7.17041,6.01893 8.5896,16.72077 11.53453,25.60724 1.94223,5.86098 -2.05522,16.80529 3.98415,18.08975 5.90307,1.25547 8.11556,-8.1856 10.75284,-14.56652 2.63719,-6.38094 4.02096,-16.33165 3.43736,-23.06647 -0.58361,-6.73482 -5.43643,-16.35969 -5.43643,-16.35969 3.40955,1.94691 20.18705,22.39133 23.8445,20.28096 2.95789,-2.77319 1.24229,-6.65431 -0.695,-10.21616 -1.93729,-3.56185 -18.32908,-15.33702 -16.88376,-17.08097 2.80146,-3.38026 5.66419,1.91234 9.50673,4.03593 6.5898,3.64188 11.06835,18.74716 17.30054,14.52229 9.01084,-6.10852 -1.90467,-24.01174 -10.24267,-31.01079 l -16.43548,-13.79618 c 0,0 -20.30094,-8.48858 -20.30094,-8.48858 -1.96493,-0.46977 -17.64236,-2.6436 -24.35831,1.9662 0,0 -10.36486,12.13169 -17.39516,11.93988 -5.34856,-0.14592 -7.97232,-7.32273 -12.7191,-9.79183 -4.74679,-2.4691 -13.24992,-7.69239 -20.32234,-10.57095 -5.31104,-2.16166 -10.75081,-5.42771 -16.46704,-4.97545 -5.71623,0.45225 -12.37188,-1.12685 -19.58489,1.54949 -7.2131,2.6763 -24.14081,7.25374 -21.39955,15.65632 2.2544,6.91027 14.67011,-1.36213 21.80618,0.0202 4.51145,0.8739 16.5614,2.50528 12.79347,5.13582 0,0 -26.03268,0.0242 -31.69193,9.48852 -2.81171,4.70221 -1.68606,17.45282 3.2986,16.10179 4.98466,-1.35103 20.07994,-12.44344 22.31797,-8.86692 2.11722,3.38338 -6.34008,5.33761 -7.86978,9.02405 0,0 -3.58441,7.75697 -4.90095,11.81106 -3.484,10.72851 -15.37921,41.32864 -7.86854,32.9126 0,0 9.36314,-11.6919 14.89608,-16.69183 3.45485,-3.12211 7.41609,-5.64602 11.30848,-8.20195 0,0 6.84283,-8.99522 9.8562,-6.47191 4.58376,3.83825 -11.24066,14.34818 -13.11879,20.02403 -0.26409,0.79927 -0.36144,9.96006 0.92802,11.04247 1.28946,1.08241 8.10836,-1.89971 9.47713,-4.02196 l 10.54177,-16.34476 0,0 c 0,0 0.41226,-0.0312 0.49126,0.11744 3.18535,5.99281 -7.1912,12.27544 -7.15382,19.06211 l 0,-2e-5 z"
         style="fill:#50671c;fill-opacity:1;stroke:none" />
      <path
         sodipodi:nodetypes="cssszssssssssazzcczsssscssszazzsssazsssssssszsccssc"
         id="path4474"
         d="m 415.34321,666.6775 c 0,0 -7.37403,21.52069 0.14018,25.47969 7.06374,3.72167 14.63455,-7.37241 19.82993,-13.43502 l 14.40483,-16.80927 c 5.94117,-6.93284 2.71704,-25.18298 8.79799,-25.93936 6.08095,-0.75638 1.98184,7.59621 5.09516,7.8711 1.89161,0.167 2.04183,-4.61969 3.88589,-4.16604 7.46323,1.83609 1.16661,16.34764 6.10951,22.23302 0,0 5.39244,14.22347 10.91451,12.99556 6.24724,-1.38916 4.96091,-12.14957 4.95391,-18.54942 -0.01,-8.81435 -13.62968,-31.19971 -6.87853,-25.53272 l 9.51529,7.98725 c 7.17041,6.01893 8.5896,16.72077 11.53453,25.60724 1.94223,5.86098 -2.05522,16.80528 3.98415,18.08974 5.90307,1.25547 8.11556,-8.18559 10.75284,-14.56651 2.63719,-6.38094 4.02096,-16.33165 3.43736,-23.06647 -0.58361,-6.73482 -5.43643,-16.35969 -5.43643,-16.35969 3.40955,1.94691 20.18705,22.39133 23.8445,20.28096 2.95789,-2.77319 1.24229,-6.65431 -0.695,-10.21616 -1.93729,-3.56185 -18.32908,-15.33702 -16.88376,-17.08097 2.80146,-3.38026 5.66419,1.91234 9.50673,4.03593 6.5898,3.64188 11.06835,18.74716 17.30054,14.52229 9.01084,-6.10852 -1.90467,-24.01174 -10.24267,-31.01079 l -16.43548,-13.79618 c 0,0 -20.30094,-8.48858 -20.30094,-8.48858 -1.96493,-0.46977 -17.64236,-2.6436 -24.35831,1.9662 0,0 -10.36486,12.13169 -17.39516,11.93988 -5.34856,-0.14592 -7.97232,-7.32273 -12.7191,-9.79183 -4.74679,-2.4691 -13.24992,-7.69239 -20.32234,-10.57095 -5.31104,-2.16166 -10.75081,-5.42771 -16.46704,-4.97545 -5.71623,0.45225 -12.37188,-1.12685 -19.58489,1.54949 -7.2131,2.6763 -24.14081,7.25374 -21.39955,15.65632 2.2544,6.91027 14.67011,-1.36213 21.80618,0.0202 4.51145,0.8739 16.5614,2.50528 12.79347,5.13582 0,0 -26.03268,0.0242 -31.69193,9.48852 -2.81171,4.70221 -1.68606,17.45282 3.2986,16.10179 4.98466,-1.35103 20.07994,-12.44344 22.31797,-8.86692 2.11722,3.38338 -6.34008,5.33761 -7.86978,9.02405 0,0 -3.58441,7.75697 -4.90095,11.81106 -3.484,10.72851 -15.37921,41.32863 -7.86854,32.9126 0,0 9.36314,-11.6919 14.89608,-16.69183 3.45485,-3.12211 7.41609,-5.64602 11.30848,-8.20195 0,0 6.84283,-8.99522 9.8562,-6.47191 4.58376,3.83825 -11.24066,14.34818 -13.11879,20.02403 -0.26409,0.79927 -0.36144,9.96006 0.92802,11.04247 1.28946,1.08241 8.10836,-1.89971 9.47713,-4.02196 l 10.54177,-16.34476 0,0 c 0,0 0.41226,-0.0312 0.49126,0.11744 3.18535,5.99281 -7.1912,12.27544 -7.15382,19.06211 l 0,-2e-5 z"
         style="fill:#6b8925;fill-opacity:1;stroke:none" />
    </g>
  </g>
</svg>
