<?xml version="1.0" encoding="UTF-8" standalone="no"?>
<!-- Created with Inkscape (http://www.inkscape.org/) -->

<svg
   xmlns:dc="http://purl.org/dc/elements/1.1/"
   xmlns:cc="http://creativecommons.org/ns#"
   xmlns:rdf="http://www.w3.org/1999/02/22-rdf-syntax-ns#"
   xmlns:svg="http://www.w3.org/2000/svg"
   xmlns="http://www.w3.org/2000/svg"
   xmlns:sodipodi="http://sodipodi.sourceforge.net/DTD/sodipodi-0.dtd"
   xmlns:inkscape="http://www.inkscape.org/namespaces/inkscape"
   width="611.42859"
   height="700.00006"
   id="svg2"
   version="1.1"
   inkscape:version="0.47 r22583"
   sodipodi:docname="Novo documento 1">
  <defs
     id="defs4">
    <inkscape:perspective
       sodipodi:type="inkscape:persp3d"
       inkscape:vp_x="0 : 526.18109 : 1"
       inkscape:vp_y="0 : 1000 : 0"
       inkscape:vp_z="744.09448 : 526.18109 : 1"
       inkscape:persp3d-origin="372.04724 : 350.78739 : 1"
       id="perspective10" />
    <inkscape:perspective
       id="perspective2824"
       inkscape:persp3d-origin="0.5 : 0.33333333 : 1"
       inkscape:vp_z="1 : 0.5 : 1"
       inkscape:vp_y="0 : 1000 : 0"
       inkscape:vp_x="0 : 0.5 : 1"
       sodipodi:type="inkscape:persp3d" />
    <inkscape:perspective
       id="perspective2838"
       inkscape:persp3d-origin="0.5 : 0.33333333 : 1"
       inkscape:vp_z="1 : 0.5 : 1"
       inkscape:vp_y="0 : 1000 : 0"
       inkscape:vp_x="0 : 0.5 : 1"
       sodipodi:type="inkscape:persp3d" />
    <inkscape:perspective
       id="perspective2852"
       inkscape:persp3d-origin="0.5 : 0.33333333 : 1"
       inkscape:vp_z="1 : 0.5 : 1"
       inkscape:vp_y="0 : 1000 : 0"
       inkscape:vp_x="0 : 0.5 : 1"
       sodipodi:type="inkscape:persp3d" />
    <inkscape:perspective
       id="perspective2866"
       inkscape:persp3d-origin="0.5 : 0.33333333 : 1"
       inkscape:vp_z="1 : 0.5 : 1"
       inkscape:vp_y="0 : 1000 : 0"
       inkscape:vp_x="0 : 0.5 : 1"
       sodipodi:type="inkscape:persp3d" />
    <inkscape:perspective
       id="perspective2886"
       inkscape:persp3d-origin="0.5 : 0.33333333 : 1"
       inkscape:vp_z="1 : 0.5 : 1"
       inkscape:vp_y="0 : 1000 : 0"
       inkscape:vp_x="0 : 0.5 : 1"
       sodipodi:type="inkscape:persp3d" />
    <inkscape:perspective
       id="perspective3682"
       inkscape:persp3d-origin="0.5 : 0.33333333 : 1"
       inkscape:vp_z="1 : 0.5 : 1"
       inkscape:vp_y="0 : 1000 : 0"
       inkscape:vp_x="0 : 0.5 : 1"
       sodipodi:type="inkscape:persp3d" />
    <inkscape:perspective
       id="perspective3703"
       inkscape:persp3d-origin="0.5 : 0.33333333 : 1"
       inkscape:vp_z="1 : 0.5 : 1"
       inkscape:vp_y="0 : 1000 : 0"
       inkscape:vp_x="0 : 0.5 : 1"
       sodipodi:type="inkscape:persp3d" />
    <inkscape:perspective
       id="perspective3725"
       inkscape:persp3d-origin="0.5 : 0.33333333 : 1"
       inkscape:vp_z="1 : 0.5 : 1"
       inkscape:vp_y="0 : 1000 : 0"
       inkscape:vp_x="0 : 0.5 : 1"
       sodipodi:type="inkscape:persp3d" />
  </defs>
  <sodipodi:namedview
     id="base"
     pagecolor="#ffffff"
     bordercolor="#666666"
     borderopacity="1.0"
     inkscape:pageopacity="0.0"
     inkscape:pageshadow="2"
     inkscape:zoom="0.35"
     inkscape:cx="498.30417"
     inkscape:cy="302.59566"
     inkscape:document-units="px"
     inkscape:current-layer="layer1"
     showgrid="false"
     showguides="true"
     inkscape:guide-bbox="true"
     inkscape:window-width="1600"
     inkscape:window-height="838"
     inkscape:window-x="-8"
     inkscape:window-y="-8"
     inkscape:window-maximized="1" />
  <metadata
     id="metadata7">
    <rdf:RDF>
      <cc:Work
         rdf:about="">
        <dc:format>image/svg+xml</dc:format>
        <dc:type
           rdf:resource="http://purl.org/dc/dcmitype/StillImage" />
        <dc:title></dc:title>
      </cc:Work>
    </rdf:RDF>
  </metadata>
  <g
     inkscape:label="Camada 1"
     inkscape:groupmode="layer"
     id="layer1"
     transform="translate(-54.285706,-66.647888)">
    <g
       id="g3761">
      <path
         transform="matrix(1,0,0,-3.5766423,0,2808.6731)"
         sodipodi:end="3.1415927"
         sodipodi:start="0"
         d="m 665.71429,570.93359 c 0,108.09002 -136.87295,195.71428 -305.71429,195.71428 -168.84134,0 -305.714294,-87.62426 -305.714294,-195.71428 0,0 0,0 0,-10e-6 L 360,570.93359 z"
         sodipodi:ry="195.71428"
         sodipodi:rx="305.71429"
         sodipodi:cy="570.93359"
         sodipodi:cx="360"
         id="path2876-1"
         style="fill:#bceefe;fill-opacity:1;stroke:none"
         sodipodi:type="arc" />
      <path
         sodipodi:nodetypes="cssccsscc"
         id="path3688"
         d="m 279.49689,651.82931 c 6.40045,-35.8254 10.31617,-72.28414 19.12712,-107.49487 7.70722,-30.79993 17.83794,-61.38464 29.88748,-90.69067 6.59171,-16.03188 16.97807,-30.38184 25.46711,-45.57276 7.22247,3.61123 14.44495,7.22246 21.66742,10.83369 -8.12925,16.43921 -19.17839,31.83756 -24.50305,49.27542 -13.05432,42.75192 -21.5961,87.1944 -31.0211,131.11216 -3.95688,18.43792 -8.12434,36.83029 -12.18651,55.24543 -9.47949,-0.9028 -18.95898,-1.8056 -28.43847,-2.7084 z"
         style="fill:#94835c;fill-opacity:1;stroke:none" />
      <path
         sodipodi:nodetypes="csssszssssssssssscssssssssz"
         id="path3690"
         d="m 253.76683,455.46846 c 7.2244,0.0398 31.72266,-0.35416 46.36589,-5.36949 13.2312,-4.53169 27.44535,-8.70877 38.55486,-17.25745 6.18965,-4.76291 15.04076,-19.98321 16.64522,-16.64522 3.16922,6.59351 -5.28242,31.10326 -3.16421,46.47262 1.67464,12.1507 3.08822,27.17781 7.22685,36.13433 4.1386,8.95653 12.68383,20.77533 17.60474,17.60478 11.74547,-7.56767 25.68145,-32.58574 25.90888,-53.68151 0.17215,-15.96285 -5.65375,-42.5265 1.17539,-47.88442 5.84346,-4.58462 22.54343,17.62821 36.36616,19.37099 15.32162,1.93181 41.68734,10.60884 46.24083,3.65063 4.95189,-7.56702 -7.10761,-33.46552 -18.59318,-47.00613 -12.83739,-15.13427 -30.90647,-24.62942 -50.10562,-27.03869 -15.53142,-1.94898 5.85438,-12.18846 8.65033,-19.11554 4.49935,-11.14731 4.79753,-23.75647 6.1972,-35.66714 0.9119,-7.75964 0.97438,-15.97938 -9.98876,-13.01151 -12.96192,3.509 -26.02564,5.79686 -37.78217,12.92324 -11.78312,7.14249 -19.33835,19.64783 -22.01555,32.67765 0.26315,10.791 -13.40957,-3.14344 -19.18026,-4.86017 -10.48087,-3.11799 -21.56015,-3.11788 -32.37606,-4.34927 -11.70709,-1.33285 -23.81657,-2.33893 -35.30298,1.32167 -5.12086,1.63195 -15.80644,0.12475 -15.65647,3.91412 0.3606,9.10956 12.78328,22.09108 22.94624,30.59516 8.41994,7.04561 28.68171,12.86466 27.0995,19.30521 -2.1024,8.55812 -21.62662,14.08159 -30.61378,23.59956 -10.35236,10.96383 -18.72919,23.56855 -23.4179,37.94465 -0.719,2.20448 -10.00954,6.33215 -2.78515,6.37193 z"
         style="fill:#8dcb8d;fill-opacity:1;stroke:none" />
      <path
         transform="matrix(1.2465754,0,0,1.1097561,-130.19571,-79.45785)"
         d="m 568.57145,652.36218 c 0,32.34811 -23.34516,58.57143 -52.14286,58.57143 -28.79771,0 -52.14286,-26.22332 -52.14286,-58.57143 0,-32.34811 23.34515,-58.57143 52.14286,-58.57143 28.7977,0 52.14286,26.22332 52.14286,58.57143 z"
         sodipodi:ry="58.57143"
         sodipodi:rx="52.142857"
         sodipodi:cy="652.36218"
         sodipodi:cx="516.42859"
         id="path3755"
         style="fill:#f3ff75;fill-opacity:1;stroke:none"
         sodipodi:type="arc" />
      <path
         sodipodi:nodetypes="cssccsscc"
         id="path3688-7"
         d="m 298.43742,653.82284 c -5.30767,-28.24759 -8.56763,-57.04382 -15.86154,-84.759 -6.40266,-24.32866 -14.819,-48.46262 -24.78288,-71.50543 -5.4914,-12.69959 -14.07985,-23.95687 -21.11978,-35.9353 -5.98926,2.8474 -11.97851,5.6948 -17.96777,8.5422 6.74185,12.96366 15.76188,25.07507 20.31971,38.85478 9.14465,27.64704 14.81814,56.66424 21.50035,85.1728 4.82323,20.57753 9.55281,41.17699 14.32922,61.76548 7.8609,-0.71184 15.72179,-1.42369 23.58269,-2.13553 z"
         style="fill:#95845b;fill-opacity:1;stroke:none" />
      <path
         sodipodi:nodetypes="csssszssssssssssscssssssssz"
         id="path3690-4"
         d="m 320.63696,478.06193 c -6.1036,1.63283 -26.91823,6.72232 -40.4177,5.72032 -12.19773,-0.90537 -25.14862,-1.29313 -36.44042,-6.06683 -6.29121,-2.65968 -17.14902,-13.578 -17.76764,-10.39865 -1.2219,6.28015 11.3542,25.14648 12.96411,38.61902 1.27275,10.65112 3.40307,23.67812 1.88404,32.17214 -1.519,8.49401 -6.13278,20.38517 -10.99807,18.7919 -11.61271,-3.80292 -28.9415,-21.88534 -33.80358,-39.68365 -3.6791,-13.46769 -4.62995,-37.23219 -11.59392,-40.25374 -5.95885,-2.58547 -15.1714,19.90492 -26.48072,24.43918 -12.53566,5.02598 -32.9224,18.2036 -38.31523,13.32436 -5.86468,-5.30617 -1.39417,-29.88773 5.32622,-43.88652 7.51138,-15.64638 20.69742,-27.6797 36.40808,-33.96795 12.70937,-5.08694 -7.65123,-9.01648 -11.55016,-14.25843 -6.27431,-8.43553 -9.31769,-19.03786 -13.13841,-28.80538 -2.48916,-6.3634 -4.36152,-13.30411 5.5711,-13.21981 11.74352,0.0997 23.30286,-0.85631 34.82726,2.5708 11.55046,3.43484 20.71088,12.34294 25.86022,22.77457 2.16599,9.18826 10.64972,-5.62787 15.15216,-8.35773 8.17744,-4.95805 17.5514,-7.41041 26.42991,-10.84642 9.61008,-3.71911 19.63293,-7.25083 30.16162,-6.69625 4.69388,0.24722 13.40108,-3.39329 14.11299,-0.15399 1.71135,7.78721 -5.92567,21.5204 -12.64191,30.96513 -5.56433,7.82493 -21.41929,17.23333 -18.65496,22.33231 3.67317,6.77546 21.41482,7.12696 31.1255,13.19054 11.18579,6.9847 21.06336,15.79502 28.21259,26.92044 1.09631,1.70601 9.8705,3.14183 3.76692,4.77464 z"
         style="fill:#8ccc8c;fill-opacity:1;stroke:none" />
      <path
         transform="matrix(1,0,0,-0.6350365,0,1129.2116)"
         sodipodi:end="3.1415927"
         sodipodi:start="0"
         d="m 665.71429,570.93359 c 0,108.09002 -136.87295,195.71428 -305.71429,195.71428 -168.84134,0 -305.714294,-87.62426 -305.714294,-195.71428 0,0 0,0 0,-10e-6 L 360,570.93359 z"
         sodipodi:ry="195.71428"
         sodipodi:rx="305.71429"
         sodipodi:cy="570.93359"
         sodipodi:cx="360"
         id="path2876"
         style="fill:#f3c075;fill-opacity:1;stroke:none"
         sodipodi:type="arc" />
    </g>
  </g>
</svg>
