<?xml version="1.0" encoding="UTF-8" standalone="no"?>
<!-- Created with Inkscape (http://www.inkscape.org/) -->

<svg
   xmlns:dc="http://purl.org/dc/elements/1.1/"
   xmlns:cc="http://creativecommons.org/ns#"
   xmlns:rdf="http://www.w3.org/1999/02/22-rdf-syntax-ns#"
   xmlns:svg="http://www.w3.org/2000/svg"
   xmlns="http://www.w3.org/2000/svg"
   xmlns:xlink="http://www.w3.org/1999/xlink"
   xmlns:sodipodi="http://sodipodi.sourceforge.net/DTD/sodipodi-0.dtd"
   xmlns:inkscape="http://www.inkscape.org/namespaces/inkscape"
   width="560.28955"
   height="219.23941"
   id="svg2"
   version="1.1"
   inkscape:version="0.47 r22583"
   sodipodi:docname="Novo documento 1">
  <defs
     id="defs4">
    <linearGradient
       id="linearGradient3704">
      <stop
         style="stop-color:#ff3535;stop-opacity:1;"
         offset="0"
         id="stop3706" />
      <stop
         style="stop-color:#ff0000;stop-opacity:0;"
         offset="1"
         id="stop3708" />
    </linearGradient>
    <linearGradient
       id="linearGradient3696">
      <stop
         style="stop-color:#ffaf7b;stop-opacity:0.50980395;"
         offset="0"
         id="stop3700" />
      <stop
         id="stop3702"
         offset="1"
         style="stop-color:#ffff54;stop-opacity:0;" />
    </linearGradient>
    <linearGradient
       id="linearGradient3678">
      <stop
         style="stop-color:#ff0000;stop-opacity:1;"
         offset="0"
         id="stop3680" />
      <stop
         id="stop3686"
         offset="0.5"
         style="stop-color:#ff7f00;stop-opacity:1;" />
      <stop
         style="stop-color:#ffff00;stop-opacity:0;"
         offset="1"
         id="stop3682" />
    </linearGradient>
    <inkscape:perspective
       sodipodi:type="inkscape:persp3d"
       inkscape:vp_x="0 : 526.18109 : 1"
       inkscape:vp_y="0 : 1000 : 0"
       inkscape:vp_z="744.09448 : 526.18109 : 1"
       inkscape:persp3d-origin="372.04724 : 350.78739 : 1"
       id="perspective10" />
    <inkscape:perspective
       id="perspective2826"
       inkscape:persp3d-origin="0.5 : 0.33333333 : 1"
       inkscape:vp_z="1 : 0.5 : 1"
       inkscape:vp_y="0 : 1000 : 0"
       inkscape:vp_x="0 : 0.5 : 1"
       sodipodi:type="inkscape:persp3d" />
    <inkscape:perspective
       id="perspective2848"
       inkscape:persp3d-origin="0.5 : 0.33333333 : 1"
       inkscape:vp_z="1 : 0.5 : 1"
       inkscape:vp_y="0 : 1000 : 0"
       inkscape:vp_x="0 : 0.5 : 1"
       sodipodi:type="inkscape:persp3d" />
    <inkscape:perspective
       id="perspective2870"
       inkscape:persp3d-origin="0.5 : 0.33333333 : 1"
       inkscape:vp_z="1 : 0.5 : 1"
       inkscape:vp_y="0 : 1000 : 0"
       inkscape:vp_x="0 : 0.5 : 1"
       sodipodi:type="inkscape:persp3d" />
    <inkscape:perspective
       id="perspective3664"
       inkscape:persp3d-origin="0.5 : 0.33333333 : 1"
       inkscape:vp_z="1 : 0.5 : 1"
       inkscape:vp_y="0 : 1000 : 0"
       inkscape:vp_x="0 : 0.5 : 1"
       sodipodi:type="inkscape:persp3d" />
    <inkscape:perspective
       id="perspective3720"
       inkscape:persp3d-origin="0.5 : 0.33333333 : 1"
       inkscape:vp_z="1 : 0.5 : 1"
       inkscape:vp_y="0 : 1000 : 0"
       inkscape:vp_x="0 : 0.5 : 1"
       sodipodi:type="inkscape:persp3d" />
    <radialGradient
       inkscape:collect="always"
       xlink:href="#linearGradient3704-2"
       id="radialGradient3710-8"
       cx="338.57144"
       cy="546.64789"
       fx="338.57144"
       fy="546.64789"
       r="30"
       gradientTransform="matrix(1,0,0,0.95238094,0,26.030857)"
       gradientUnits="userSpaceOnUse" />
    <linearGradient
       id="linearGradient3704-2">
      <stop
         style="stop-color:#ff0000;stop-opacity:1;"
         offset="0"
         id="stop3706-7" />
      <stop
         style="stop-color:#ff0000;stop-opacity:0;"
         offset="1"
         id="stop3708-7" />
    </linearGradient>
    <radialGradient
       inkscape:collect="always"
       xlink:href="#linearGradient3678"
       id="radialGradient3756"
       gradientUnits="userSpaceOnUse"
       gradientTransform="matrix(1,0,0,0.95238094,0,26.030857)"
       cx="338.57144"
       cy="546.64789"
       fx="338.57144"
       fy="546.64789"
       r="30" />
    <radialGradient
       inkscape:collect="always"
       xlink:href="#linearGradient3696"
       id="radialGradient3758"
       gradientUnits="userSpaceOnUse"
       gradientTransform="matrix(1,0,0,0.95238094,0,26.030857)"
       cx="338.57144"
       cy="546.64789"
       fx="338.57144"
       fy="546.64789"
       r="30" />
    <radialGradient
       inkscape:collect="always"
       xlink:href="#linearGradient3704"
       id="radialGradient3760"
       gradientUnits="userSpaceOnUse"
       gradientTransform="matrix(1,0,0,0.95238094,0,26.030857)"
       cx="338.57144"
       cy="546.64789"
       fx="338.57144"
       fy="546.64789"
       r="30" />
    <inkscape:perspective
       id="perspective3772"
       inkscape:persp3d-origin="0.5 : 0.33333333 : 1"
       inkscape:vp_z="1 : 0.5 : 1"
       inkscape:vp_y="0 : 1000 : 0"
       inkscape:vp_x="0 : 0.5 : 1"
       sodipodi:type="inkscape:persp3d" />
    <inkscape:perspective
       id="perspective3807"
       inkscape:persp3d-origin="0.5 : 0.33333333 : 1"
       inkscape:vp_z="1 : 0.5 : 1"
       inkscape:vp_y="0 : 1000 : 0"
       inkscape:vp_x="0 : 0.5 : 1"
       sodipodi:type="inkscape:persp3d" />
    <inkscape:perspective
       id="perspective3850"
       inkscape:persp3d-origin="0.5 : 0.33333333 : 1"
       inkscape:vp_z="1 : 0.5 : 1"
       inkscape:vp_y="0 : 1000 : 0"
       inkscape:vp_x="0 : 0.5 : 1"
       sodipodi:type="inkscape:persp3d" />
  </defs>
  <sodipodi:namedview
     id="base"
     pagecolor="#ffffff"
     bordercolor="#666666"
     borderopacity="1.0"
     inkscape:pageopacity="0.0"
     inkscape:pageshadow="2"
     inkscape:zoom="0.70710678"
     inkscape:cx="-40.359669"
     inkscape:cy="85.850919"
     inkscape:document-units="px"
     inkscape:current-layer="layer1"
     showgrid="false"
     showguides="true"
     inkscape:guide-bbox="true"
     inkscape:window-width="1600"
     inkscape:window-height="838"
     inkscape:window-x="-8"
     inkscape:window-y="-8"
     inkscape:window-maximized="1" />
  <metadata
     id="metadata7">
    <rdf:RDF>
      <cc:Work
         rdf:about="">
        <dc:format>image/svg+xml</dc:format>
        <dc:type
           rdf:resource="http://purl.org/dc/dcmitype/StillImage" />
        <dc:title></dc:title>
      </cc:Work>
    </rdf:RDF>
  </metadata>
  <g
     inkscape:label="Camada 1"
     inkscape:groupmode="layer"
     id="layer1"
     transform="translate(-27.571429,-550.55134)">
    <g
       id="g3880">
      <path
         sodipodi:end="3.1415927"
         sodipodi:start="0"
         transform="matrix(1.0037522,0,0,-0.99999221,23.852829,1440.0869)"
         d="m 560.90372,671.30377 c 0,119.97773 -124.36674,217.23889 -277.78089,217.23889 -153.41414,0 -277.7808805,-97.26116 -277.7808805,-217.23889 0,0 0,0 0,-10e-6 l 277.7808805,10e-6 z"
         sodipodi:ry="217.23889"
         sodipodi:rx="277.78088"
         sodipodi:cy="671.30377"
         sodipodi:cx="283.12283"
         id="path3864"
         style="fill:#85c8ff;fill-opacity:1;stroke:#1694ff;stroke-width:1.99591064;stroke-miterlimit:4;stroke-opacity:1;stroke-dasharray:none;stroke-dashoffset:0"
         sodipodi:type="arc" />
      <path
         transform="matrix(0.66920107,0,0,0.63160547,176.78443,391.60892)"
         d="m 336.38078,440.71481 c 0,24.82619 -18.99495,44.95179 -42.4264,44.95179 -23.43146,0 -42.42641,-20.1256 -42.42641,-44.95179 0,-24.82618 18.99495,-44.95179 42.42641,-44.95179 23.43145,0 42.4264,20.12561 42.4264,44.95179 z"
         sodipodi:ry="44.95179"
         sodipodi:rx="42.426407"
         sodipodi:cy="440.71481"
         sodipodi:cx="293.95438"
         id="path3827"
         style="fill:#ffd343;fill-opacity:1;stroke:#969600;stroke-width:3.07630038;stroke-miterlimit:4;stroke-opacity:1;stroke-dasharray:none;stroke-dashoffset:0"
         sodipodi:type="arc" />
      <path
         sodipodi:nodetypes="cscccc"
         id="path3829-6"
         d="m 527.84536,663.73158 c -13.71672,-4.79276 -29.26911,-15.00221 -45.45076,-16.0064 -16.18165,-1.00419 -32.99257,7.19693 -49.22633,10.82589 -28.45062,6.62545 -14.33011,23.65691 11.86592,21.04819 27.22662,5.26416 55.53549,-0.51898 82.62039,-5.56174 13.58796,-1.99925 10.0847,-8.53627 0.19078,-10.30594 z"
         style="fill:#ffffff;fill-opacity:1;stroke:#969696;stroke-width:2;stroke-linecap:butt;stroke-linejoin:miter;stroke-miterlimit:4;stroke-opacity:1;stroke-dasharray:none" />
      <path
         sodipodi:nodetypes="csssssscc"
         id="path3778-2"
         d="m 28.571429,768.79075 c 26.33238,-10.03278 53.61914,-16.18831 81.396391,-20.62995 38.60828,-6.17354 78.08552,-13.45815 113.61683,-28.1297 25.92333,-10.70423 50.66389,-23.57073 78.63761,-28.33615 28.76254,-4.8998 51.29712,6.64515 77.06439,-12.25224 17.85118,-13.09183 35.78158,-3.08857 55.42086,-17.83417 26.36602,-19.79619 57.62316,2.39018 80.98777,23.33227 25.69922,23.03464 58.03168,50.35851 70.72584,83.84994 l -557.849691,0 z"
         style="fill:#474344;fill-opacity:1;stroke:none" />
      <path
         id="path3780"
         d="m 256.42857,706.64789 c 8.14768,-25.71553 15.84209,-54.9117 36.85687,-72.96626 28.50507,-26.30428 50.87585,24.02351 62.87229,45.22314 9.92157,26.00292 -14.37394,23.19661 -31.54208,23.83275 -22.72903,1.30346 -45.45805,2.60691 -68.18708,3.91037 z"
         style="fill:#4b3f42;fill-opacity:1;stroke:#232323;stroke-width:2;stroke-linecap:butt;stroke-linejoin:miter;stroke-miterlimit:4;stroke-opacity:1;stroke-dasharray:none" />
      <path
         d="m 471.78572,768.43361 -4.28572,-4.64286 0.35714,-7.14285 2.85715,-2.14286 c 0,0 1.07143,-2.85714 -1.07143,-5 C 467.5,747.36218 465,742.36218 465,742.36218 l -1.78571,-6.78571 3.21428,-5 6.07143,1.42857 c 0,0 -0.35714,4.64286 -0.35714,6.07143 0,1.42857 3.21428,5.71428 3.21428,5.71428 l 11.78572,3.57143 7.14286,7.14286 -1.78572,5 -3.57143,3.21429 -3.21428,6.07142 -13.92857,-0.35714 z M 453.96875,653.90625 c -1.01005,0.0154 -1.72768,0.0402 -1.90625,0.0625 -0.71428,0.0893 -7.23661,2.05358 -8.21875,2.5 -0.98215,0.44643 -7.86608,4.55358 -8.9375,5 -1.07143,0.44643 -7.59821,5.71875 -8.9375,5.71875 -1.33928,0 -12.65625,2.9375 -12.65625,2.9375 0,0 -10.99107,1.78125 -12.6875,1.78125 -1.69643,0 -11.25,2.5 -11.25,2.5 l -7.9375,3.75 L 375.34375,682 c 0,0 -8.63393,5.44197 -10.0625,5.53125 -1.42857,0.0893 -8.58929,2.40625 -9.75,2.40625 -1.16072,0 -11.0625,0.90625 -11.0625,0.90625 l -10.8125,0.1875 -14.375,-1.09375 c 0,0 -17.40179,1.71875 -18.5625,1.71875 -1.16072,0 -18.3125,4.17857 -18.9375,4.625 -0.625,0.44643 -15.25,6.09375 -15.25,6.09375 l -13.5,5.15625 -33.65625,13.9375 -23.75,8.65625 -21.25,5.625 -25.28125,5.8125 -46.15625,7.75 c 0,0 -13.665178,2.52232 -15.09375,2.96875 -1.428571,0.44642 -22.125,5.25 -22.125,5.25 l -6.4375,1.625 23.9375,2.84375 30.71875,0 33.90625,-2.84375 26.09375,-2.5 22.84375,0.71875 c 0,0 4.8956,0.34736 5.375,-1.4375 0.34937,-1.30077 -2.875,-2.875 -2.875,-2.875 -1.30682,-1.30681 -3.65025,-0.66625 -5.34375,-1.40625 -2.45144,-1.07119 -6.78125,-4.28125 -6.78125,-4.28125 -1.95433,-1.23432 4.57109,-0.76063 6.78125,-1.4375 3.31866,-1.01636 9.625,-3.9375 9.625,-3.9375 4.25567,-1.73379 7.19772,-5.782 11.09375,-8.21875 2.84406,-1.7788 8.90625,-4.625 8.90625,-4.625 2.20543,-1.14682 4.69681,1.76403 7.15625,2.125 2.23793,0.32846 6.78125,0 6.78125,0 3.03513,0 5.59759,-2.37604 8.21875,-3.90625 2.50992,-1.46527 7.125,-5 7.125,-5 1.91611,-1.34128 1.23124,-4.54696 1.8125,-6.8125 0.24397,-0.9509 0.6875,-2.84375 0.6875,-2.84375 0.484,-1.93602 3.74599,-1.48019 5.71875,-1.78125 3.29518,-0.50288 10,0 10,0 2.85962,0 6.45558,-2.27387 8.59375,-0.375 1.16059,1.03069 1.13899,3.32325 0.34375,4.65625 -1.2014,2.01383 -6.4375,2.84375 -6.4375,2.84375 L 270,722 c -1.6016,1.76176 -2.86161,3.9241 -5.71875,4.28125 -2.85715,0.35715 -5.00893,2.16518 -6.4375,3.59375 -1.42857,1.42857 -3.1875,6.4241 -5.6875,6.78125 -2.5,0.35714 -7.41066,-1.05215 -11.09375,-0.71875 -1.46654,0.13275 -2.85267,-0.009 -4.28125,1.0625 -1.42857,1.07143 -5.1764,3.0951 -7.5,5 -1.82278,1.49433 -2.5,3.92857 -5,5 -2.5,1.07143 -8.5625,2.28489 -8.5625,5.71875 l 0,5.34375 c 0,5.00142 10.70441,2.2179 15,-0.34375 1.64868,-0.98318 1.29579,-3.86483 2.84375,-5 l 5.375,-3.9375 c 1.85408,-1.35966 3.19197,-2.14285 6.40625,-2.5 3.21429,-0.35714 4.40854,-0.47511 4.65625,1.09375 l 1.0625,6.78125 c 0.40721,2.57897 -5.43801,3.10954 -5.34375,5.71875 0.076,2.10479 4.625,4.28125 4.625,4.28125 1.6505,1.52355 1.74259,-4.44652 3.59375,-5.71875 3.59816,-2.47286 8.49788,-2.0814 12.84375,-2.5 1.89599,-0.18262 3.8406,0.31731 5.71875,0 2.85849,-0.48294 7.53487,-0.63473 8.21875,-2.875 0.68388,-2.24028 -0.004,-4.6384 -3.21875,-4.28125 -3.21429,0.35714 -11.98454,4.48454 -9.65625,2.15625 L 272.5,746.28125 c 2.2666,-2.2666 6.18642,-1.66517 9.28125,-2.5 4.40534,-1.18834 8.67581,-3.98781 13.21875,-3.5625 4.08196,0.38216 10.56341,1.27444 11.0625,5.34375 0.33957,2.76863 -6.40625,5.375 -6.40625,5.375 0,0 -0.6221,3.66282 0.6875,4.28125 3.23125,1.52589 9.3125,-5.34375 9.3125,-5.34375 3.52715,-2.0349 6.06299,-5.52675 9.625,-7.5 4.54636,-2.51855 14.65625,-5.375 14.65625,-5.375 2.85693,-1.04522 4.98661,-4.625 7.84375,-4.625 2.85715,0 10.00892,-0.375 11.4375,-0.375 1.42857,0 2.125,4.27678 2.125,6.0625 0,1.78571 3.5965,5.16091 6.09375,4.65625 1.88155,-0.38024 1.54628,-3.5853 2.84375,-5 1.27227,-1.38723 4.65625,-3.21875 4.65625,-3.21875 2.73014,-1.89009 7.43363,0.005 9.625,2.5 1.26681,1.44222 0.71875,5.71875 0.71875,5.71875 0.29123,2.32986 3.72433,3.34801 6.0625,3.5625 1.38759,0.12729 3.9375,-1.40625 3.9375,-1.40625 2.06297,-0.75017 2.42112,-3.83445 4.28125,-5 1.98197,-1.2419 6.78125,-1.8125 6.78125,-1.8125 2.8782,-0.75742 6.80804,2.14285 8.59375,2.5 1.78572,0.35714 5.65716,1.5358 8.5625,1.8125 0,0 4.99152,0.56832 7.5,0.6875 1.42696,0.0678 3.38114,1.10933 4.28125,0 1.45641,-1.79495 -0.76767,-4.56894 -1.4375,-6.78125 -0.92889,-3.06792 -3.20535,-7.47768 -3.5625,-8.90625 -0.35714,-1.42857 -4.66478,-5.56482 -5.71875,-8.9375 0,0 -1.52132,-3.74015 -1.78125,-5.71875 -0.37247,-2.83526 -0.90386,-6.00478 0.375,-8.5625 l 3.90625,-7.875 c 1.2565,-2.513 5.00566,-2.82256 6.78125,-5 2.15438,-2.64196 0.9035,-9.28125 4.3125,-9.28125 0,0 6.03589,-0.7866 8.90625,0 3.60342,0.98749 9.65625,1.98248 9.65625,5.71875 0,0 -0.0485,2.14842 0,3.21875 0.0596,1.31357 -0.55099,2.97393 0.34375,3.9375 0,0 2.69815,3.84296 4.65625,5 1.26775,0.74911 4.57004,2.50644 4.28125,1.0625 0,0 -0.28097,-2.43013 -0.71875,-3.5625 -0.25031,-0.64746 -0.90351,-1.13679 -1.0625,-1.8125 0,0 -2.51953,-4.28718 -1.4375,-6.0625 1.02182,-1.67653 3.7751,-1.15984 5.71875,-1.4375 0,0 7.79382,1.1375 10,-1.40625 1.326,-1.5289 -2.02381,-6.09375 0,-6.09375 0,0 9.25711,-1.38869 13.5625,0 3.49029,1.12578 5.76839,4.59189 8.9375,6.4375 4.18887,2.43949 8.52651,4.8457 13.21875,6.0625 3.00499,0.77926 6.76194,-1.09515 9.28125,0.71875 0,0 5.69056,4.73254 8.9375,6.4375 3.13378,1.64554 10,3.5625 10,3.5625 0,0 -13.05357,-13.12947 -13.5,-13.21875 -0.44643,-0.0893 -19.375,-15.6875 -19.375,-15.6875 0,0 -19.27232,-13.9375 -19.71875,-13.9375 -0.44643,0 -8.12946,-3.84822 -10.09375,-3.9375 -1.96428,-0.0893 -10.61161,-2.48661 -10.96875,-2.84375 -0.26785,-0.26786 -5.78236,-0.29604 -8.8125,-0.25 z m -49.5,35.125 c 3.83722,-0.16847 7.83272,0.85358 7.6875,3.71875 -0.26566,5.24147 -4.58341,11.10698 -5.71875,16.75 -0.81283,4.04016 0.76159,8.41241 -0.84375,12.59375 -1.89338,4.9316 -5.07457,7.17257 -10.25,6.34375 -4.2177,-0.67545 -13.13326,-1.59671 -17.40625,-0.28125 -5.29309,0.39003 -7.69003,-3.83664 -10.09375,-5.4375 -1.00717,-0.67077 5.69367,-2.69747 5.375,-3.9375 -0.43278,-1.68405 -4.83674,-4.10648 -7.625,-4.84375 -3.19757,-0.8455 -7.47602,1.67729 -10.59375,1.28125 -0.86314,-0.10965 -3.00747,-1.72687 -2.1875,-2.125 4.73905,-2.30103 11.86093,-2.98683 16.875,-6.40625 5.78494,-3.94514 12.35777,-6.43743 18.40625,-9.84375 3.97116,-2.23644 7.3253,-5.23407 11.65625,-6.90625 1.27044,-0.49052 2.97456,-0.82967 4.71875,-0.90625 z"
         style="fill:#254036;fill-opacity:1;stroke:none"
         id="path3796" />
      <path
         sodipodi:nodetypes="csssssscc"
         id="path3778"
         d="m 28.571429,768.79075 c 26.332381,-10.03278 53.619138,-16.18831 81.396391,-20.62995 38.60828,-6.17354 78.08552,-13.45815 113.61683,-28.1297 25.92333,-10.70423 50.66389,-23.57073 78.63761,-28.33615 28.76254,-4.8998 51.29712,6.64515 77.06439,-12.25224 17.85118,-13.09183 35.78158,-3.08857 55.42086,-17.83417 26.36602,-19.79619 57.62316,2.39018 80.98777,23.33227 25.69922,23.03464 58.03168,50.35851 70.72584,83.84994 l -557.849691,0 z"
         style="fill:none;stroke:#232323;stroke-width:2;stroke-linecap:butt;stroke-linejoin:miter;stroke-miterlimit:4;stroke-opacity:1;stroke-dasharray:none" />
      <path
         sodipodi:nodetypes="czsssssssssss"
         id="path3870"
         d="m 125.16915,631.71162 c 14.25263,-7.10171 31.56035,-15.26561 45.46639,-14.91904 13.90604,0.34657 22.7521,3.60133 34.3014,2.11253 9.92189,-1.27902 20.17157,-1.15126 29.84556,2.04077 6.21376,2.0503 15.14676,1.71008 18.02381,8.4399 2.82416,6.60612 -8.26878,6.55871 -9.88787,13.42902 -1.31863,5.59534 -10.54855,4.32663 -16.00331,5.09883 -15.82906,2.24083 -24.62591,14.61628 -36.37448,2.77813 -3.60726,-3.63477 -11.055,-0.25842 -16.24336,0.98918 -9.2571,2.22599 -19.31458,6.74103 -26.07231,4.63423 -12.51034,-3.90025 -18.87523,-1.04629 -30.81512,-6.70278 -6.25554,-2.96355 -4.06441,-10.39676 0.83612,-13.48024 2.31446,-1.45629 4.46981,-3.19809 6.92317,-4.42053 z"
         style="fill:#ffffff;fill-opacity:1;stroke:#969696;stroke-width:2;stroke-linecap:butt;stroke-linejoin:miter;stroke-miterlimit:4;stroke-opacity:1;stroke-dasharray:none" />
    </g>
  </g>
</svg>
