<?xml version="1.0" encoding="UTF-8" standalone="no"?>
<!-- Created with Inkscape (http://www.inkscape.org/) -->
<svg
   xmlns:dc="http://purl.org/dc/elements/1.1/"
   xmlns:cc="http://creativecommons.org/ns#"
   xmlns:rdf="http://www.w3.org/1999/02/22-rdf-syntax-ns#"
   xmlns:svg="http://www.w3.org/2000/svg"
   xmlns="http://www.w3.org/2000/svg"
   xmlns:sodipodi="http://sodipodi.sourceforge.net/DTD/sodipodi-0.dtd"
   xmlns:inkscape="http://www.inkscape.org/namespaces/inkscape"
   width="620.01337"
   height="562.85767"
   id="svg2"
   sodipodi:version="0.32"
   inkscape:version="0.46"
   sodipodi:docname="sea scene.svg"
   inkscape:output_extension="org.inkscape.output.svg.inkscape"
   version="1.0">
  <defs
     id="defs4">
    <inkscape:perspective
       sodipodi:type="inkscape:persp3d"
       inkscape:vp_x="0 : 526.18109 : 1"
       inkscape:vp_y="0 : 1000 : 0"
       inkscape:vp_z="744.09448 : 526.18109 : 1"
       inkscape:persp3d-origin="372.04724 : 350.78739 : 1"
       id="perspective10" />
  </defs>
  <sodipodi:namedview
     id="base"
     pagecolor="#ffffff"
     bordercolor="#666666"
     borderopacity="1.0"
     inkscape:pageopacity="0.0"
     inkscape:pageshadow="2"
     inkscape:zoom="0.49497475"
     inkscape:cx="339.7088"
     inkscape:cy="432.70959"
     inkscape:document-units="px"
     inkscape:current-layer="layer1"
     showgrid="false"
     inkscape:window-width="909"
     inkscape:window-height="667"
     inkscape:window-x="308"
     inkscape:window-y="39" />
  <metadata
     id="metadata7">
    <rdf:RDF>
      <cc:Work
         rdf:about="">
        <dc:format>image/svg+xml</dc:format>
        <dc:type
           rdf:resource="http://purl.org/dc/dcmitype/StillImage" />
      </cc:Work>
    </rdf:RDF>
  </metadata>
  <g
     inkscape:label="Camada 1"
     inkscape:groupmode="layer"
     id="layer1"
     transform="translate(-62.84375,-255.21875)">
    <g
       id="g3452">
      <path
         transform="translate(-71.428571,-20)"
         d="M 754.28571,556.64789 A 310,281.42856 0 1 1 134.28571,556.64789 A 310,281.42856 0 1 1 754.28571,556.64789 z"
         sodipodi:ry="281.42856"
         sodipodi:rx="310"
         sodipodi:cy="556.64789"
         sodipodi:cx="444.28571"
         id="path3157"
         style="opacity:1;fill:#ffffff;fill-opacity:1;stroke:none;stroke-width:1.5;stroke-miterlimit:4;stroke-dasharray:none;stroke-dashoffset:0;stroke-opacity:1"
         sodipodi:type="arc" />
      <path
         id="path2383"
         d="M 372.84375,255.21875 C 201.72375,255.21875 62.843749,381.30769 62.84375,536.65625 C 62.84375,541.33136 62.970098,545.97429 63.21875,550.59375 C 69.162169,545.56281 75.020621,540.19813 80,535.21875 C 95.058274,520.16044 110.83254,512.375 134.28125,512.375 C 155.82504,512.375 164.46717,532.07417 171.4375,549.5 C 180.70938,572.67967 191.47123,588.77282 211.4375,583.78125 C 224.57321,580.49731 232.08496,569.5 251.4375,569.5 C 277.23581,569.49997 289.55421,572.40003 308.5625,586.65625 C 324.92102,598.92515 326.68864,619.0324 337.15625,629.5 C 344.2695,636.61322 376.32078,631.75621 388.5625,640.9375 C 391.79498,643.36189 394.2991,646.64286 397.15625,649.5 C 411.74316,664.08687 420,681.12751 420,700.9375 C 420,712.121 432.28898,716.92172 437.15625,726.65625 C 439.60175,731.54725 407.27592,729.5 397.15625,729.5 C 378.10864,729.49997 359.04762,729.5 340,729.5 C 319.04762,729.49997 298.10863,729.5 277.15625,729.5 C 258.10864,729.49997 239.04762,729.5 220,729.5 L 147.1875,729.5 C 203.73416,784.01005 283.91869,818.06252 372.84375,818.0625 C 543.96375,818.0625 682.84377,692.00481 682.84375,536.65625 C 682.84375,381.30769 543.96374,255.21875 372.84375,255.21875 z"
         style="opacity:1;fill:#80bcff;fill-opacity:1;stroke:none;stroke-width:1.5;stroke-miterlimit:4;stroke-dasharray:none;stroke-dashoffset:0;stroke-opacity:1" />
      <path
         id="path3160"
         d="M 85.59375,642.59375 C 131.72421,745.48149 243.00058,818.06248 372.84375,818.0625 C 502.68692,818.0625 613.96329,745.4815 660.09375,642.59375 C 574.55313,663.94512 476.74562,676.0625 372.84375,676.0625 C 268.94188,676.06249 171.13437,663.94512 85.59375,642.59375 z"
         style="opacity:1;fill:#004fa9;fill-opacity:1;stroke:none;stroke-width:1.5;stroke-miterlimit:4;stroke-dasharray:none;stroke-dashoffset:0;stroke-opacity:1" />
      <path
         sodipodi:nodetypes="cssssszzssss"
         id="path3166"
         d="M 238.5074,353.96477 C 248.32818,340.17452 279.42922,323.7516 297.43162,337.6273 C 307.78148,345.60465 316.26399,345.53235 329.46687,344.3986 C 348.90892,342.72908 393.80482,342.48688 399.93763,360.41569 C 404.14295,372.7096 403.93288,383.20019 400.54975,391.79594 C 397.16663,400.39167 383.71247,411.74729 374.20201,413.69781 C 362.214,416.15645 350.15673,403.10984 339.0508,403.76004 C 327.94489,404.41025 311.69065,418.54893 293.05401,412.58477 C 274.41736,406.6206 263.86415,400.34184 241.66913,415.1961 C 222.90956,427.75116 199.98677,407.08129 187.30393,393.28683 C 173.64452,378.4302 189.98485,350.92723 210.14196,349.90775 C 219.83843,349.41734 234.39446,359.74013 238.5074,353.96477 z"
         style="opacity:1;fill:#ffffff;fill-opacity:1;fill-rule:evenodd;stroke:none;stroke-width:1px;stroke-linecap:butt;stroke-linejoin:miter;marker:none;marker-start:none;marker-mid:none;marker-end:none;stroke-miterlimit:4;stroke-dasharray:none;stroke-dashoffset:0;stroke-opacity:1;visibility:visible;display:inline;overflow:visible;enable-background:accumulate" />
      <path
         transform="matrix(0.1788437,0,0,0.1788437,435.72009,379.82459)"
         d="M 754.28571,556.64789 A 310,281.42856 0 1 1 134.28571,556.64789 A 310,281.42856 0 1 1 754.28571,556.64789 z"
         sodipodi:ry="281.42856"
         sodipodi:rx="310"
         sodipodi:cy="556.64789"
         sodipodi:cx="444.28571"
         id="path3450"
         style="opacity:1;fill:#ffff00;fill-opacity:1;stroke:none;stroke-width:1.5;stroke-miterlimit:4;stroke-dasharray:none;stroke-dashoffset:0;stroke-opacity:1"
         sodipodi:type="arc" />
    </g>
  </g>
</svg>
