<?xml version="1.0" encoding="UTF-8" standalone="no"?>
<!-- Created with Inkscape (http://www.inkscape.org/) -->
<svg
   xmlns:dc="http://purl.org/dc/elements/1.1/"
   xmlns:cc="http://creativecommons.org/ns#"
   xmlns:rdf="http://www.w3.org/1999/02/22-rdf-syntax-ns#"
   xmlns:svg="http://www.w3.org/2000/svg"
   xmlns="http://www.w3.org/2000/svg"
   xmlns:xlink="http://www.w3.org/1999/xlink"
   xmlns:sodipodi="http://sodipodi.sourceforge.net/DTD/sodipodi-0.dtd"
   xmlns:inkscape="http://www.inkscape.org/namespaces/inkscape"
   width="732.09875"
   height="732.09875"
   id="svg2"
   sodipodi:version="0.32"
   inkscape:version="0.46"
   version="1.0"
   sodipodi:docname="spiral sun.svg"
   inkscape:output_extension="org.inkscape.output.svg.inkscape">
  <defs
     id="defs4">
    <linearGradient
       id="linearGradient3229">
      <stop
         style="stop-color:#ffff00;stop-opacity:1;"
         offset="0"
         id="stop3231" />
      <stop
         id="stop3237"
         offset="0.5"
         style="stop-color:#ffc200;stop-opacity:1;" />
      <stop
         style="stop-color:#ffff00;stop-opacity:0;"
         offset="1"
         id="stop3233" />
    </linearGradient>
    <inkscape:perspective
       sodipodi:type="inkscape:persp3d"
       inkscape:vp_x="0 : 526.18109 : 1"
       inkscape:vp_y="0 : 1000 : 0"
       inkscape:vp_z="744.09448 : 526.18109 : 1"
       inkscape:persp3d-origin="372.04724 : 350.78739 : 1"
       id="perspective10" />
    <radialGradient
       inkscape:collect="always"
       xlink:href="#linearGradient3229"
       id="radialGradient3327"
       gradientUnits="userSpaceOnUse"
       cx="275.77164"
       cy="720.02197"
       fx="275.77164"
       fy="720.02197"
       r="91.923882" />
  </defs>
  <sodipodi:namedview
     id="base"
     pagecolor="#ffffff"
     bordercolor="#666666"
     borderopacity="1.0"
     inkscape:pageopacity="0.0"
     inkscape:pageshadow="2"
     inkscape:zoom="0.35"
     inkscape:cx="277.81374"
     inkscape:cy="413.77924"
     inkscape:document-units="px"
     inkscape:current-layer="layer1"
     showgrid="false"
     inkscape:window-width="1280"
     inkscape:window-height="719"
     inkscape:window-x="-4"
     inkscape:window-y="-4" />
  <metadata
     id="metadata7">
    <rdf:RDF>
      <cc:Work
         rdf:about="">
        <dc:format>image/svg+xml</dc:format>
        <dc:type
           rdf:resource="http://purl.org/dc/dcmitype/StillImage" />
      </cc:Work>
    </rdf:RDF>
  </metadata>
  <g
     inkscape:label="Camada 1"
     inkscape:groupmode="layer"
     id="layer1"
     transform="translate(11.905689,-116.06817)">
    <g
       id="g3548">
      <path
         transform="matrix(3.9820923,0,0,3.9820923,-744.00442,-2385.0764)"
         d="M 367.69552,720.02197 A 91.923882,91.923882 0 1 1 183.84776,720.02197 A 91.923882,91.923882 0 1 1 367.69552,720.02197 z"
         sodipodi:ry="91.923882"
         sodipodi:rx="91.923882"
         sodipodi:cy="720.02197"
         sodipodi:cx="275.77164"
         id="path3227"
         style="fill:url(#radialGradient3327);fill-opacity:1;stroke:none;stroke-width:10;stroke-miterlimit:4;stroke-dasharray:none;stroke-dashoffset:0;stroke-opacity:1"
         sodipodi:type="arc" />
      <g
         style="opacity:0.5"
         transform="translate(169.78139,-331.31567)"
         id="g3205">
        <path
           sodipodi:type="spiral"
           style="fill:none;fill-rule:evenodd;stroke:#ff6900;stroke-width:15;stroke-linecap:butt;stroke-linejoin:miter;stroke-miterlimit:4;stroke-dasharray:none;stroke-opacity:1"
           id="path2383"
           sodipodi:cx="277.14285"
           sodipodi:cy="335.21933"
           sodipodi:expansion="1.88"
           sodipodi:revolution="3.3"
           sodipodi:radius="125.84409"
           sodipodi:argument="-17.967684"
           sodipodi:t0="0.34799999"
           d="M 272.97223,352.00727 C 260.87459,352.14494 252.45862,340.5743 252.83149,329.17967 C 253.3786,312.46067 269.47057,301.08055 285.37103,302.0986 C 307.39866,303.50895 322.1776,324.85007 320.33364,345.9492 C 317.88546,373.96189 290.58143,392.56599 263.60337,389.7196 C 228.93896,386.06224 206.09024,352.0934 210.11199,318.56687 C 215.14709,276.59275 256.47245,249.08581 297.20765,254.45282 C 347.14168,261.03181 379.71529,310.39641 372.83578,358.99229 C 364.54893,417.52936 306.47028,455.57354 249.36909,447.0166 C 210.88853,441.25007 177.40936,415.90408 160.03315,381.28507"
           transform="matrix(0.7071068,0.7071068,-0.7071068,0.7071068,340.84891,430.2216)" />
        <path
           sodipodi:type="spiral"
           style="fill:none;fill-rule:evenodd;stroke:#fff500;stroke-width:15;stroke-linecap:butt;stroke-linejoin:miter;stroke-miterlimit:4;stroke-dasharray:none;stroke-opacity:1"
           id="path2385"
           sodipodi:cx="277.14285"
           sodipodi:cy="335.21933"
           sodipodi:expansion="1.88"
           sodipodi:revolution="3.3"
           sodipodi:radius="125.84409"
           sodipodi:argument="-17.967684"
           sodipodi:t0="0.34799999"
           d="M 272.97223,352.00727 C 260.87459,352.14494 252.45862,340.5743 252.83149,329.17967 C 253.3786,312.46067 269.47057,301.08055 285.37103,302.0986 C 307.39866,303.50895 322.1776,324.85007 320.33364,345.9492 C 317.88546,373.96189 290.58143,392.56599 263.60337,389.7196 C 228.93896,386.06224 206.09024,352.0934 210.11199,318.56687 C 215.14709,276.59275 256.47245,249.08581 297.20765,254.45282 C 347.14168,261.03181 379.71529,310.39641 372.83578,358.99229 C 364.54893,417.52936 306.47028,455.57354 249.36909,447.0166 C 210.88853,441.25007 177.40936,415.90408 160.03315,381.28507"
           transform="matrix(-0.7071068,-0.7071068,0.7071068,-0.7071068,28.036393,1196.6533)" />
        <path
           sodipodi:type="spiral"
           style="fill:none;fill-rule:evenodd;stroke:#ffaf00;stroke-width:15;stroke-linecap:butt;stroke-linejoin:miter;stroke-miterlimit:4;stroke-dasharray:none;stroke-opacity:1"
           id="path2387"
           sodipodi:cx="277.14285"
           sodipodi:cy="335.21933"
           sodipodi:expansion="1.88"
           sodipodi:revolution="3.3"
           sodipodi:radius="125.84409"
           sodipodi:argument="-17.967684"
           sodipodi:t0="0.34799999"
           d="M 272.97223,352.00727 C 260.87459,352.14494 252.45862,340.5743 252.83149,329.17967 C 253.3786,312.46067 269.47057,301.08055 285.37103,302.0986 C 307.39866,303.50895 322.1776,324.85007 320.33364,345.9492 C 317.88546,373.96189 290.58143,392.56599 263.60337,389.7196 C 228.93896,386.06224 206.09024,352.0934 210.11199,318.56687 C 215.14709,276.59275 256.47245,249.08581 297.20765,254.45282 C 347.14168,261.03181 379.71529,310.39641 372.83578,358.99229 C 364.54893,417.52936 306.47028,455.57354 249.36909,447.0166 C 210.88853,441.25007 177.40936,415.90408 160.03315,381.28507"
           transform="matrix(-0.7071068,0.7071068,-0.7071068,-0.7071068,558.5531,974.7189)" />
        <path
           sodipodi:type="spiral"
           style="fill:none;fill-rule:evenodd;stroke:#ff2300;stroke-width:15;stroke-linecap:butt;stroke-linejoin:miter;stroke-miterlimit:4;stroke-dasharray:none;stroke-opacity:1"
           id="path2389"
           sodipodi:cx="277.14285"
           sodipodi:cy="335.21933"
           sodipodi:expansion="1.88"
           sodipodi:revolution="3.3"
           sodipodi:radius="125.84409"
           sodipodi:argument="-17.967684"
           sodipodi:t0="0.34799999"
           d="M 272.97223,352.00727 C 260.87459,352.14494 252.45862,340.5743 252.83149,329.17967 C 253.3786,312.46067 269.47057,301.08055 285.37103,302.0986 C 307.39866,303.50895 322.1776,324.85007 320.33364,345.9492 C 317.88546,373.96189 290.58143,392.56599 263.60337,389.7196 C 228.93896,386.06224 206.09024,352.0934 210.11199,318.56687 C 215.14709,276.59275 256.47245,249.08581 297.20765,254.45282 C 347.14168,261.03181 379.71529,310.39641 372.83578,358.99229 C 364.54893,417.52936 306.47028,455.57354 249.36909,447.0166 C 210.88853,441.25007 177.40936,415.90408 160.03315,381.28507"
           transform="matrix(0.7071068,-0.7071068,0.7071068,0.7071068,-189.33445,652.38323)" />
        <path
           sodipodi:type="spiral"
           style="fill:none;fill-rule:evenodd;stroke:#ff4600;stroke-width:15;stroke-linecap:butt;stroke-linejoin:miter;stroke-miterlimit:4;stroke-dasharray:none;stroke-opacity:1"
           id="path3161"
           sodipodi:cx="277.14285"
           sodipodi:cy="335.21933"
           sodipodi:expansion="1.88"
           sodipodi:revolution="3.3"
           sodipodi:radius="125.84409"
           sodipodi:argument="-17.967684"
           sodipodi:t0="0.34799999"
           d="M 272.97223,352.00727 C 260.87459,352.14494 252.45862,340.5743 252.83149,329.17967 C 253.3786,312.46067 269.47057,301.08055 285.37103,302.0986 C 307.39866,303.50895 322.1776,324.85007 320.33364,345.9492 C 317.88546,373.96189 290.58143,392.56599 263.60337,389.7196 C 228.93896,386.06224 206.09024,352.0934 210.11199,318.56687 C 215.14709,276.59275 256.47245,249.08581 297.20765,254.45282 C 347.14168,261.03181 379.71529,310.39641 372.83578,358.99229 C 364.54893,417.52936 306.47028,455.57354 249.36909,447.0166 C 210.88853,441.25007 177.40936,415.90408 160.03315,381.28507"
           transform="translate(23.983708,431.90026)" />
        <path
           sodipodi:type="spiral"
           style="fill:none;fill-rule:evenodd;stroke:#ffd200;stroke-width:15;stroke-linecap:butt;stroke-linejoin:miter;stroke-miterlimit:4;stroke-dasharray:none;stroke-opacity:1"
           id="path3163"
           sodipodi:cx="277.14285"
           sodipodi:cy="335.21933"
           sodipodi:expansion="1.88"
           sodipodi:revolution="3.3"
           sodipodi:radius="125.84409"
           sodipodi:argument="-17.967684"
           sodipodi:t0="0.34799999"
           d="M 272.97223,352.00727 C 260.87459,352.14494 252.45862,340.5743 252.83149,329.17967 C 253.3786,312.46067 269.47057,301.08055 285.37103,302.0986 C 307.39866,303.50895 322.1776,324.85007 320.33364,345.9492 C 317.88546,373.96189 290.58143,392.56599 263.60337,389.7196 C 228.93896,386.06224 206.09024,352.0934 210.11199,318.56687 C 215.14709,276.59275 256.47245,249.08581 297.20765,254.45282 C 347.14168,261.03181 379.71529,310.39641 372.83578,358.99229 C 364.54893,417.52936 306.47028,455.57354 249.36909,447.0166 C 210.88853,441.25007 177.40936,415.90408 160.03315,381.28507"
           transform="matrix(-1.0000001,0,0,-1.0000001,344.74094,1195.0412)" />
        <path
           sodipodi:type="spiral"
           style="fill:none;fill-rule:evenodd;stroke:#ff8c00;stroke-width:15;stroke-linecap:butt;stroke-linejoin:miter;stroke-miterlimit:4;stroke-dasharray:none;stroke-opacity:1"
           id="path3165"
           sodipodi:cx="277.14285"
           sodipodi:cy="335.21933"
           sodipodi:expansion="1.88"
           sodipodi:revolution="3.3"
           sodipodi:radius="125.84409"
           sodipodi:argument="-17.967684"
           sodipodi:t0="0.34799999"
           d="M 272.97223,352.00727 C 260.87459,352.14494 252.45862,340.5743 252.83149,329.17967 C 253.3786,312.46067 269.47057,301.08055 285.37103,302.0986 C 307.39866,303.50895 322.1776,324.85007 320.33364,345.9492 C 317.88546,373.96189 290.58143,392.56599 263.60337,389.7196 C 228.93896,386.06224 206.09024,352.0934 210.11199,318.56687 C 215.14709,276.59275 256.47245,249.08581 297.20765,254.45282 C 347.14168,261.03181 379.71529,310.39641 372.83578,358.99229 C 364.54893,417.52936 306.47028,455.57354 249.36909,447.0166 C 210.88853,441.25007 177.40936,415.90408 160.03315,381.28507"
           transform="matrix(0,1.0000001,-1.0000001,0,562.94159,662.97792)" />
        <path
           sodipodi:type="spiral"
           style="fill:none;fill-rule:evenodd;stroke:#ff0000;stroke-width:15;stroke-linecap:butt;stroke-linejoin:miter;stroke-miterlimit:4;stroke-dasharray:none;stroke-opacity:1"
           id="path3167"
           sodipodi:cx="277.14285"
           sodipodi:cy="335.21933"
           sodipodi:expansion="1.88"
           sodipodi:revolution="3.3"
           sodipodi:radius="125.84409"
           sodipodi:argument="-17.967684"
           sodipodi:t0="0.34799999"
           d="M 272.97223,352.00727 C 260.87459,352.14494 252.45862,340.5743 252.83149,329.17967 C 253.3786,312.46067 269.47057,301.08055 285.37103,302.0986 C 307.39866,303.50895 322.1776,324.85007 320.33364,345.9492 C 317.88546,373.96189 290.58143,392.56599 263.60337,389.7196 C 228.93896,386.06224 206.09024,352.0934 210.11199,318.56687 C 215.14709,276.59275 256.47245,249.08581 297.20765,254.45282 C 347.14168,261.03181 379.71529,310.39641 372.83578,358.99229 C 364.54893,417.52936 306.47028,455.57354 249.36909,447.0166 C 210.88853,441.25007 177.40936,415.90408 160.03315,381.28507"
           transform="matrix(0,-1.0000001,1.0000001,0,-193.82055,963.88852)" />
      </g>
      <g
         style="opacity:0.5"
         transform="matrix(-0.9238795,0.3826834,-0.3826834,-0.9238795,1299.609,943.14148)"
         id="g3215">
        <path
           sodipodi:type="spiral"
           style="fill:none;fill-rule:evenodd;stroke:#ff6900;stroke-width:15;stroke-linecap:butt;stroke-linejoin:miter;stroke-miterlimit:4;stroke-dasharray:none;stroke-opacity:1"
           id="path3189"
           sodipodi:cx="277.14285"
           sodipodi:cy="335.21933"
           sodipodi:expansion="1.88"
           sodipodi:revolution="3.3"
           sodipodi:radius="125.84409"
           sodipodi:argument="-17.967684"
           sodipodi:t0="0.34799999"
           d="M 272.97223,352.00727 C 260.87459,352.14494 252.45862,340.5743 252.83149,329.17967 C 253.3786,312.46067 269.47057,301.08055 285.37103,302.0986 C 307.39866,303.50895 322.1776,324.85007 320.33364,345.9492 C 317.88546,373.96189 290.58143,392.56599 263.60337,389.7196 C 228.93896,386.06224 206.09024,352.0934 210.11199,318.56687 C 215.14709,276.59275 256.47245,249.08581 297.20765,254.45282 C 347.14168,261.03181 379.71529,310.39641 372.83578,358.99229 C 364.54893,417.52936 306.47028,455.57354 249.36909,447.0166 C 210.88853,441.25007 177.40936,415.90408 160.03315,381.28507"
           transform="matrix(0.7071068,0.7071068,-0.7071068,0.7071068,853.49187,404.49059)" />
        <path
           sodipodi:type="spiral"
           style="fill:none;fill-rule:evenodd;stroke:#fff500;stroke-width:15;stroke-linecap:butt;stroke-linejoin:miter;stroke-miterlimit:4;stroke-dasharray:none;stroke-opacity:1"
           id="path3191"
           sodipodi:cx="277.14285"
           sodipodi:cy="335.21933"
           sodipodi:expansion="1.88"
           sodipodi:revolution="3.3"
           sodipodi:radius="125.84409"
           sodipodi:argument="-17.967684"
           sodipodi:t0="0.34799999"
           d="M 272.97223,352.00727 C 260.87459,352.14494 252.45862,340.5743 252.83149,329.17967 C 253.3786,312.46067 269.47057,301.08055 285.37103,302.0986 C 307.39866,303.50895 322.1776,324.85007 320.33364,345.9492 C 317.88546,373.96189 290.58143,392.56599 263.60337,389.7196 C 228.93896,386.06224 206.09024,352.0934 210.11199,318.56687 C 215.14709,276.59275 256.47245,249.08581 297.20765,254.45282 C 347.14168,261.03181 379.71529,310.39641 372.83578,358.99229 C 364.54893,417.52936 306.47028,455.57354 249.36909,447.0166 C 210.88853,441.25007 177.40936,415.90408 160.03315,381.28507"
           transform="matrix(-0.7071068,-0.7071068,0.7071068,-0.7071068,540.67935,1170.9223)" />
        <path
           sodipodi:type="spiral"
           style="fill:none;fill-rule:evenodd;stroke:#ffaf00;stroke-width:15;stroke-linecap:butt;stroke-linejoin:miter;stroke-miterlimit:4;stroke-dasharray:none;stroke-opacity:1"
           id="path3193"
           sodipodi:cx="277.14285"
           sodipodi:cy="335.21933"
           sodipodi:expansion="1.88"
           sodipodi:revolution="3.3"
           sodipodi:radius="125.84409"
           sodipodi:argument="-17.967684"
           sodipodi:t0="0.34799999"
           d="M 272.97223,352.00727 C 260.87459,352.14494 252.45862,340.5743 252.83149,329.17967 C 253.3786,312.46067 269.47057,301.08055 285.37103,302.0986 C 307.39866,303.50895 322.1776,324.85007 320.33364,345.9492 C 317.88546,373.96189 290.58143,392.56599 263.60337,389.7196 C 228.93896,386.06224 206.09024,352.0934 210.11199,318.56687 C 215.14709,276.59275 256.47245,249.08581 297.20765,254.45282 C 347.14168,261.03181 379.71529,310.39641 372.83578,358.99229 C 364.54893,417.52936 306.47028,455.57354 249.36909,447.0166 C 210.88853,441.25007 177.40936,415.90408 160.03315,381.28507"
           transform="matrix(-0.7071068,0.7071068,-0.7071068,-0.7071068,1071.1961,948.98792)" />
        <path
           sodipodi:type="spiral"
           style="fill:none;fill-rule:evenodd;stroke:#ff2300;stroke-width:15;stroke-linecap:butt;stroke-linejoin:miter;stroke-miterlimit:4;stroke-dasharray:none;stroke-opacity:1"
           id="path3195"
           sodipodi:cx="277.14285"
           sodipodi:cy="335.21933"
           sodipodi:expansion="1.88"
           sodipodi:revolution="3.3"
           sodipodi:radius="125.84409"
           sodipodi:argument="-17.967684"
           sodipodi:t0="0.34799999"
           d="M 272.97223,352.00727 C 260.87459,352.14494 252.45862,340.5743 252.83149,329.17967 C 253.3786,312.46067 269.47057,301.08055 285.37103,302.0986 C 307.39866,303.50895 322.1776,324.85007 320.33364,345.9492 C 317.88546,373.96189 290.58143,392.56599 263.60337,389.7196 C 228.93896,386.06224 206.09024,352.0934 210.11199,318.56687 C 215.14709,276.59275 256.47245,249.08581 297.20765,254.45282 C 347.14168,261.03181 379.71529,310.39641 372.83578,358.99229 C 364.54893,417.52936 306.47028,455.57354 249.36909,447.0166 C 210.88853,441.25007 177.40936,415.90408 160.03315,381.28507"
           transform="matrix(0.7071068,-0.7071068,0.7071068,0.7071068,323.3085,626.65222)" />
        <path
           sodipodi:type="spiral"
           style="fill:none;fill-rule:evenodd;stroke:#ff4600;stroke-width:15;stroke-linecap:butt;stroke-linejoin:miter;stroke-miterlimit:4;stroke-dasharray:none;stroke-opacity:1"
           id="path3197"
           sodipodi:cx="277.14285"
           sodipodi:cy="335.21933"
           sodipodi:expansion="1.88"
           sodipodi:revolution="3.3"
           sodipodi:radius="125.84409"
           sodipodi:argument="-17.967684"
           sodipodi:t0="0.34799999"
           d="M 272.97223,352.00727 C 260.87459,352.14494 252.45862,340.5743 252.83149,329.17967 C 253.3786,312.46067 269.47057,301.08055 285.37103,302.0986 C 307.39866,303.50895 322.1776,324.85007 320.33364,345.9492 C 317.88546,373.96189 290.58143,392.56599 263.60337,389.7196 C 228.93896,386.06224 206.09024,352.0934 210.11199,318.56687 C 215.14709,276.59275 256.47245,249.08581 297.20765,254.45282 C 347.14168,261.03181 379.71529,310.39641 372.83578,358.99229 C 364.54893,417.52936 306.47028,455.57354 249.36909,447.0166 C 210.88853,441.25007 177.40936,415.90408 160.03315,381.28507"
           transform="translate(536.62666,406.16925)" />
        <path
           sodipodi:type="spiral"
           style="fill:none;fill-rule:evenodd;stroke:#ffd200;stroke-width:15;stroke-linecap:butt;stroke-linejoin:miter;stroke-miterlimit:4;stroke-dasharray:none;stroke-opacity:1"
           id="path3199"
           sodipodi:cx="277.14285"
           sodipodi:cy="335.21933"
           sodipodi:expansion="1.88"
           sodipodi:revolution="3.3"
           sodipodi:radius="125.84409"
           sodipodi:argument="-17.967684"
           sodipodi:t0="0.34799999"
           d="M 272.97223,352.00727 C 260.87459,352.14494 252.45862,340.5743 252.83149,329.17967 C 253.3786,312.46067 269.47057,301.08055 285.37103,302.0986 C 307.39866,303.50895 322.1776,324.85007 320.33364,345.9492 C 317.88546,373.96189 290.58143,392.56599 263.60337,389.7196 C 228.93896,386.06224 206.09024,352.0934 210.11199,318.56687 C 215.14709,276.59275 256.47245,249.08581 297.20765,254.45282 C 347.14168,261.03181 379.71529,310.39641 372.83578,358.99229 C 364.54893,417.52936 306.47028,455.57354 249.36909,447.0166 C 210.88853,441.25007 177.40936,415.90408 160.03315,381.28507"
           transform="matrix(-1.0000001,0,0,-1.0000001,857.3839,1169.3102)" />
        <path
           sodipodi:type="spiral"
           style="fill:none;fill-rule:evenodd;stroke:#ff8c00;stroke-width:15;stroke-linecap:butt;stroke-linejoin:miter;stroke-miterlimit:4;stroke-dasharray:none;stroke-opacity:1"
           id="path3201"
           sodipodi:cx="277.14285"
           sodipodi:cy="335.21933"
           sodipodi:expansion="1.88"
           sodipodi:revolution="3.3"
           sodipodi:radius="125.84409"
           sodipodi:argument="-17.967684"
           sodipodi:t0="0.34799999"
           d="M 272.97223,352.00727 C 260.87459,352.14494 252.45862,340.5743 252.83149,329.17967 C 253.3786,312.46067 269.47057,301.08055 285.37103,302.0986 C 307.39866,303.50895 322.1776,324.85007 320.33364,345.9492 C 317.88546,373.96189 290.58143,392.56599 263.60337,389.7196 C 228.93896,386.06224 206.09024,352.0934 210.11199,318.56687 C 215.14709,276.59275 256.47245,249.08581 297.20765,254.45282 C 347.14168,261.03181 379.71529,310.39641 372.83578,358.99229 C 364.54893,417.52936 306.47028,455.57354 249.36909,447.0166 C 210.88853,441.25007 177.40936,415.90408 160.03315,381.28507"
           transform="matrix(0,1.0000001,-1.0000001,0,1075.5845,637.24691)" />
        <path
           sodipodi:type="spiral"
           style="fill:none;fill-rule:evenodd;stroke:#ff0000;stroke-width:15;stroke-linecap:butt;stroke-linejoin:miter;stroke-miterlimit:4;stroke-dasharray:none;stroke-opacity:1"
           id="path3203"
           sodipodi:cx="277.14285"
           sodipodi:cy="335.21933"
           sodipodi:expansion="1.88"
           sodipodi:revolution="3.3"
           sodipodi:radius="125.84409"
           sodipodi:argument="-17.967684"
           sodipodi:t0="0.34799999"
           d="M 272.97223,352.00727 C 260.87459,352.14494 252.45862,340.5743 252.83149,329.17967 C 253.3786,312.46067 269.47057,301.08055 285.37103,302.0986 C 307.39866,303.50895 322.1776,324.85007 320.33364,345.9492 C 317.88546,373.96189 290.58143,392.56599 263.60337,389.7196 C 228.93896,386.06224 206.09024,352.0934 210.11199,318.56687 C 215.14709,276.59275 256.47245,249.08581 297.20765,254.45282 C 347.14168,261.03181 379.71529,310.39641 372.83578,358.99229 C 364.54893,417.52936 306.47028,455.57354 249.36909,447.0166 C 210.88853,441.25007 177.40936,415.90408 160.03315,381.28507"
           transform="matrix(0,-1.0000001,1.0000001,0,318.8224,938.15752)" />
      </g>
      <g
         transform="matrix(0.9753423,0.2206974,-0.2206974,0.9753423,-592.19521,-809.6577)"
         id="g3490">
        <g
           id="g3454"
           transform="translate(1023.732,237.59085)"
           style="opacity:0.5">
          <path
             transform="matrix(0.7071068,0.7071068,-0.7071068,0.7071068,340.84891,430.2216)"
             d="M 272.97223,352.00727 C 260.87459,352.14494 252.45862,340.5743 252.83149,329.17967 C 253.3786,312.46067 269.47057,301.08055 285.37103,302.0986 C 307.39866,303.50895 322.1776,324.85007 320.33364,345.9492 C 317.88546,373.96189 290.58143,392.56599 263.60337,389.7196 C 228.93896,386.06224 206.09024,352.0934 210.11199,318.56687 C 215.14709,276.59275 256.47245,249.08581 297.20765,254.45282 C 347.14168,261.03181 379.71529,310.39641 372.83578,358.99229 C 364.54893,417.52936 306.47028,455.57354 249.36909,447.0166 C 210.88853,441.25007 177.40936,415.90408 160.03315,381.28507"
             sodipodi:t0="0.34799999"
             sodipodi:argument="-17.967684"
             sodipodi:radius="125.84409"
             sodipodi:revolution="3.3"
             sodipodi:expansion="1.88"
             sodipodi:cy="335.21933"
             sodipodi:cx="277.14285"
             id="path3456"
             style="fill:none;fill-rule:evenodd;stroke:#ff6900;stroke-width:15;stroke-linecap:butt;stroke-linejoin:miter;stroke-miterlimit:4;stroke-dasharray:none;stroke-opacity:1"
             sodipodi:type="spiral" />
          <path
             transform="matrix(-0.7071068,-0.7071068,0.7071068,-0.7071068,28.036393,1196.6533)"
             d="M 272.97223,352.00727 C 260.87459,352.14494 252.45862,340.5743 252.83149,329.17967 C 253.3786,312.46067 269.47057,301.08055 285.37103,302.0986 C 307.39866,303.50895 322.1776,324.85007 320.33364,345.9492 C 317.88546,373.96189 290.58143,392.56599 263.60337,389.7196 C 228.93896,386.06224 206.09024,352.0934 210.11199,318.56687 C 215.14709,276.59275 256.47245,249.08581 297.20765,254.45282 C 347.14168,261.03181 379.71529,310.39641 372.83578,358.99229 C 364.54893,417.52936 306.47028,455.57354 249.36909,447.0166 C 210.88853,441.25007 177.40936,415.90408 160.03315,381.28507"
             sodipodi:t0="0.34799999"
             sodipodi:argument="-17.967684"
             sodipodi:radius="125.84409"
             sodipodi:revolution="3.3"
             sodipodi:expansion="1.88"
             sodipodi:cy="335.21933"
             sodipodi:cx="277.14285"
             id="path3458"
             style="fill:none;fill-rule:evenodd;stroke:#fff500;stroke-width:15;stroke-linecap:butt;stroke-linejoin:miter;stroke-miterlimit:4;stroke-dasharray:none;stroke-opacity:1"
             sodipodi:type="spiral" />
          <path
             transform="matrix(-0.7071068,0.7071068,-0.7071068,-0.7071068,558.5531,974.7189)"
             d="M 272.97223,352.00727 C 260.87459,352.14494 252.45862,340.5743 252.83149,329.17967 C 253.3786,312.46067 269.47057,301.08055 285.37103,302.0986 C 307.39866,303.50895 322.1776,324.85007 320.33364,345.9492 C 317.88546,373.96189 290.58143,392.56599 263.60337,389.7196 C 228.93896,386.06224 206.09024,352.0934 210.11199,318.56687 C 215.14709,276.59275 256.47245,249.08581 297.20765,254.45282 C 347.14168,261.03181 379.71529,310.39641 372.83578,358.99229 C 364.54893,417.52936 306.47028,455.57354 249.36909,447.0166 C 210.88853,441.25007 177.40936,415.90408 160.03315,381.28507"
             sodipodi:t0="0.34799999"
             sodipodi:argument="-17.967684"
             sodipodi:radius="125.84409"
             sodipodi:revolution="3.3"
             sodipodi:expansion="1.88"
             sodipodi:cy="335.21933"
             sodipodi:cx="277.14285"
             id="path3460"
             style="fill:none;fill-rule:evenodd;stroke:#ffaf00;stroke-width:15;stroke-linecap:butt;stroke-linejoin:miter;stroke-miterlimit:4;stroke-dasharray:none;stroke-opacity:1"
             sodipodi:type="spiral" />
          <path
             transform="matrix(0.7071068,-0.7071068,0.7071068,0.7071068,-189.33445,652.38323)"
             d="M 272.97223,352.00727 C 260.87459,352.14494 252.45862,340.5743 252.83149,329.17967 C 253.3786,312.46067 269.47057,301.08055 285.37103,302.0986 C 307.39866,303.50895 322.1776,324.85007 320.33364,345.9492 C 317.88546,373.96189 290.58143,392.56599 263.60337,389.7196 C 228.93896,386.06224 206.09024,352.0934 210.11199,318.56687 C 215.14709,276.59275 256.47245,249.08581 297.20765,254.45282 C 347.14168,261.03181 379.71529,310.39641 372.83578,358.99229 C 364.54893,417.52936 306.47028,455.57354 249.36909,447.0166 C 210.88853,441.25007 177.40936,415.90408 160.03315,381.28507"
             sodipodi:t0="0.34799999"
             sodipodi:argument="-17.967684"
             sodipodi:radius="125.84409"
             sodipodi:revolution="3.3"
             sodipodi:expansion="1.88"
             sodipodi:cy="335.21933"
             sodipodi:cx="277.14285"
             id="path3462"
             style="fill:none;fill-rule:evenodd;stroke:#ff2300;stroke-width:15;stroke-linecap:butt;stroke-linejoin:miter;stroke-miterlimit:4;stroke-dasharray:none;stroke-opacity:1"
             sodipodi:type="spiral" />
          <path
             transform="translate(23.983708,431.90026)"
             d="M 272.97223,352.00727 C 260.87459,352.14494 252.45862,340.5743 252.83149,329.17967 C 253.3786,312.46067 269.47057,301.08055 285.37103,302.0986 C 307.39866,303.50895 322.1776,324.85007 320.33364,345.9492 C 317.88546,373.96189 290.58143,392.56599 263.60337,389.7196 C 228.93896,386.06224 206.09024,352.0934 210.11199,318.56687 C 215.14709,276.59275 256.47245,249.08581 297.20765,254.45282 C 347.14168,261.03181 379.71529,310.39641 372.83578,358.99229 C 364.54893,417.52936 306.47028,455.57354 249.36909,447.0166 C 210.88853,441.25007 177.40936,415.90408 160.03315,381.28507"
             sodipodi:t0="0.34799999"
             sodipodi:argument="-17.967684"
             sodipodi:radius="125.84409"
             sodipodi:revolution="3.3"
             sodipodi:expansion="1.88"
             sodipodi:cy="335.21933"
             sodipodi:cx="277.14285"
             id="path3464"
             style="fill:none;fill-rule:evenodd;stroke:#ff4600;stroke-width:15;stroke-linecap:butt;stroke-linejoin:miter;stroke-miterlimit:4;stroke-dasharray:none;stroke-opacity:1"
             sodipodi:type="spiral" />
          <path
             transform="matrix(-1.0000001,0,0,-1.0000001,344.74094,1195.0412)"
             d="M 272.97223,352.00727 C 260.87459,352.14494 252.45862,340.5743 252.83149,329.17967 C 253.3786,312.46067 269.47057,301.08055 285.37103,302.0986 C 307.39866,303.50895 322.1776,324.85007 320.33364,345.9492 C 317.88546,373.96189 290.58143,392.56599 263.60337,389.7196 C 228.93896,386.06224 206.09024,352.0934 210.11199,318.56687 C 215.14709,276.59275 256.47245,249.08581 297.20765,254.45282 C 347.14168,261.03181 379.71529,310.39641 372.83578,358.99229 C 364.54893,417.52936 306.47028,455.57354 249.36909,447.0166 C 210.88853,441.25007 177.40936,415.90408 160.03315,381.28507"
             sodipodi:t0="0.34799999"
             sodipodi:argument="-17.967684"
             sodipodi:radius="125.84409"
             sodipodi:revolution="3.3"
             sodipodi:expansion="1.88"
             sodipodi:cy="335.21933"
             sodipodi:cx="277.14285"
             id="path3466"
             style="fill:none;fill-rule:evenodd;stroke:#ffd200;stroke-width:15;stroke-linecap:butt;stroke-linejoin:miter;stroke-miterlimit:4;stroke-dasharray:none;stroke-opacity:1"
             sodipodi:type="spiral" />
          <path
             transform="matrix(0,1.0000001,-1.0000001,0,562.94159,662.97792)"
             d="M 272.97223,352.00727 C 260.87459,352.14494 252.45862,340.5743 252.83149,329.17967 C 253.3786,312.46067 269.47057,301.08055 285.37103,302.0986 C 307.39866,303.50895 322.1776,324.85007 320.33364,345.9492 C 317.88546,373.96189 290.58143,392.56599 263.60337,389.7196 C 228.93896,386.06224 206.09024,352.0934 210.11199,318.56687 C 215.14709,276.59275 256.47245,249.08581 297.20765,254.45282 C 347.14168,261.03181 379.71529,310.39641 372.83578,358.99229 C 364.54893,417.52936 306.47028,455.57354 249.36909,447.0166 C 210.88853,441.25007 177.40936,415.90408 160.03315,381.28507"
             sodipodi:t0="0.34799999"
             sodipodi:argument="-17.967684"
             sodipodi:radius="125.84409"
             sodipodi:revolution="3.3"
             sodipodi:expansion="1.88"
             sodipodi:cy="335.21933"
             sodipodi:cx="277.14285"
             id="path3468"
             style="fill:none;fill-rule:evenodd;stroke:#ff8c00;stroke-width:15;stroke-linecap:butt;stroke-linejoin:miter;stroke-miterlimit:4;stroke-dasharray:none;stroke-opacity:1"
             sodipodi:type="spiral" />
          <path
             transform="matrix(0,-1.0000001,1.0000001,0,-193.82055,963.88852)"
             d="M 272.97223,352.00727 C 260.87459,352.14494 252.45862,340.5743 252.83149,329.17967 C 253.3786,312.46067 269.47057,301.08055 285.37103,302.0986 C 307.39866,303.50895 322.1776,324.85007 320.33364,345.9492 C 317.88546,373.96189 290.58143,392.56599 263.60337,389.7196 C 228.93896,386.06224 206.09024,352.0934 210.11199,318.56687 C 215.14709,276.59275 256.47245,249.08581 297.20765,254.45282 C 347.14168,261.03181 379.71529,310.39641 372.83578,358.99229 C 364.54893,417.52936 306.47028,455.57354 249.36909,447.0166 C 210.88853,441.25007 177.40936,415.90408 160.03315,381.28507"
             sodipodi:t0="0.34799999"
             sodipodi:argument="-17.967684"
             sodipodi:radius="125.84409"
             sodipodi:revolution="3.3"
             sodipodi:expansion="1.88"
             sodipodi:cy="335.21933"
             sodipodi:cx="277.14285"
             id="path3470"
             style="fill:none;fill-rule:evenodd;stroke:#ff0000;stroke-width:15;stroke-linecap:butt;stroke-linejoin:miter;stroke-miterlimit:4;stroke-dasharray:none;stroke-opacity:1"
             sodipodi:type="spiral" />
        </g>
        <g
           id="g3472"
           transform="matrix(-0.9238795,0.3826834,-0.3826834,-0.9238795,2153.5596,1512.048)"
           style="opacity:0.5">
          <path
             transform="matrix(0.7071068,0.7071068,-0.7071068,0.7071068,853.49187,404.49059)"
             d="M 272.97223,352.00727 C 260.87459,352.14494 252.45862,340.5743 252.83149,329.17967 C 253.3786,312.46067 269.47057,301.08055 285.37103,302.0986 C 307.39866,303.50895 322.1776,324.85007 320.33364,345.9492 C 317.88546,373.96189 290.58143,392.56599 263.60337,389.7196 C 228.93896,386.06224 206.09024,352.0934 210.11199,318.56687 C 215.14709,276.59275 256.47245,249.08581 297.20765,254.45282 C 347.14168,261.03181 379.71529,310.39641 372.83578,358.99229 C 364.54893,417.52936 306.47028,455.57354 249.36909,447.0166 C 210.88853,441.25007 177.40936,415.90408 160.03315,381.28507"
             sodipodi:t0="0.34799999"
             sodipodi:argument="-17.967684"
             sodipodi:radius="125.84409"
             sodipodi:revolution="3.3"
             sodipodi:expansion="1.88"
             sodipodi:cy="335.21933"
             sodipodi:cx="277.14285"
             id="path3474"
             style="fill:none;fill-rule:evenodd;stroke:#ff6900;stroke-width:15;stroke-linecap:butt;stroke-linejoin:miter;stroke-miterlimit:4;stroke-dasharray:none;stroke-opacity:1"
             sodipodi:type="spiral" />
          <path
             transform="matrix(-0.7071068,-0.7071068,0.7071068,-0.7071068,540.67935,1170.9223)"
             d="M 272.97223,352.00727 C 260.87459,352.14494 252.45862,340.5743 252.83149,329.17967 C 253.3786,312.46067 269.47057,301.08055 285.37103,302.0986 C 307.39866,303.50895 322.1776,324.85007 320.33364,345.9492 C 317.88546,373.96189 290.58143,392.56599 263.60337,389.7196 C 228.93896,386.06224 206.09024,352.0934 210.11199,318.56687 C 215.14709,276.59275 256.47245,249.08581 297.20765,254.45282 C 347.14168,261.03181 379.71529,310.39641 372.83578,358.99229 C 364.54893,417.52936 306.47028,455.57354 249.36909,447.0166 C 210.88853,441.25007 177.40936,415.90408 160.03315,381.28507"
             sodipodi:t0="0.34799999"
             sodipodi:argument="-17.967684"
             sodipodi:radius="125.84409"
             sodipodi:revolution="3.3"
             sodipodi:expansion="1.88"
             sodipodi:cy="335.21933"
             sodipodi:cx="277.14285"
             id="path3476"
             style="fill:none;fill-rule:evenodd;stroke:#fff500;stroke-width:15;stroke-linecap:butt;stroke-linejoin:miter;stroke-miterlimit:4;stroke-dasharray:none;stroke-opacity:1"
             sodipodi:type="spiral" />
          <path
             transform="matrix(-0.7071068,0.7071068,-0.7071068,-0.7071068,1071.1961,948.98792)"
             d="M 272.97223,352.00727 C 260.87459,352.14494 252.45862,340.5743 252.83149,329.17967 C 253.3786,312.46067 269.47057,301.08055 285.37103,302.0986 C 307.39866,303.50895 322.1776,324.85007 320.33364,345.9492 C 317.88546,373.96189 290.58143,392.56599 263.60337,389.7196 C 228.93896,386.06224 206.09024,352.0934 210.11199,318.56687 C 215.14709,276.59275 256.47245,249.08581 297.20765,254.45282 C 347.14168,261.03181 379.71529,310.39641 372.83578,358.99229 C 364.54893,417.52936 306.47028,455.57354 249.36909,447.0166 C 210.88853,441.25007 177.40936,415.90408 160.03315,381.28507"
             sodipodi:t0="0.34799999"
             sodipodi:argument="-17.967684"
             sodipodi:radius="125.84409"
             sodipodi:revolution="3.3"
             sodipodi:expansion="1.88"
             sodipodi:cy="335.21933"
             sodipodi:cx="277.14285"
             id="path3478"
             style="fill:none;fill-rule:evenodd;stroke:#ffaf00;stroke-width:15;stroke-linecap:butt;stroke-linejoin:miter;stroke-miterlimit:4;stroke-dasharray:none;stroke-opacity:1"
             sodipodi:type="spiral" />
          <path
             transform="matrix(0.7071068,-0.7071068,0.7071068,0.7071068,323.3085,626.65222)"
             d="M 272.97223,352.00727 C 260.87459,352.14494 252.45862,340.5743 252.83149,329.17967 C 253.3786,312.46067 269.47057,301.08055 285.37103,302.0986 C 307.39866,303.50895 322.1776,324.85007 320.33364,345.9492 C 317.88546,373.96189 290.58143,392.56599 263.60337,389.7196 C 228.93896,386.06224 206.09024,352.0934 210.11199,318.56687 C 215.14709,276.59275 256.47245,249.08581 297.20765,254.45282 C 347.14168,261.03181 379.71529,310.39641 372.83578,358.99229 C 364.54893,417.52936 306.47028,455.57354 249.36909,447.0166 C 210.88853,441.25007 177.40936,415.90408 160.03315,381.28507"
             sodipodi:t0="0.34799999"
             sodipodi:argument="-17.967684"
             sodipodi:radius="125.84409"
             sodipodi:revolution="3.3"
             sodipodi:expansion="1.88"
             sodipodi:cy="335.21933"
             sodipodi:cx="277.14285"
             id="path3480"
             style="fill:none;fill-rule:evenodd;stroke:#ff2300;stroke-width:15;stroke-linecap:butt;stroke-linejoin:miter;stroke-miterlimit:4;stroke-dasharray:none;stroke-opacity:1"
             sodipodi:type="spiral" />
          <path
             transform="translate(536.62666,406.16925)"
             d="M 272.97223,352.00727 C 260.87459,352.14494 252.45862,340.5743 252.83149,329.17967 C 253.3786,312.46067 269.47057,301.08055 285.37103,302.0986 C 307.39866,303.50895 322.1776,324.85007 320.33364,345.9492 C 317.88546,373.96189 290.58143,392.56599 263.60337,389.7196 C 228.93896,386.06224 206.09024,352.0934 210.11199,318.56687 C 215.14709,276.59275 256.47245,249.08581 297.20765,254.45282 C 347.14168,261.03181 379.71529,310.39641 372.83578,358.99229 C 364.54893,417.52936 306.47028,455.57354 249.36909,447.0166 C 210.88853,441.25007 177.40936,415.90408 160.03315,381.28507"
             sodipodi:t0="0.34799999"
             sodipodi:argument="-17.967684"
             sodipodi:radius="125.84409"
             sodipodi:revolution="3.3"
             sodipodi:expansion="1.88"
             sodipodi:cy="335.21933"
             sodipodi:cx="277.14285"
             id="path3482"
             style="fill:none;fill-rule:evenodd;stroke:#ff4600;stroke-width:15;stroke-linecap:butt;stroke-linejoin:miter;stroke-miterlimit:4;stroke-dasharray:none;stroke-opacity:1"
             sodipodi:type="spiral" />
          <path
             transform="matrix(-1.0000001,0,0,-1.0000001,857.3839,1169.3102)"
             d="M 272.97223,352.00727 C 260.87459,352.14494 252.45862,340.5743 252.83149,329.17967 C 253.3786,312.46067 269.47057,301.08055 285.37103,302.0986 C 307.39866,303.50895 322.1776,324.85007 320.33364,345.9492 C 317.88546,373.96189 290.58143,392.56599 263.60337,389.7196 C 228.93896,386.06224 206.09024,352.0934 210.11199,318.56687 C 215.14709,276.59275 256.47245,249.08581 297.20765,254.45282 C 347.14168,261.03181 379.71529,310.39641 372.83578,358.99229 C 364.54893,417.52936 306.47028,455.57354 249.36909,447.0166 C 210.88853,441.25007 177.40936,415.90408 160.03315,381.28507"
             sodipodi:t0="0.34799999"
             sodipodi:argument="-17.967684"
             sodipodi:radius="125.84409"
             sodipodi:revolution="3.3"
             sodipodi:expansion="1.88"
             sodipodi:cy="335.21933"
             sodipodi:cx="277.14285"
             id="path3484"
             style="fill:none;fill-rule:evenodd;stroke:#ffd200;stroke-width:15;stroke-linecap:butt;stroke-linejoin:miter;stroke-miterlimit:4;stroke-dasharray:none;stroke-opacity:1"
             sodipodi:type="spiral" />
          <path
             transform="matrix(0,1.0000001,-1.0000001,0,1075.5845,637.24691)"
             d="M 272.97223,352.00727 C 260.87459,352.14494 252.45862,340.5743 252.83149,329.17967 C 253.3786,312.46067 269.47057,301.08055 285.37103,302.0986 C 307.39866,303.50895 322.1776,324.85007 320.33364,345.9492 C 317.88546,373.96189 290.58143,392.56599 263.60337,389.7196 C 228.93896,386.06224 206.09024,352.0934 210.11199,318.56687 C 215.14709,276.59275 256.47245,249.08581 297.20765,254.45282 C 347.14168,261.03181 379.71529,310.39641 372.83578,358.99229 C 364.54893,417.52936 306.47028,455.57354 249.36909,447.0166 C 210.88853,441.25007 177.40936,415.90408 160.03315,381.28507"
             sodipodi:t0="0.34799999"
             sodipodi:argument="-17.967684"
             sodipodi:radius="125.84409"
             sodipodi:revolution="3.3"
             sodipodi:expansion="1.88"
             sodipodi:cy="335.21933"
             sodipodi:cx="277.14285"
             id="path3486"
             style="fill:none;fill-rule:evenodd;stroke:#ff8c00;stroke-width:15;stroke-linecap:butt;stroke-linejoin:miter;stroke-miterlimit:4;stroke-dasharray:none;stroke-opacity:1"
             sodipodi:type="spiral" />
          <path
             transform="matrix(0,-1.0000001,1.0000001,0,318.8224,938.15752)"
             d="M 272.97223,352.00727 C 260.87459,352.14494 252.45862,340.5743 252.83149,329.17967 C 253.3786,312.46067 269.47057,301.08055 285.37103,302.0986 C 307.39866,303.50895 322.1776,324.85007 320.33364,345.9492 C 317.88546,373.96189 290.58143,392.56599 263.60337,389.7196 C 228.93896,386.06224 206.09024,352.0934 210.11199,318.56687 C 215.14709,276.59275 256.47245,249.08581 297.20765,254.45282 C 347.14168,261.03181 379.71529,310.39641 372.83578,358.99229 C 364.54893,417.52936 306.47028,455.57354 249.36909,447.0166 C 210.88853,441.25007 177.40936,415.90408 160.03315,381.28507"
             sodipodi:t0="0.34799999"
             sodipodi:argument="-17.967684"
             sodipodi:radius="125.84409"
             sodipodi:revolution="3.3"
             sodipodi:expansion="1.88"
             sodipodi:cy="335.21933"
             sodipodi:cx="277.14285"
             id="path3488"
             style="fill:none;fill-rule:evenodd;stroke:#ff0000;stroke-width:15;stroke-linecap:butt;stroke-linejoin:miter;stroke-miterlimit:4;stroke-dasharray:none;stroke-opacity:1"
             sodipodi:type="spiral" />
        </g>
      </g>
      <g
         transform="translate(-853.9506,-568.90652)"
         id="g3510">
        <g
           id="g3512"
           transform="translate(1023.732,237.59085)"
           style="opacity:0.5">
          <path
             transform="matrix(0.7071068,0.7071068,-0.7071068,0.7071068,340.84891,430.2216)"
             d="M 272.97223,352.00727 C 260.87459,352.14494 252.45862,340.5743 252.83149,329.17967 C 253.3786,312.46067 269.47057,301.08055 285.37103,302.0986 C 307.39866,303.50895 322.1776,324.85007 320.33364,345.9492 C 317.88546,373.96189 290.58143,392.56599 263.60337,389.7196 C 228.93896,386.06224 206.09024,352.0934 210.11199,318.56687 C 215.14709,276.59275 256.47245,249.08581 297.20765,254.45282 C 347.14168,261.03181 379.71529,310.39641 372.83578,358.99229 C 364.54893,417.52936 306.47028,455.57354 249.36909,447.0166 C 210.88853,441.25007 177.40936,415.90408 160.03315,381.28507"
             sodipodi:t0="0.34799999"
             sodipodi:argument="-17.967684"
             sodipodi:radius="125.84409"
             sodipodi:revolution="3.3"
             sodipodi:expansion="1.88"
             sodipodi:cy="335.21933"
             sodipodi:cx="277.14285"
             id="path3514"
             style="fill:none;fill-rule:evenodd;stroke:#ff6900;stroke-width:15;stroke-linecap:butt;stroke-linejoin:miter;stroke-miterlimit:4;stroke-dasharray:none;stroke-opacity:1"
             sodipodi:type="spiral" />
          <path
             transform="matrix(-0.7071068,-0.7071068,0.7071068,-0.7071068,28.036393,1196.6533)"
             d="M 272.97223,352.00727 C 260.87459,352.14494 252.45862,340.5743 252.83149,329.17967 C 253.3786,312.46067 269.47057,301.08055 285.37103,302.0986 C 307.39866,303.50895 322.1776,324.85007 320.33364,345.9492 C 317.88546,373.96189 290.58143,392.56599 263.60337,389.7196 C 228.93896,386.06224 206.09024,352.0934 210.11199,318.56687 C 215.14709,276.59275 256.47245,249.08581 297.20765,254.45282 C 347.14168,261.03181 379.71529,310.39641 372.83578,358.99229 C 364.54893,417.52936 306.47028,455.57354 249.36909,447.0166 C 210.88853,441.25007 177.40936,415.90408 160.03315,381.28507"
             sodipodi:t0="0.34799999"
             sodipodi:argument="-17.967684"
             sodipodi:radius="125.84409"
             sodipodi:revolution="3.3"
             sodipodi:expansion="1.88"
             sodipodi:cy="335.21933"
             sodipodi:cx="277.14285"
             id="path3516"
             style="fill:none;fill-rule:evenodd;stroke:#fff500;stroke-width:15;stroke-linecap:butt;stroke-linejoin:miter;stroke-miterlimit:4;stroke-dasharray:none;stroke-opacity:1"
             sodipodi:type="spiral" />
          <path
             transform="matrix(-0.7071068,0.7071068,-0.7071068,-0.7071068,558.5531,974.7189)"
             d="M 272.97223,352.00727 C 260.87459,352.14494 252.45862,340.5743 252.83149,329.17967 C 253.3786,312.46067 269.47057,301.08055 285.37103,302.0986 C 307.39866,303.50895 322.1776,324.85007 320.33364,345.9492 C 317.88546,373.96189 290.58143,392.56599 263.60337,389.7196 C 228.93896,386.06224 206.09024,352.0934 210.11199,318.56687 C 215.14709,276.59275 256.47245,249.08581 297.20765,254.45282 C 347.14168,261.03181 379.71529,310.39641 372.83578,358.99229 C 364.54893,417.52936 306.47028,455.57354 249.36909,447.0166 C 210.88853,441.25007 177.40936,415.90408 160.03315,381.28507"
             sodipodi:t0="0.34799999"
             sodipodi:argument="-17.967684"
             sodipodi:radius="125.84409"
             sodipodi:revolution="3.3"
             sodipodi:expansion="1.88"
             sodipodi:cy="335.21933"
             sodipodi:cx="277.14285"
             id="path3518"
             style="fill:none;fill-rule:evenodd;stroke:#ffaf00;stroke-width:15;stroke-linecap:butt;stroke-linejoin:miter;stroke-miterlimit:4;stroke-dasharray:none;stroke-opacity:1"
             sodipodi:type="spiral" />
          <path
             transform="matrix(0.7071068,-0.7071068,0.7071068,0.7071068,-189.33445,652.38323)"
             d="M 272.97223,352.00727 C 260.87459,352.14494 252.45862,340.5743 252.83149,329.17967 C 253.3786,312.46067 269.47057,301.08055 285.37103,302.0986 C 307.39866,303.50895 322.1776,324.85007 320.33364,345.9492 C 317.88546,373.96189 290.58143,392.56599 263.60337,389.7196 C 228.93896,386.06224 206.09024,352.0934 210.11199,318.56687 C 215.14709,276.59275 256.47245,249.08581 297.20765,254.45282 C 347.14168,261.03181 379.71529,310.39641 372.83578,358.99229 C 364.54893,417.52936 306.47028,455.57354 249.36909,447.0166 C 210.88853,441.25007 177.40936,415.90408 160.03315,381.28507"
             sodipodi:t0="0.34799999"
             sodipodi:argument="-17.967684"
             sodipodi:radius="125.84409"
             sodipodi:revolution="3.3"
             sodipodi:expansion="1.88"
             sodipodi:cy="335.21933"
             sodipodi:cx="277.14285"
             id="path3520"
             style="fill:none;fill-rule:evenodd;stroke:#ff2300;stroke-width:15;stroke-linecap:butt;stroke-linejoin:miter;stroke-miterlimit:4;stroke-dasharray:none;stroke-opacity:1"
             sodipodi:type="spiral" />
          <path
             transform="translate(23.983708,431.90026)"
             d="M 272.97223,352.00727 C 260.87459,352.14494 252.45862,340.5743 252.83149,329.17967 C 253.3786,312.46067 269.47057,301.08055 285.37103,302.0986 C 307.39866,303.50895 322.1776,324.85007 320.33364,345.9492 C 317.88546,373.96189 290.58143,392.56599 263.60337,389.7196 C 228.93896,386.06224 206.09024,352.0934 210.11199,318.56687 C 215.14709,276.59275 256.47245,249.08581 297.20765,254.45282 C 347.14168,261.03181 379.71529,310.39641 372.83578,358.99229 C 364.54893,417.52936 306.47028,455.57354 249.36909,447.0166 C 210.88853,441.25007 177.40936,415.90408 160.03315,381.28507"
             sodipodi:t0="0.34799999"
             sodipodi:argument="-17.967684"
             sodipodi:radius="125.84409"
             sodipodi:revolution="3.3"
             sodipodi:expansion="1.88"
             sodipodi:cy="335.21933"
             sodipodi:cx="277.14285"
             id="path3522"
             style="fill:none;fill-rule:evenodd;stroke:#ff4600;stroke-width:15;stroke-linecap:butt;stroke-linejoin:miter;stroke-miterlimit:4;stroke-dasharray:none;stroke-opacity:1"
             sodipodi:type="spiral" />
          <path
             transform="matrix(-1.0000001,0,0,-1.0000001,344.74094,1195.0412)"
             d="M 272.97223,352.00727 C 260.87459,352.14494 252.45862,340.5743 252.83149,329.17967 C 253.3786,312.46067 269.47057,301.08055 285.37103,302.0986 C 307.39866,303.50895 322.1776,324.85007 320.33364,345.9492 C 317.88546,373.96189 290.58143,392.56599 263.60337,389.7196 C 228.93896,386.06224 206.09024,352.0934 210.11199,318.56687 C 215.14709,276.59275 256.47245,249.08581 297.20765,254.45282 C 347.14168,261.03181 379.71529,310.39641 372.83578,358.99229 C 364.54893,417.52936 306.47028,455.57354 249.36909,447.0166 C 210.88853,441.25007 177.40936,415.90408 160.03315,381.28507"
             sodipodi:t0="0.34799999"
             sodipodi:argument="-17.967684"
             sodipodi:radius="125.84409"
             sodipodi:revolution="3.3"
             sodipodi:expansion="1.88"
             sodipodi:cy="335.21933"
             sodipodi:cx="277.14285"
             id="path3524"
             style="fill:none;fill-rule:evenodd;stroke:#ffd200;stroke-width:15;stroke-linecap:butt;stroke-linejoin:miter;stroke-miterlimit:4;stroke-dasharray:none;stroke-opacity:1"
             sodipodi:type="spiral" />
          <path
             transform="matrix(0,1.0000001,-1.0000001,0,562.94159,662.97792)"
             d="M 272.97223,352.00727 C 260.87459,352.14494 252.45862,340.5743 252.83149,329.17967 C 253.3786,312.46067 269.47057,301.08055 285.37103,302.0986 C 307.39866,303.50895 322.1776,324.85007 320.33364,345.9492 C 317.88546,373.96189 290.58143,392.56599 263.60337,389.7196 C 228.93896,386.06224 206.09024,352.0934 210.11199,318.56687 C 215.14709,276.59275 256.47245,249.08581 297.20765,254.45282 C 347.14168,261.03181 379.71529,310.39641 372.83578,358.99229 C 364.54893,417.52936 306.47028,455.57354 249.36909,447.0166 C 210.88853,441.25007 177.40936,415.90408 160.03315,381.28507"
             sodipodi:t0="0.34799999"
             sodipodi:argument="-17.967684"
             sodipodi:radius="125.84409"
             sodipodi:revolution="3.3"
             sodipodi:expansion="1.88"
             sodipodi:cy="335.21933"
             sodipodi:cx="277.14285"
             id="path3526"
             style="fill:none;fill-rule:evenodd;stroke:#ff8c00;stroke-width:15;stroke-linecap:butt;stroke-linejoin:miter;stroke-miterlimit:4;stroke-dasharray:none;stroke-opacity:1"
             sodipodi:type="spiral" />
          <path
             transform="matrix(0,-1.0000001,1.0000001,0,-193.82055,963.88852)"
             d="M 272.97223,352.00727 C 260.87459,352.14494 252.45862,340.5743 252.83149,329.17967 C 253.3786,312.46067 269.47057,301.08055 285.37103,302.0986 C 307.39866,303.50895 322.1776,324.85007 320.33364,345.9492 C 317.88546,373.96189 290.58143,392.56599 263.60337,389.7196 C 228.93896,386.06224 206.09024,352.0934 210.11199,318.56687 C 215.14709,276.59275 256.47245,249.08581 297.20765,254.45282 C 347.14168,261.03181 379.71529,310.39641 372.83578,358.99229 C 364.54893,417.52936 306.47028,455.57354 249.36909,447.0166 C 210.88853,441.25007 177.40936,415.90408 160.03315,381.28507"
             sodipodi:t0="0.34799999"
             sodipodi:argument="-17.967684"
             sodipodi:radius="125.84409"
             sodipodi:revolution="3.3"
             sodipodi:expansion="1.88"
             sodipodi:cy="335.21933"
             sodipodi:cx="277.14285"
             id="path3528"
             style="fill:none;fill-rule:evenodd;stroke:#ff0000;stroke-width:15;stroke-linecap:butt;stroke-linejoin:miter;stroke-miterlimit:4;stroke-dasharray:none;stroke-opacity:1"
             sodipodi:type="spiral" />
        </g>
        <g
           id="g3530"
           transform="matrix(-0.9238795,0.3826834,-0.3826834,-0.9238795,2153.5596,1512.048)"
           style="opacity:0.5">
          <path
             transform="matrix(0.7071068,0.7071068,-0.7071068,0.7071068,853.49187,404.49059)"
             d="M 272.97223,352.00727 C 260.87459,352.14494 252.45862,340.5743 252.83149,329.17967 C 253.3786,312.46067 269.47057,301.08055 285.37103,302.0986 C 307.39866,303.50895 322.1776,324.85007 320.33364,345.9492 C 317.88546,373.96189 290.58143,392.56599 263.60337,389.7196 C 228.93896,386.06224 206.09024,352.0934 210.11199,318.56687 C 215.14709,276.59275 256.47245,249.08581 297.20765,254.45282 C 347.14168,261.03181 379.71529,310.39641 372.83578,358.99229 C 364.54893,417.52936 306.47028,455.57354 249.36909,447.0166 C 210.88853,441.25007 177.40936,415.90408 160.03315,381.28507"
             sodipodi:t0="0.34799999"
             sodipodi:argument="-17.967684"
             sodipodi:radius="125.84409"
             sodipodi:revolution="3.3"
             sodipodi:expansion="1.88"
             sodipodi:cy="335.21933"
             sodipodi:cx="277.14285"
             id="path3532"
             style="fill:none;fill-rule:evenodd;stroke:#ff6900;stroke-width:15;stroke-linecap:butt;stroke-linejoin:miter;stroke-miterlimit:4;stroke-dasharray:none;stroke-opacity:1"
             sodipodi:type="spiral" />
          <path
             transform="matrix(-0.7071068,-0.7071068,0.7071068,-0.7071068,540.67935,1170.9223)"
             d="M 272.97223,352.00727 C 260.87459,352.14494 252.45862,340.5743 252.83149,329.17967 C 253.3786,312.46067 269.47057,301.08055 285.37103,302.0986 C 307.39866,303.50895 322.1776,324.85007 320.33364,345.9492 C 317.88546,373.96189 290.58143,392.56599 263.60337,389.7196 C 228.93896,386.06224 206.09024,352.0934 210.11199,318.56687 C 215.14709,276.59275 256.47245,249.08581 297.20765,254.45282 C 347.14168,261.03181 379.71529,310.39641 372.83578,358.99229 C 364.54893,417.52936 306.47028,455.57354 249.36909,447.0166 C 210.88853,441.25007 177.40936,415.90408 160.03315,381.28507"
             sodipodi:t0="0.34799999"
             sodipodi:argument="-17.967684"
             sodipodi:radius="125.84409"
             sodipodi:revolution="3.3"
             sodipodi:expansion="1.88"
             sodipodi:cy="335.21933"
             sodipodi:cx="277.14285"
             id="path3534"
             style="fill:none;fill-rule:evenodd;stroke:#fff500;stroke-width:15;stroke-linecap:butt;stroke-linejoin:miter;stroke-miterlimit:4;stroke-dasharray:none;stroke-opacity:1"
             sodipodi:type="spiral" />
          <path
             transform="matrix(-0.7071068,0.7071068,-0.7071068,-0.7071068,1071.1961,948.98792)"
             d="M 272.97223,352.00727 C 260.87459,352.14494 252.45862,340.5743 252.83149,329.17967 C 253.3786,312.46067 269.47057,301.08055 285.37103,302.0986 C 307.39866,303.50895 322.1776,324.85007 320.33364,345.9492 C 317.88546,373.96189 290.58143,392.56599 263.60337,389.7196 C 228.93896,386.06224 206.09024,352.0934 210.11199,318.56687 C 215.14709,276.59275 256.47245,249.08581 297.20765,254.45282 C 347.14168,261.03181 379.71529,310.39641 372.83578,358.99229 C 364.54893,417.52936 306.47028,455.57354 249.36909,447.0166 C 210.88853,441.25007 177.40936,415.90408 160.03315,381.28507"
             sodipodi:t0="0.34799999"
             sodipodi:argument="-17.967684"
             sodipodi:radius="125.84409"
             sodipodi:revolution="3.3"
             sodipodi:expansion="1.88"
             sodipodi:cy="335.21933"
             sodipodi:cx="277.14285"
             id="path3536"
             style="fill:none;fill-rule:evenodd;stroke:#ffaf00;stroke-width:15;stroke-linecap:butt;stroke-linejoin:miter;stroke-miterlimit:4;stroke-dasharray:none;stroke-opacity:1"
             sodipodi:type="spiral" />
          <path
             transform="matrix(0.7071068,-0.7071068,0.7071068,0.7071068,323.3085,626.65222)"
             d="M 272.97223,352.00727 C 260.87459,352.14494 252.45862,340.5743 252.83149,329.17967 C 253.3786,312.46067 269.47057,301.08055 285.37103,302.0986 C 307.39866,303.50895 322.1776,324.85007 320.33364,345.9492 C 317.88546,373.96189 290.58143,392.56599 263.60337,389.7196 C 228.93896,386.06224 206.09024,352.0934 210.11199,318.56687 C 215.14709,276.59275 256.47245,249.08581 297.20765,254.45282 C 347.14168,261.03181 379.71529,310.39641 372.83578,358.99229 C 364.54893,417.52936 306.47028,455.57354 249.36909,447.0166 C 210.88853,441.25007 177.40936,415.90408 160.03315,381.28507"
             sodipodi:t0="0.34799999"
             sodipodi:argument="-17.967684"
             sodipodi:radius="125.84409"
             sodipodi:revolution="3.3"
             sodipodi:expansion="1.88"
             sodipodi:cy="335.21933"
             sodipodi:cx="277.14285"
             id="path3538"
             style="fill:none;fill-rule:evenodd;stroke:#ff2300;stroke-width:15;stroke-linecap:butt;stroke-linejoin:miter;stroke-miterlimit:4;stroke-dasharray:none;stroke-opacity:1"
             sodipodi:type="spiral" />
          <path
             transform="translate(536.62666,406.16925)"
             d="M 272.97223,352.00727 C 260.87459,352.14494 252.45862,340.5743 252.83149,329.17967 C 253.3786,312.46067 269.47057,301.08055 285.37103,302.0986 C 307.39866,303.50895 322.1776,324.85007 320.33364,345.9492 C 317.88546,373.96189 290.58143,392.56599 263.60337,389.7196 C 228.93896,386.06224 206.09024,352.0934 210.11199,318.56687 C 215.14709,276.59275 256.47245,249.08581 297.20765,254.45282 C 347.14168,261.03181 379.71529,310.39641 372.83578,358.99229 C 364.54893,417.52936 306.47028,455.57354 249.36909,447.0166 C 210.88853,441.25007 177.40936,415.90408 160.03315,381.28507"
             sodipodi:t0="0.34799999"
             sodipodi:argument="-17.967684"
             sodipodi:radius="125.84409"
             sodipodi:revolution="3.3"
             sodipodi:expansion="1.88"
             sodipodi:cy="335.21933"
             sodipodi:cx="277.14285"
             id="path3540"
             style="fill:none;fill-rule:evenodd;stroke:#ff4600;stroke-width:15;stroke-linecap:butt;stroke-linejoin:miter;stroke-miterlimit:4;stroke-dasharray:none;stroke-opacity:1"
             sodipodi:type="spiral" />
          <path
             transform="matrix(-1.0000001,0,0,-1.0000001,857.3839,1169.3102)"
             d="M 272.97223,352.00727 C 260.87459,352.14494 252.45862,340.5743 252.83149,329.17967 C 253.3786,312.46067 269.47057,301.08055 285.37103,302.0986 C 307.39866,303.50895 322.1776,324.85007 320.33364,345.9492 C 317.88546,373.96189 290.58143,392.56599 263.60337,389.7196 C 228.93896,386.06224 206.09024,352.0934 210.11199,318.56687 C 215.14709,276.59275 256.47245,249.08581 297.20765,254.45282 C 347.14168,261.03181 379.71529,310.39641 372.83578,358.99229 C 364.54893,417.52936 306.47028,455.57354 249.36909,447.0166 C 210.88853,441.25007 177.40936,415.90408 160.03315,381.28507"
             sodipodi:t0="0.34799999"
             sodipodi:argument="-17.967684"
             sodipodi:radius="125.84409"
             sodipodi:revolution="3.3"
             sodipodi:expansion="1.88"
             sodipodi:cy="335.21933"
             sodipodi:cx="277.14285"
             id="path3542"
             style="fill:none;fill-rule:evenodd;stroke:#ffd200;stroke-width:15;stroke-linecap:butt;stroke-linejoin:miter;stroke-miterlimit:4;stroke-dasharray:none;stroke-opacity:1"
             sodipodi:type="spiral" />
          <path
             transform="matrix(0,1.0000001,-1.0000001,0,1075.5845,637.24691)"
             d="M 272.97223,352.00727 C 260.87459,352.14494 252.45862,340.5743 252.83149,329.17967 C 253.3786,312.46067 269.47057,301.08055 285.37103,302.0986 C 307.39866,303.50895 322.1776,324.85007 320.33364,345.9492 C 317.88546,373.96189 290.58143,392.56599 263.60337,389.7196 C 228.93896,386.06224 206.09024,352.0934 210.11199,318.56687 C 215.14709,276.59275 256.47245,249.08581 297.20765,254.45282 C 347.14168,261.03181 379.71529,310.39641 372.83578,358.99229 C 364.54893,417.52936 306.47028,455.57354 249.36909,447.0166 C 210.88853,441.25007 177.40936,415.90408 160.03315,381.28507"
             sodipodi:t0="0.34799999"
             sodipodi:argument="-17.967684"
             sodipodi:radius="125.84409"
             sodipodi:revolution="3.3"
             sodipodi:expansion="1.88"
             sodipodi:cy="335.21933"
             sodipodi:cx="277.14285"
             id="path3544"
             style="fill:none;fill-rule:evenodd;stroke:#ff8c00;stroke-width:15;stroke-linecap:butt;stroke-linejoin:miter;stroke-miterlimit:4;stroke-dasharray:none;stroke-opacity:1"
             sodipodi:type="spiral" />
          <path
             transform="matrix(0,-1.0000001,1.0000001,0,318.8224,938.15752)"
             d="M 272.97223,352.00727 C 260.87459,352.14494 252.45862,340.5743 252.83149,329.17967 C 253.3786,312.46067 269.47057,301.08055 285.37103,302.0986 C 307.39866,303.50895 322.1776,324.85007 320.33364,345.9492 C 317.88546,373.96189 290.58143,392.56599 263.60337,389.7196 C 228.93896,386.06224 206.09024,352.0934 210.11199,318.56687 C 215.14709,276.59275 256.47245,249.08581 297.20765,254.45282 C 347.14168,261.03181 379.71529,310.39641 372.83578,358.99229 C 364.54893,417.52936 306.47028,455.57354 249.36909,447.0166 C 210.88853,441.25007 177.40936,415.90408 160.03315,381.28507"
             sodipodi:t0="0.34799999"
             sodipodi:argument="-17.967684"
             sodipodi:radius="125.84409"
             sodipodi:revolution="3.3"
             sodipodi:expansion="1.88"
             sodipodi:cy="335.21933"
             sodipodi:cx="277.14285"
             id="path3546"
             style="fill:none;fill-rule:evenodd;stroke:#ff0000;stroke-width:15;stroke-linecap:butt;stroke-linejoin:miter;stroke-miterlimit:4;stroke-dasharray:none;stroke-opacity:1"
             sodipodi:type="spiral" />
        </g>
      </g>
    </g>
  </g>
</svg>
