<?xml version="1.0" encoding="UTF-8" standalone="no"?>
<!-- Created with Inkscape (http://www.inkscape.org/) -->

<svg
   xmlns:dc="http://purl.org/dc/elements/1.1/"
   xmlns:cc="http://creativecommons.org/ns#"
   xmlns:rdf="http://www.w3.org/1999/02/22-rdf-syntax-ns#"
   xmlns:svg="http://www.w3.org/2000/svg"
   xmlns="http://www.w3.org/2000/svg"
   xmlns:sodipodi="http://sodipodi.sourceforge.net/DTD/sodipodi-0.dtd"
   xmlns:inkscape="http://www.inkscape.org/namespaces/inkscape"
   width="232.30463"
   height="105.68901"
   id="svg2"
   version="1.1"
   inkscape:version="0.47 r22583"
   sodipodi:docname="Novo documento 1">
  <defs
     id="defs4">
    <inkscape:perspective
       sodipodi:type="inkscape:persp3d"
       inkscape:vp_x="0 : 526.18109 : 1"
       inkscape:vp_y="0 : 1000 : 0"
       inkscape:vp_z="744.09448 : 526.18109 : 1"
       inkscape:persp3d-origin="372.04724 : 350.78739 : 1"
       id="perspective10" />
    <inkscape:perspective
       id="perspective2836"
       inkscape:persp3d-origin="0.5 : 0.33333333 : 1"
       inkscape:vp_z="1 : 0.5 : 1"
       inkscape:vp_y="0 : 1000 : 0"
       inkscape:vp_x="0 : 0.5 : 1"
       sodipodi:type="inkscape:persp3d" />
  </defs>
  <sodipodi:namedview
     id="base"
     pagecolor="#ffffff"
     bordercolor="#666666"
     borderopacity="1.0"
     inkscape:pageopacity="0.0"
     inkscape:pageshadow="2"
     inkscape:zoom="0.7"
     inkscape:cx="121.9357"
     inkscape:cy="161.02853"
     inkscape:document-units="px"
     inkscape:current-layer="layer1"
     showgrid="false"
     inkscape:window-width="1600"
     inkscape:window-height="838"
     inkscape:window-x="-8"
     inkscape:window-y="-8"
     inkscape:window-maximized="1" />
  <metadata
     id="metadata7">
    <rdf:RDF>
      <cc:Work
         rdf:about="">
        <dc:format>image/svg+xml</dc:format>
        <dc:type
           rdf:resource="http://purl.org/dc/dcmitype/StillImage" />
        <dc:title></dc:title>
      </cc:Work>
    </rdf:RDF>
  </metadata>
  <g
     inkscape:label="Camada 1"
     inkscape:groupmode="layer"
     id="layer1"
     transform="translate(-253.05844,-572.39643)">
    <g
       id="g3627">
      <path
         transform="matrix(0.99762353,0,0,1.0548642,84.748037,-59.716501)"
         d="m 284.86302,634.15906 c 0,17.0157 -14.58541,30.80965 -32.57742,30.80965 -17.99201,0 -32.57742,-13.79395 -32.57742,-30.80965 0,-17.0157 14.58541,-30.80965 32.57742,-30.80965 17.99201,0 32.57742,13.79395 32.57742,30.80965 z"
         sodipodi:ry="30.809652"
         sodipodi:rx="32.577419"
         sodipodi:cy="634.15906"
         sodipodi:cx="252.2856"
         id="path2847"
         style="fill:#ffff64;fill-opacity:1;stroke:none"
         sodipodi:type="arc" />
      <path
         sodipodi:nodetypes="ccsscssscsscsc"
         id="path2842"
         d="m 254.55844,676.58544 c 76.43488,0 152.86975,0 229.30463,0 -10e-4,-6.36363 -0.54495,-12.59946 -1.90876,-18.85294 -1.11438,-5.10977 -4.11995,-9.07074 -7.30888,-12.8406 -10.93003,-12.92116 -26.03706,-14.54269 -41.91565,-13.11145 2.80306,-4.19096 0.17442,-26.5039 -1.54325,-32.03364 -6.26706,-20.17568 -27.21758,-28.08918 -46.31841,-25.31305 -13.86272,2.01482 -24.22143,14.36372 -28.50846,27.21679 -2.19345,6.57624 -3.57574,13.50067 -2.93254,20.51192 1.10315,5.24709 -3.2826,0.20429 -5.52016,-0.69035 -7.22449,-2.88856 -14.70068,-5.7344 -22.75614,-5.21629 -18.58675,1.19545 -28.27673,16.6876 -30.18628,33.8131 -13.42295,-1.98513 -26.17503,0.10775 -34.42461,11.63296 -3.08793,4.31405 -5.29044,9.51528 -5.98149,14.88355 z"
         style="fill:#ebebeb;fill-opacity:1;stroke:#ffffff;stroke-width:3;stroke-linecap:butt;stroke-linejoin:miter;stroke-miterlimit:4;stroke-opacity:1;stroke-dasharray:none" />
    </g>
  </g>
</svg>
