<?xml version="1.0" encoding="UTF-8" standalone="no"?>
<!-- Created with Inkscape (http://www.inkscape.org/) -->
<svg
   xmlns:dc="http://purl.org/dc/elements/1.1/"
   xmlns:cc="http://web.resource.org/cc/"
   xmlns:rdf="http://www.w3.org/1999/02/22-rdf-syntax-ns#"
   xmlns:svg="http://www.w3.org/2000/svg"
   xmlns="http://www.w3.org/2000/svg"
   xmlns:sodipodi="http://sodipodi.sourceforge.net/DTD/sodipodi-0.dtd"
   xmlns:inkscape="http://www.inkscape.org/namespaces/inkscape"
   width="403.85715"
   height="238.14285"
   id="svg2"
   sodipodi:version="0.32"
   inkscape:version="0.45.1"
   sodipodi:docbase="C:\Documents and Settings\Bianca\Desktop"
   sodipodi:docname="swimming pool.svg"
   inkscape:output_extension="org.inkscape.output.svg.inkscape"
   version="1.0">
  <defs
     id="defs4" />
  <sodipodi:namedview
     id="base"
     pagecolor="#ffffff"
     bordercolor="#666666"
     borderopacity="1.0"
     inkscape:pageopacity="0.0"
     inkscape:pageshadow="2"
     inkscape:zoom="1.4"
     inkscape:cx="138.40283"
     inkscape:cy="130.39066"
     inkscape:document-units="px"
     inkscape:current-layer="layer1"
     showguides="true"
     inkscape:guide-bbox="true"
     inkscape:window-width="1152"
     inkscape:window-height="811"
     inkscape:window-x="-4"
     inkscape:window-y="-4" />
  <metadata
     id="metadata7">
    <rdf:RDF>
      <cc:Work
         rdf:about="">
        <dc:format>image/svg+xml</dc:format>
        <dc:type
           rdf:resource="http://purl.org/dc/dcmitype/StillImage" />
      </cc:Work>
    </rdf:RDF>
  </metadata>
  <g
     inkscape:label="Camada 1"
     inkscape:groupmode="layer"
     id="layer1"
     transform="translate(-88.964284,-177.21932)">
    <g
       id="g9011">
      <path
         id="path4128"
         d="M 340.90625,177.71875 L 89.46875,282.71875 L 172.3125,414.875 L 492.3125,228.4375 L 340.90625,177.71875 z M 340.6875,185.5 L 471.5,229.59375 L 180.65625,395.71875 L 107.75,284.40625 L 340.6875,185.5 z "
         style="fill:#dde6dc;fill-opacity:1;fill-rule:evenodd;stroke:none;stroke-width:1px;stroke-linecap:butt;stroke-linejoin:miter;stroke-opacity:1" />
      <path
         id="path2186"
         d="M 114.46429,294.32647 L 340.625,197.80861 L 456.47322,238.12111 L 180.80357,395.62111 L 114.46429,294.32647 z "
         style="fill:#51badc;fill-opacity:1;fill-rule:evenodd;stroke:none;stroke-width:1px;stroke-linecap:butt;stroke-linejoin:miter;stroke-opacity:1" />
      <path
         id="path2170"
         d="M 89.464284,282.71932 L 172.32143,414.86218 L 492.32143,228.4336 L 340.89285,177.71932 L 89.464284,282.71932 z "
         style="fill:none;fill-rule:evenodd;stroke:#000000;stroke-width:1px;stroke-linecap:butt;stroke-linejoin:miter;stroke-opacity:1" />
      <path
         sodipodi:nodetypes="ccccccc"
         id="path8040"
         d="M 107.85714,284.32647 L 340.625,185.57647 L 471.42857,229.50504 L 456.42857,238.16575 L 340.71429,197.80861 L 114.86608,295.21932 L 107.85714,284.32647 z "
         style="fill:#aac1a8;fill-opacity:1;fill-rule:evenodd;stroke:none;stroke-width:1px;stroke-linecap:butt;stroke-linejoin:miter;stroke-opacity:1" />
      <path
         sodipodi:nodetypes="ccccc"
         id="path2172"
         d="M 107.76374,284.39494 L 180.64748,395.71196 L 471.49387,229.59508 L 340.68135,185.51239 L 107.76374,284.39494 z "
         style="fill:none;fill-rule:evenodd;stroke:#000000;stroke-width:0.91079038px;stroke-linecap:butt;stroke-linejoin:miter;stroke-opacity:1" />
      <path
         sodipodi:nodetypes="cccc"
         id="path2174"
         d="M 114.82142,295.21933 L 340.718,197.84051 L 456.42857,238.07647 L 456.42857,238.07647"
         style="fill:none;fill-rule:evenodd;stroke:#000000;stroke-width:1px;stroke-linecap:butt;stroke-linejoin:miter;stroke-opacity:1" />
      <path
         sodipodi:nodetypes="cc"
         id="path2176"
         d="M 340.718,198.05607 L 340.718,185.85964"
         style="fill:none;fill-rule:evenodd;stroke:#000000;stroke-width:1px;stroke-linecap:butt;stroke-linejoin:miter;stroke-opacity:1" />
      <path
         sodipodi:nodetypes="csssscscsscsss"
         id="path2184"
         d="M 342.81209,310.32737 C 343.20051,312.22142 348.47646,311.59018 349.02606,309.18345 C 350.1004,304.47885 351.64457,299.70821 351.72294,294.85431 C 351.75897,292.62279 350.06848,290.38554 348.07635,289.50391 C 344.19901,287.78796 340.09153,286.5296 336.03007,285.25847 C 332.90608,284.28075 329.58203,283.64447 326.38353,283.54166 C 321.62112,283.70941 319.9124,289.40561 319.07547,293.60061 C 317.50273,301.48373 315.85227,313.48392 314.32997,321.38093 C 315.66777,322.69877 319.39498,322.70417 319.64058,320.50447 C 319.93087,317.9046 320.55136,311.32402 321.03572,308.74346 C 322.09505,303.09956 322.90688,297.36332 324.45643,291.85287 C 327.84738,286.25936 337.71088,290.99076 342.45497,292.82737 C 344.15761,293.48652 345.63205,295.2178 345.02717,297.53818 C 343.94637,301.68421 342.06195,306.66943 342.81209,310.32737 z "
         style="fill:#b7b7b7;fill-opacity:1;fill-rule:evenodd;stroke:#000000;stroke-width:1px;stroke-linecap:butt;stroke-linejoin:miter;stroke-opacity:1" />
      <path
         sodipodi:nodetypes="csssscscsscsss"
         id="path2178"
         d="M 324.13405,321.35576 C 324.52247,323.24981 329.79842,322.61857 330.34802,320.21184 C 331.42236,315.50724 332.96653,310.7366 333.0449,305.8827 C 333.08093,303.65118 331.39044,301.41393 329.39831,300.5323 C 325.52097,298.81635 321.41349,297.55799 317.35203,296.28686 C 314.22804,295.30914 310.90399,294.67286 307.70549,294.57005 C 302.94308,294.7378 301.23436,300.434 300.39743,304.629 C 298.82469,312.51212 297.17423,324.51231 295.65193,332.40932 C 296.98973,333.72716 300.71694,333.73256 300.96254,331.53286 C 301.25283,328.93299 301.87332,322.35241 302.35768,319.77185 C 303.41701,314.12795 304.22884,308.39171 305.77839,302.88126 C 309.16934,297.28775 319.03284,302.01915 323.77693,303.85576 C 325.47957,304.51491 326.95401,306.24619 326.34913,308.56657 C 325.26833,312.7126 323.38391,317.69782 324.13405,321.35576 z "
         style="fill:#b7b7b7;fill-opacity:1;fill-rule:evenodd;stroke:#000000;stroke-width:1px;stroke-linecap:butt;stroke-linejoin:miter;stroke-opacity:1" />
      <path
         sodipodi:nodetypes="cccc"
         id="path5111"
         d="M 295.05396,341.10501 L 324.11628,324.74578 L 322.35615,314.77733 L 294.72941,330.81133"
         style="fill:#dde6dc;fill-opacity:1;fill-rule:evenodd;stroke:none;stroke-width:1px;stroke-linecap:butt;stroke-linejoin:miter;stroke-opacity:1" />
      <path
         sodipodi:nodetypes="cc"
         id="path5131"
         d="M 294.08718,330.92089 L 322.7733,314.53681"
         style="fill:none;fill-rule:evenodd;stroke:#000000;stroke-width:0.91079038px;stroke-linecap:butt;stroke-linejoin:miter;stroke-opacity:1" />
    </g>
  </g>
</svg>
