<?xml version="1.0" encoding="UTF-8" standalone="no"?>
<!-- Created with Inkscape (http://www.inkscape.org/) -->
<svg
   xmlns:dc="http://purl.org/dc/elements/1.1/"
   xmlns:cc="http://creativecommons.org/ns#"
   xmlns:rdf="http://www.w3.org/1999/02/22-rdf-syntax-ns#"
   xmlns:svg="http://www.w3.org/2000/svg"
   xmlns="http://www.w3.org/2000/svg"
   xmlns:sodipodi="http://sodipodi.sourceforge.net/DTD/sodipodi-0.dtd"
   xmlns:inkscape="http://www.inkscape.org/namespaces/inkscape"
   width="572.7262"
   height="297.6918"
   id="svg2"
   sodipodi:version="0.32"
   inkscape:version="0.46"
   version="1.0"
   sodipodi:docname="wave scene.svg"
   inkscape:output_extension="org.inkscape.output.svg.inkscape">
  <defs
     id="defs4">
    <inkscape:perspective
       sodipodi:type="inkscape:persp3d"
       inkscape:vp_x="0 : 526.18109 : 1"
       inkscape:vp_y="0 : 1000 : 0"
       inkscape:vp_z="744.09448 : 526.18109 : 1"
       inkscape:persp3d-origin="372.04724 : 350.78739 : 1"
       id="perspective10" />
  </defs>
  <sodipodi:namedview
     id="base"
     pagecolor="#ffffff"
     bordercolor="#666666"
     borderopacity="1.0"
     inkscape:pageopacity="0.0"
     inkscape:pageshadow="2"
     inkscape:zoom="0.7"
     inkscape:cx="379.71073"
     inkscape:cy="119.43976"
     inkscape:document-units="px"
     inkscape:current-layer="g3201"
     showgrid="false"
     showguides="true"
     inkscape:guide-bbox="true"
     inkscape:window-width="1280"
     inkscape:window-height="719"
     inkscape:window-x="-4"
     inkscape:window-y="-4" />
  <metadata
     id="metadata7">
    <rdf:RDF>
      <cc:Work
         rdf:about="">
        <dc:format>image/svg+xml</dc:format>
        <dc:type
           rdf:resource="http://purl.org/dc/dcmitype/StillImage" />
      </cc:Work>
    </rdf:RDF>
  </metadata>
  <g
     inkscape:label="Camada 1"
     inkscape:groupmode="layer"
     id="layer1"
     transform="translate(-65.065491,-346.74774)">
    <g
       id="g3201">
      <g
         id="g3212">
        <rect
           style="opacity:1;fill:#d5efff;fill-opacity:1;stroke:none;stroke-width:15;stroke-miterlimit:4;stroke-dasharray:none;stroke-dashoffset:0;stroke-opacity:1"
           id="rect3178"
           width="557.7262"
           height="277.72617"
           x="72.565491"
           y="359.21338"
           ry="66.939941" />
        <path
           style="opacity:1;fill:#089fff;fill-opacity:1;fill-rule:evenodd;stroke:#ffffff;stroke-width:10.58706856;stroke-linecap:butt;stroke-linejoin:miter;marker:none;marker-start:none;marker-mid:none;marker-end:none;stroke-miterlimit:4;stroke-dasharray:none;stroke-dashoffset:0;stroke-opacity:1;visibility:visible;display:inline;overflow:visible;enable-background:accumulate"
           d="M 300.79986,630.2369 C 336.70385,565.30987 405.33589,515.39616 471.37918,504.3391 C 500.80132,499.4132 538.5663,498.17879 560.62187,509.47835 C 582.67744,520.77792 593.21001,531.54035 600.06508,550.31969 C 613.60072,587.40036 564.7233,575.01527 543.9398,584.7833 C 522.93686,594.65446 502.30613,610.77558 491.11906,633.67532"
           id="path3176"
           sodipodi:nodetypes="cszssc" />
        <path
           style="opacity:1;fill:#089fff;fill-opacity:1;fill-rule:evenodd;stroke:#ffffff;stroke-width:10.58706856;stroke-linecap:butt;stroke-linejoin:miter;marker:none;marker-start:none;marker-mid:none;marker-end:none;stroke-miterlimit:4;stroke-dasharray:none;stroke-dashoffset:0;stroke-opacity:1;visibility:visible;display:inline;overflow:visible;enable-background:accumulate"
           d="M 113.51553,630.2369 C 149.41952,565.30987 218.05156,515.39616 284.09485,504.3391 C 313.51699,499.4132 351.28197,498.17879 373.33754,509.47835 C 395.39311,520.77792 405.92568,531.54035 412.78075,550.31969 C 426.31639,587.40036 377.43897,575.01527 356.65547,584.7833 C 335.65253,594.65446 315.0218,610.77558 303.83473,633.67532"
           id="path3180"
           sodipodi:nodetypes="cszssc" />
        <path
           style="fill:#ffea00;fill-opacity:1;stroke:#ffffff;stroke-width:10;stroke-miterlimit:4;stroke-dashoffset:0;stroke-opacity:1"
           d="M 73.133185,465.7758 C 82.715315,470.11709 93.352442,472.53463 104.55078,472.53463 C 146.6499,472.53463 180.8173,438.36723 180.8173,396.26811 C 180.8173,379.65555 175.49697,364.27807 166.46836,351.74774 L 126.26908,352.32647 L 95.964512,367.47876 L 71.720845,401.82395 L 73.133185,465.7758 z"
           id="path3182"
           sodipodi:nodetypes="csss" />
        <rect
           style="opacity:1;fill:none;fill-opacity:1;stroke:#089fff;stroke-width:15;stroke-miterlimit:4;stroke-dasharray:none;stroke-dashoffset:0;stroke-opacity:1"
           id="rect2383"
           width="557.7262"
           height="277.72617"
           x="72.565491"
           y="359.21338"
           ry="66.939941" />
        <path
           style="opacity:1;fill:none;fill-opacity:1;fill-rule:evenodd;stroke:#ffffff;stroke-width:10;stroke-linecap:butt;stroke-linejoin:miter;marker:none;marker-start:none;marker-mid:none;marker-end:none;stroke-miterlimit:4;stroke-dasharray:none;stroke-dashoffset:0;stroke-opacity:1;visibility:visible;display:inline;overflow:visible;enable-background:accumulate"
           d="M 477.34142,404.22982 C 486.9082,402.4477 494.69765,393.58337 504.86097,395.2114 C 512.93726,396.50511 517.66409,404.04873 523.09251,409.42607 C 526.21617,412.52033 527.72853,418.24723 532.81356,418.59049 C 538.9389,417.942 542.36881,411.9452 548.11426,410.06956 C 554.80291,407.88598 562.83444,404.53954 569.21224,408.99386 C 576.69619,414.22072 583.80826,420.27185 589.30065,427.61853"
           id="path3185"
           sodipodi:nodetypes="csscssc" />
        <path
           style="opacity:1;fill:none;fill-opacity:1;fill-rule:evenodd;stroke:#ffffff;stroke-width:7.5;stroke-linecap:butt;stroke-linejoin:miter;marker:none;marker-start:none;marker-mid:none;marker-end:none;stroke-miterlimit:4;stroke-dasharray:none;stroke-dashoffset:0;stroke-opacity:1;visibility:visible;display:inline;overflow:visible;enable-background:accumulate"
           d="M 435.461,431.34517 C 442.65587,430.00489 448.51406,423.33832 456.15756,424.56271 C 462.23148,425.53566 465.78637,431.20897 469.86891,435.2531 C 472.21811,437.58019 473.35551,441.8872 477.17979,442.14536 C 481.78646,441.65765 484.36599,437.14765 488.68695,435.73705 C 493.71727,434.09485 499.75752,431.5781 504.55406,434.92805 C 510.18249,438.859 515.53125,443.40986 519.6619,448.93505"
           id="path3199"
           sodipodi:nodetypes="csscssc" />
      </g>
    </g>
  </g>
</svg>
